<svg width="1010" height="171" viewBox="0 0 1010 171" fill="none" xmlns="http://www.w3.org/2000/svg">
<path fill-rule="evenodd" clip-rule="evenodd" d="M867.018 7.046L873.728 33.6438L873.946 33.5979C880.188 32.2824 883.755 31.5309 889.295 29.6138C900.568 24.7779 896.81 3.82203 885.001 2.74737C877.826 3.15371 873.877 3.99224 867.018 7.046ZM879.901 25.3152L876.412 10.8073C878.483 9.65837 881.78 9.19532 883.659 9.46398C887.416 10.27 889.563 18.3299 888.221 21.0166C886.879 23.1659 883.342 24.451 879.901 25.3152Z" fill="#244F33"/>
<path fill-rule="evenodd" clip-rule="evenodd" d="M903.252 27.1958L914.792 2.21004C919.043 1.92236 921.513 2.14884 926.065 3.2847L929.823 31.2258H921.771V25.8525L912.377 24.7779L910.23 29.6138L903.252 27.1958ZM920.429 19.4046L914.792 18.5986L919.355 8.92665L920.429 19.4046Z" fill="#244F33"/>
<path d="M962.836 25.8525L950.221 43.3157L955.589 47.883L968.74 31.2258L974.914 35.5244L980.013 30.4198L960.957 15.6433L956.394 20.4792L962.836 25.8525Z" fill="#244F33"/>
<path d="M966.862 58.3609L988.602 40.8977L993.97 46.271L972.23 64.0029L966.862 58.3609Z" fill="#244F33"/>
<path fill-rule="evenodd" clip-rule="evenodd" d="M976.256 68.0328L1004.97 65.0775L1009 75.0181L987.26 93.0186L982.429 86.302L987.26 82.2721L984.039 75.0181L978.403 75.5554L976.256 68.0328ZM992.091 79.0481L990.212 73.6748L1000.41 72.8688L992.091 79.0481Z" fill="#244F33"/>
<path fill-rule="evenodd" clip-rule="evenodd" d="M84.6408 45.7334C88.551 52.5547 87.0787 58.4394 80.3464 71.2565C79.0641 73.3708 80.6445 77.9842 82.4936 78.5104C85.1776 82.5403 87.3247 83.0776 89.7403 83.6151C113.359 86.3016 134.026 62.1219 136.441 40.3601C137.247 21.5536 127.047 9.19504 113.091 3.82175C84.6408 -3.16317 62.9006 2.74744 38.2081 22.3595C7.71547 52.509 -1.19987 73.542 1.43773 120.422C4.39008 141.647 19.9571 161.259 43.5761 168.244C71.6474 172.61 85.0169 169.055 105.844 155.08C111.22 150.186 113.762 147.616 117.654 143.259C131.073 173.349 174.017 177.379 199.515 144.065C206.018 143.608 209.437 142.924 215.082 140.841C214.672 145.462 214.671 148.05 215.082 152.662C216.155 158.304 224.744 165.558 230.917 167.17C248.789 169.478 253.283 164.809 257.757 152.662C258.83 122.84 260.441 107.795 273.861 98.9289C279.29 96.7838 280.453 97.9475 280.839 102.153C278.683 113.656 275.203 120.154 271.713 130.9C269.298 139.498 268.761 152.662 273.861 158.304C283.523 169.857 300.164 169.857 310.899 161.528C317.08 152.934 317.877 146.644 315.462 133.318C314.656 116.677 318.071 111.037 325.393 102.153C329.567 98.012 331.647 97.7633 335.324 97.5855C336.35 99.0322 336.471 100.803 336.129 105.108C331.298 118.004 326.466 134.93 328.077 145.676C332.182 162.585 339.542 166.553 357.869 167.976C372.152 163.321 379.202 158.365 389.54 144.065C406.717 174.693 446.172 176.842 477.305 145.139C487.505 172.543 518.639 176.842 536.89 148.632C547.626 173.081 574.734 174.424 592.448 147.826C608.552 172.006 647.201 177.648 672.43 144.065C690.508 142.185 698.901 137.634 709.737 121.228C717.332 106.727 721.332 98.8411 727.988 85.227C731.082 87.7646 731.967 89.8597 729.867 96.5109C724.117 109.698 719.131 121.228 716.984 130.363C713.169 158.075 727.988 166.095 743.555 167.707C760.175 167.023 766.962 162.4 777.373 151.318C788.378 170.125 809.849 177.379 832.931 150.244C844.741 170.663 868.092 176.842 890.637 149.169C897.615 167.707 919.624 176.842 941.095 154.811C951.478 140.156 956.609 131.238 964.446 113.974C966.868 108.523 967.057 106.22 965.251 103.496C958.567 97.9678 954.904 97.2015 948.61 102.153C944.856 107.754 942.74 109.536 938.948 111.019C930.804 113.008 930.04 110.033 929.823 103.496C934.66 88.9872 938.218 81.0317 945.121 66.9578C946.732 56.7489 938.948 48.9577 927.139 52.4499C921.973 55.1174 919.183 56.6961 914.792 59.9725C901.91 47.6143 879.901 49.7637 862.455 61.5845C847.739 73.9185 841.152 82.5933 834.542 103.496C831.781 110.104 829.564 111.106 825.148 111.019C821.258 109.863 819.991 108.211 820.317 102.421C822.732 88.4513 827.564 81.4661 830.247 66.1518C830.247 53.525 823.538 49.495 813.607 52.7186C810.015 54.544 808.776 54.3309 803.408 58.8979C794.747 68.4444 791.213 75.9985 785.425 90.3316C780.863 102.421 781.131 106.183 777.373 108.332C769.858 113.706 762.88 110.213 762.88 103.496C764.177 94.7446 766.906 90.3316 769.858 81.197C773.783 69.9625 772.136 65.797 768.248 58.8979C754.586 45.3073 745.216 41.8841 726.646 40.36C715.58 42.859 710.175 45.7258 703.027 55.4052C700.075 63.7342 701.175 72.1319 707.858 75.2864C700.641 99.138 693.902 108.332 688.265 110.213C692.752 77.753 687.192 64.8089 673.235 55.4052C657.04 49.4711 647.55 50.0076 629.755 57.5546C610.684 69.4125 603.707 79.5505 593.79 100.004C591.464 106.015 589.687 108.252 586.006 111.019C577.51 112.651 576.087 110.415 576.075 104.033C581.712 83.078 592.985 56.7489 606.673 26.9268C609.939 16.6433 609.302 12.2155 604.257 6.5083C595.431 1.95055 589.733 4.33153 579.028 12.1503C569.033 24.7011 564.57 35.6016 557.824 59.1665C541.989 48.7664 531.989 49.5003 512.734 59.1665C500.464 68.1213 494.033 74.2154 485.089 91.1376C479.727 108.341 474.654 114.723 462.007 120.422C446.44 125.258 431.946 124.184 427.384 118.273C443.449 122.157 451.149 120.753 463.617 114.78C476.498 105.534 478.831 98.8452 481.868 86.5703C482.709 70.8671 478.932 65.2644 469.522 57.2859C457.741 50.7313 449.104 50.7819 431.946 54.0619C417.339 59.9854 409.745 65.985 397.323 81.7343C392.627 89.5509 390.744 94.0923 388.466 102.421C386.165 108.396 383.842 109.927 379.072 111.556C372.786 110.617 371.541 108.075 372.094 101.078C374.542 91.5227 376.114 87.2996 379.072 80.6597C381.756 71.2568 376.12 57.0176 366.458 53.2559C342.208 47.6829 335.219 54.3859 321.904 65.0772C314.895 54.0337 309.712 51.8135 299.358 51.3753C287.123 52.5974 279.971 55.8481 266.614 67.2265C266.52 58.3128 264.411 55.1543 258.562 51.3753C253.353 51.3058 250.926 52.3337 247.289 55.6739C243.164 57.1099 241.909 59.1735 239.506 62.6592C231.538 76.2481 228.195 85.2694 222.865 102.153C220.194 107.993 218.43 109.334 215.082 110.213C219.255 81.4011 215.082 66.6895 201.125 55.6739C188.51 50.301 168.381 49.495 151.472 60.7785C135.129 72.1462 128.749 82.7213 118.459 103.227C113.359 112.631 99.671 115.318 83.8356 114.243C65.5846 113.168 53.2383 101.079 51.0912 91.4062C48.4072 79.3163 50.286 59.1665 69.3422 47.0766C74.7101 44.39 80.3464 43.8527 84.6408 45.7334ZM934.117 68.5702C935.389 64.7972 935.268 62.9539 934.117 59.9725C936.681 61.0402 938.948 63.4655 935.459 71.2568C929.965 82.49 927.212 89.0263 922.845 101.079C921.092 107.402 921.619 110.371 924.187 115.049C919.62 111.687 918.282 105.109 920.966 98.3919C925.518 86.1083 928.563 79.7599 934.117 68.5702ZM955.589 109.676C942.803 137.907 937.108 144.962 927.139 156.423C937.146 149.302 943.283 142.609 958.541 108.601C957.655 106.804 956.952 106.696 955.589 106.989V109.676ZM888.758 133.318C884.281 142.866 880.672 148.176 870.507 157.498C879.428 151.941 883.917 147.103 890.637 134.124C890.325 132.423 889.815 132.572 888.758 133.318ZM873.459 89.2573C862.455 95.1679 858.429 112.631 869.165 118.273C861.65 108.87 866.213 97.3173 873.459 89.2573ZM817.633 154.005C823.641 147.516 826.566 143.786 830.247 136.811C830.732 141.072 827.083 145.24 817.633 154.005ZM818.707 71.2568C820.144 66.2446 819.909 63.569 818.707 58.8979C822.299 61.0779 823.061 63.9929 821.122 73.6748L813.607 97.8546C811.579 104.375 812.277 108.091 815.486 114.78C810.235 111.456 808.312 108.443 810.923 96.2426L818.707 71.2568ZM762.88 154.005C767.711 148.901 773.347 141.916 775.763 138.423C774.443 142.58 772.155 145.713 762.88 154.005ZM760.196 79.8541C764.134 68.6536 761.59 63.5552 752.144 55.6743L752.409 55.8537C762.487 62.6841 768.197 66.5533 762.343 81.7347L755.902 97.0486C753.866 103.052 754.094 106.672 757.512 113.706C752.157 109.877 750.534 103.496 753.486 95.7053L760.196 79.8541ZM719.4 79.3167C708.504 104.73 702.774 116.168 691.755 129.288C701.975 121.005 708.357 110.996 721.278 80.6601C720.954 79.637 720.54 79.3576 719.4 79.3167ZM675.919 115.855C681.824 91.944 681.019 75.2868 668.404 62.3909C681.287 69.9135 686.655 84.4214 679.14 115.855H675.919ZM633.244 88.9887C620.898 95.7053 618.482 115.855 629.755 118.542C621.703 109.676 626.266 97.3173 633.244 88.9887ZM589.227 134.662C584.128 145.333 579.533 149.842 571.513 158.035C579.754 152.593 583.466 148.164 589.227 138.96V134.662ZM596.474 22.3599C598.078 17.5638 598.206 15.2592 596.474 12.1503C600.102 13.5954 601.133 15.5107 598.621 23.7032L569.634 98.1233C568.024 103.765 567.487 110.213 570.976 115.318C565.701 111.864 564.266 104.033 567.487 97.0486L596.474 22.3599ZM516.223 158.035C525.373 150.18 533.669 134.662 536.084 132.244C536.084 136.542 528.838 149.976 516.223 158.035ZM519.175 89.526C509.513 94.6306 504.145 112.094 514.881 117.736C509.628 107.068 511.414 100.85 519.175 89.526ZM476.5 131.706C469.079 141.625 464.069 146.437 453.418 153.468C462.011 149.443 467.013 145.59 476.5 133.856V131.706ZM419.063 112.9C417.936 117.436 418.864 119.889 421.747 124.184C413.964 119.348 413.695 112.9 419.063 112.9ZM461.202 61.5849C480.258 67.2268 478.379 99.7352 457.713 109.139C474.353 94.0933 475.427 74.4808 461.202 61.5849ZM425.505 98.6606C417.453 96.7799 419.063 85.496 427.384 80.6597C422.84 87.5216 421.493 91.423 425.505 98.6606ZM386.319 130.632C380.83 140.669 376.889 145.907 368.873 154.811C376.568 148.246 380.555 143.885 386.319 133.318V130.632ZM368.336 76.8988C369.508 69.4099 367.568 65.8655 361.358 60.2416C368.336 63.1969 372.094 66.9582 370.752 78.5108C369.142 86.0334 365.921 91.944 365.116 96.5113C363.411 103.042 363.874 107.289 366.458 114.78C361.211 109.718 361.358 105.108 362.968 96.5113C363.774 90.8693 367.531 84.69 368.336 76.8988ZM312.241 70.9881C311.586 66.8061 310.188 64.6249 307.41 60.7789C311.489 63.5642 313.389 65.5352 314.925 70.9881H312.241ZM301.237 158.304C306.605 151.856 307.384 143.094 305.531 133.318C302.074 112.821 312.055 103.666 321.637 94.8753L321.904 94.6306C310.899 107.527 306.386 115.049 307.41 132.244C308.752 140.035 310.899 151.319 301.237 158.304ZM254.804 59.4356C259.367 58.0923 257.757 68.8388 259.367 70.9881C255.816 70.0763 254.804 67.2265 254.804 59.4356ZM252.12 121.497C253.999 110.108 257.251 104.583 265.54 95.7053C257.757 102.153 251.047 105.915 248.631 127.139C247.826 141.378 251.315 149.438 243.532 159.11C254.804 153.468 250.51 136.811 252.12 121.497ZM202.735 115.855C210.039 88.0079 204.614 72.3315 194.684 61.8536C207.835 70.7195 213.203 89.7947 205.419 115.855H202.735ZM190.658 140.841L192.536 140.035C186.673 147.409 182.936 150.376 177.112 153.885C176.036 154.703 175.29 155.161 175.091 155.08C175.794 154.67 176.466 154.274 177.112 153.885C180.585 151.246 187.503 144.869 190.658 140.841ZM160.597 88.72C147.982 97.5859 144.762 112.631 155.229 118.273C148.253 104.827 152.939 99.0935 160.597 88.72ZM114.97 132.781C109.677 140.474 106.177 144.414 98.5974 150.513C106.037 145.771 109.585 142.032 115.506 134.662L114.97 132.781ZM59.6799 44.659C39.8185 56.4803 26.3195 95.157 57.2643 113.168C33.377 93.8246 40.0869 62.9282 59.6799 44.659ZM116.848 13.4939C135.099 23.4345 135.368 55.1369 105.844 73.1375C129.195 55.9429 131.342 29.6138 116.848 13.4939ZM162.208 99.1979C166.548 92.9198 169.341 91.0537 175.091 91.138C178.95 93.3946 180.925 94.8911 178.311 105.109C176.152 110.788 174.44 113.216 169.723 115.049C164.675 115.34 162.664 114.416 160.597 110.75C160.022 106.257 159.928 103.736 162.208 99.1979ZM635.66 99.4662C640 93.1881 642.793 91.322 648.543 91.4062C652.402 93.6628 654.378 95.1594 651.764 105.377C649.605 111.056 647.892 113.484 643.175 115.317C638.127 115.608 636.116 114.684 634.049 111.019C633.474 106.526 633.38 104.004 635.66 99.4662ZM521.859 99.1975C526.2 92.9194 528.993 91.0533 534.743 91.1376C538.602 93.3942 540.577 94.8907 537.963 105.108C535.804 110.787 534.092 113.216 529.375 115.049C524.327 115.34 522.316 114.415 520.249 110.75C519.674 106.257 519.579 103.735 521.859 99.1975ZM433.02 85.7647C435.81 83.463 437.604 82.4597 442.951 83.3467C444.232 84.8442 444.66 85.9939 444.024 89.526C443.276 93.2098 442.528 94.8524 439.998 96.2426C436.224 96.973 434.443 96.489 431.946 94.0933C430.762 89.8611 431.289 88.2152 433.02 85.7647ZM651.372 153.083C650.599 153.719 649.832 154.302 649.08 154.811C649.893 154.17 650.652 153.604 651.372 153.083C657.675 147.894 664.315 139.229 665.989 139.229C659.378 148.099 656.264 149.544 651.372 153.083ZM875.556 99.4662C879.896 93.1881 882.689 91.322 888.439 91.4062C892.298 93.6628 894.274 95.1594 891.66 105.377C889.501 111.056 887.788 113.484 883.071 115.317C878.023 115.608 876.013 114.684 873.946 111.019C873.371 106.526 873.276 104.004 875.556 99.4662Z" fill="#244F33"/>
<path fill-rule="evenodd" clip-rule="evenodd" d="M825.953 7.31466C816.468 7.9511 811.871 10.9627 804.213 18.3299C800.667 24.0735 799.859 27.6324 800.992 34.7184C802.951 41.2861 806.027 44.1589 813.607 48.4203C824.479 50.7967 829.931 50.4574 839.105 48.4203C845.132 45.4195 847.87 42.5686 850.646 33.6438C852.566 24.5109 851.761 20.3131 847.425 14.2999C840.635 8.81468 835.898 7.33494 825.953 7.31466ZM837.226 16.4493C842.086 24.0449 842.365 29.1276 837.226 40.0917C845.815 34.7184 846.083 19.6732 837.226 16.4493Z" fill="#244F33"/>
<path d="M752.144 55.6743C761.59 63.5552 764.134 68.6536 760.196 79.8541L753.486 95.7053C750.534 103.496 752.157 109.877 757.512 113.706C754.094 106.672 753.866 103.052 755.902 97.0486L762.343 81.7347C768.197 66.5533 762.487 62.6841 752.409 55.8537M752.144 55.6743L752.409 55.8537M752.144 55.6743C752.233 55.7343 752.321 55.7941 752.409 55.8537M321.904 94.6306C310.899 107.527 306.386 115.049 307.41 132.244C308.752 140.035 310.899 151.319 301.237 158.304C306.605 151.856 307.384 143.094 305.531 133.318C302.074 112.821 312.055 103.666 321.637 94.8753M321.904 94.6306L321.637 94.8753M321.904 94.6306C321.815 94.7122 321.726 94.7937 321.637 94.8753M873.728 33.6438L867.018 7.046C873.877 3.99224 877.826 3.15371 885.001 2.74737C896.81 3.82203 900.568 24.7779 889.295 29.6138C883.755 31.5309 880.188 32.2824 873.946 33.5979M873.728 33.6438L873.946 33.5979M873.728 33.6438C873.801 33.6284 873.874 33.6131 873.946 33.5979M651.372 153.083C650.599 153.719 649.832 154.302 649.08 154.811C649.893 154.17 650.652 153.604 651.372 153.083ZM651.372 153.083C657.675 147.894 664.315 139.229 665.989 139.229C659.378 148.099 656.264 149.544 651.372 153.083ZM177.112 153.885C176.036 154.703 175.29 155.161 175.091 155.08C175.794 154.67 176.466 154.274 177.112 153.885ZM177.112 153.885C180.585 151.246 187.503 144.869 190.658 140.841L192.536 140.035C186.673 147.409 182.936 150.376 177.112 153.885ZM84.6408 45.7334C88.551 52.5547 87.0787 58.4394 80.3464 71.2565C79.0641 73.3708 80.6445 77.9842 82.4936 78.5104C85.1776 82.5403 87.3247 83.0776 89.7403 83.6151C113.359 86.3016 134.026 62.1219 136.441 40.3601C137.247 21.5536 127.047 9.19504 113.091 3.82175C84.6408 -3.16317 62.9006 2.74744 38.2081 22.3595C7.71547 52.509 -1.19987 73.542 1.43773 120.422C4.39008 141.647 19.9571 161.259 43.5761 168.244C71.6474 172.61 85.0169 169.055 105.844 155.08C111.22 150.186 113.762 147.616 117.654 143.259C131.073 173.349 174.017 177.379 199.515 144.065C206.018 143.608 209.437 142.924 215.082 140.841C214.672 145.462 214.671 148.05 215.082 152.662C216.155 158.304 224.744 165.558 230.917 167.17C248.789 169.478 253.283 164.809 257.757 152.662C258.83 122.84 260.441 107.795 273.861 98.9289C279.29 96.7838 280.453 97.9475 280.839 102.153C278.683 113.656 275.203 120.154 271.713 130.9C269.298 139.498 268.761 152.662 273.861 158.304C283.523 169.857 300.164 169.857 310.899 161.528C317.08 152.934 317.877 146.644 315.462 133.318C314.656 116.677 318.071 111.037 325.393 102.153C329.567 98.012 331.647 97.7633 335.324 97.5855C336.35 99.0322 336.471 100.803 336.129 105.108C331.298 118.004 326.466 134.93 328.077 145.676C332.182 162.585 339.542 166.553 357.869 167.976C372.152 163.321 379.202 158.365 389.54 144.065C406.717 174.693 446.172 176.842 477.305 145.139C487.505 172.543 518.639 176.842 536.89 148.632C547.626 173.081 574.734 174.424 592.448 147.826C608.552 172.006 647.201 177.648 672.43 144.065C690.508 142.185 698.901 137.634 709.737 121.228C717.332 106.727 721.332 98.8411 727.988 85.227C731.082 87.7646 731.967 89.8597 729.867 96.5109C724.117 109.698 719.131 121.228 716.984 130.363C713.169 158.075 727.988 166.095 743.555 167.707C760.175 167.023 766.962 162.4 777.373 151.318C788.378 170.125 809.849 177.379 832.931 150.244C844.741 170.663 868.092 176.842 890.637 149.169C897.615 167.707 919.624 176.842 941.095 154.811C951.478 140.156 956.609 131.238 964.446 113.974C966.868 108.523 967.057 106.22 965.251 103.496C958.567 97.9678 954.904 97.2015 948.61 102.153C944.856 107.754 942.74 109.536 938.948 111.019C930.804 113.008 930.04 110.033 929.823 103.496C934.66 88.9872 938.218 81.0317 945.121 66.9578C946.732 56.7489 938.948 48.9577 927.139 52.4499C921.973 55.1174 919.183 56.6961 914.792 59.9725C901.91 47.6143 879.901 49.7637 862.455 61.5845C847.739 73.9185 841.152 82.5933 834.542 103.496C831.781 110.104 829.564 111.106 825.148 111.019C821.258 109.863 819.991 108.211 820.317 102.421C822.732 88.4513 827.564 81.4661 830.247 66.1518C830.247 53.525 823.538 49.495 813.607 52.7186C810.015 54.544 808.776 54.3309 803.408 58.8979C794.747 68.4444 791.213 75.9985 785.425 90.3316C780.863 102.421 781.131 106.183 777.373 108.332C769.858 113.706 762.88 110.213 762.88 103.496C764.177 94.7446 766.906 90.3316 769.858 81.197C773.783 69.9625 772.136 65.797 768.248 58.8979C754.586 45.3073 745.216 41.8841 726.646 40.36C715.58 42.859 710.175 45.7258 703.027 55.4052C700.075 63.7342 701.175 72.1319 707.858 75.2864C700.641 99.138 693.902 108.332 688.265 110.213C692.752 77.753 687.192 64.8089 673.235 55.4052C657.04 49.4711 647.55 50.0076 629.755 57.5546C610.684 69.4125 603.707 79.5505 593.79 100.004C591.464 106.015 589.687 108.252 586.006 111.019C577.51 112.651 576.087 110.415 576.075 104.033C581.712 83.078 592.985 56.7489 606.673 26.9268C609.939 16.6433 609.302 12.2155 604.257 6.5083C595.431 1.95055 589.733 4.33153 579.028 12.1503C569.033 24.7011 564.57 35.6016 557.824 59.1665C541.989 48.7664 531.989 49.5003 512.734 59.1665C500.464 68.1213 494.033 74.2154 485.089 91.1376C479.727 108.341 474.654 114.723 462.007 120.422C446.44 125.258 431.946 124.184 427.384 118.273C443.449 122.157 451.149 120.753 463.617 114.78C476.498 105.534 478.831 98.8452 481.868 86.5703C482.709 70.8671 478.932 65.2644 469.522 57.2859C457.741 50.7313 449.104 50.7819 431.946 54.0619C417.339 59.9854 409.745 65.985 397.323 81.7343C392.627 89.5509 390.744 94.0923 388.466 102.421C386.165 108.396 383.842 109.927 379.072 111.556C372.786 110.617 371.541 108.075 372.094 101.078C374.542 91.5227 376.114 87.2996 379.072 80.6597C381.756 71.2568 376.12 57.0176 366.458 53.2559C342.208 47.6829 335.219 54.3859 321.904 65.0772C314.895 54.0337 309.712 51.8135 299.358 51.3753C287.123 52.5974 279.971 55.8481 266.614 67.2265C266.52 58.3128 264.411 55.1543 258.562 51.3753C253.353 51.3058 250.926 52.3337 247.289 55.6739C243.164 57.1099 241.909 59.1735 239.506 62.6592C231.538 76.2481 228.195 85.2694 222.865 102.153C220.194 107.993 218.43 109.334 215.082 110.213C219.255 81.4011 215.082 66.6895 201.125 55.6739C188.51 50.301 168.381 49.495 151.472 60.7785C135.129 72.1462 128.749 82.7213 118.459 103.227C113.359 112.631 99.671 115.318 83.8356 114.243C65.5846 113.168 53.2383 101.079 51.0912 91.4062C48.4072 79.3163 50.286 59.1665 69.3422 47.0766C74.7101 44.39 80.3464 43.8527 84.6408 45.7334ZM825.953 7.31466C816.468 7.9511 811.871 10.9627 804.213 18.3299C800.667 24.0735 799.859 27.6324 800.992 34.7184C802.951 41.2861 806.027 44.1589 813.607 48.4203C824.479 50.7967 829.931 50.4574 839.105 48.4203C845.132 45.4195 847.87 42.5686 850.646 33.6438C852.566 24.5109 851.761 20.3131 847.425 14.2999C840.635 8.81468 835.898 7.33494 825.953 7.31466ZM934.117 59.9725C935.268 62.9539 935.389 64.7972 934.117 68.5702C928.563 79.7599 925.518 86.1083 920.966 98.3919C918.282 105.109 919.62 111.687 924.187 115.049C921.619 110.371 921.092 107.402 922.845 101.079C927.212 89.0263 929.965 82.49 935.459 71.2568C938.948 63.4655 936.681 61.0402 934.117 59.9725ZM927.139 156.423C937.108 144.962 942.803 137.907 955.589 109.676V106.989C956.952 106.696 957.655 106.804 958.541 108.601C943.283 142.609 937.146 149.302 927.139 156.423ZM870.507 157.498C880.672 148.176 884.281 142.866 888.758 133.318C889.815 132.572 890.325 132.423 890.637 134.124C883.917 147.103 879.428 151.941 870.507 157.498ZM873.459 89.2573C862.455 95.1679 858.429 112.631 869.165 118.273C861.65 108.87 866.213 97.3173 873.459 89.2573ZM817.633 154.005C823.641 147.516 826.566 143.786 830.247 136.811C830.732 141.072 827.083 145.24 817.633 154.005ZM818.707 58.8979C819.909 63.569 820.144 66.2446 818.707 71.2568L810.923 96.2426C808.312 108.443 810.235 111.456 815.486 114.78C812.277 108.091 811.579 104.375 813.607 97.8546L821.122 73.6748C823.061 63.9929 822.299 61.0779 818.707 58.8979ZM837.226 16.4493C842.086 24.0449 842.365 29.1276 837.226 40.0917C845.815 34.7184 846.083 19.6732 837.226 16.4493ZM762.88 154.005C767.711 148.901 773.347 141.916 775.763 138.423C774.443 142.58 772.155 145.713 762.88 154.005ZM691.755 129.288C702.774 116.168 708.504 104.73 719.4 79.3167C720.54 79.3576 720.954 79.637 721.278 80.6601C708.357 110.996 701.975 121.005 691.755 129.288ZM668.404 62.3909C681.019 75.2868 681.824 91.944 675.919 115.855H679.14C686.655 84.4214 681.287 69.9135 668.404 62.3909ZM633.244 88.9887C620.898 95.7053 618.482 115.855 629.755 118.542C621.703 109.676 626.266 97.3173 633.244 88.9887ZM571.513 158.035C579.533 149.842 584.128 145.333 589.227 134.662V138.96C583.466 148.164 579.754 152.593 571.513 158.035ZM596.474 12.1503C598.206 15.2592 598.078 17.5638 596.474 22.3599L567.487 97.0486C564.266 104.033 565.701 111.864 570.976 115.318C567.487 110.213 568.024 103.765 569.634 98.1233L598.621 23.7032C601.133 15.5107 600.102 13.5954 596.474 12.1503ZM516.223 158.035C525.373 150.18 533.669 134.662 536.084 132.244C536.084 136.542 528.838 149.976 516.223 158.035ZM519.175 89.526C509.513 94.6306 504.145 112.094 514.881 117.736C509.628 107.068 511.414 100.85 519.175 89.526ZM453.418 153.468C464.069 146.437 469.079 141.625 476.5 131.706V133.856C467.013 145.59 462.011 149.443 453.418 153.468ZM419.063 112.9C417.936 117.436 418.864 119.889 421.747 124.184C413.964 119.348 413.695 112.9 419.063 112.9ZM461.202 61.5849C480.258 67.2268 478.379 99.7352 457.713 109.139C474.353 94.0933 475.427 74.4808 461.202 61.5849ZM425.505 98.6606C417.453 96.7799 419.063 85.496 427.384 80.6597C422.84 87.5216 421.493 91.423 425.505 98.6606ZM368.873 154.811C376.889 145.907 380.83 140.669 386.319 130.632V133.318C380.555 143.885 376.568 148.246 368.873 154.811ZM361.358 60.2416C367.568 65.8655 369.508 69.4099 368.336 76.8988C367.531 84.69 363.774 90.8693 362.968 96.5113C361.358 105.108 361.211 109.718 366.458 114.78C363.874 107.289 363.411 103.042 365.116 96.5113C365.921 91.944 369.142 86.0334 370.752 78.5108C372.094 66.9582 368.336 63.1969 361.358 60.2416ZM307.41 60.7789C310.188 64.6249 311.586 66.8061 312.241 70.9881H314.925C313.389 65.5352 311.489 63.5642 307.41 60.7789ZM254.804 59.4356C259.367 58.0923 257.757 68.8388 259.367 70.9881C255.816 70.0763 254.804 67.2265 254.804 59.4356ZM265.54 95.7053C257.251 104.583 253.999 110.108 252.12 121.497C250.51 136.811 254.804 153.468 243.532 159.11C251.315 149.438 247.826 141.378 248.631 127.139C251.047 105.915 257.757 102.153 265.54 95.7053ZM194.684 61.8536C204.614 72.3315 210.039 88.0079 202.735 115.855H205.419C213.203 89.7947 207.835 70.7195 194.684 61.8536ZM160.597 88.72C147.982 97.5859 144.762 112.631 155.229 118.273C148.253 104.827 152.939 99.0935 160.597 88.72ZM98.5974 150.513C106.177 144.414 109.677 140.474 114.97 132.781L115.506 134.662C109.585 142.032 106.037 145.771 98.5974 150.513ZM59.6799 44.659C39.8185 56.4803 26.3195 95.157 57.2643 113.168C33.377 93.8246 40.0869 62.9282 59.6799 44.659ZM116.848 13.4939C135.099 23.4345 135.368 55.1369 105.844 73.1375C129.195 55.9429 131.342 29.6138 116.848 13.4939ZM175.091 91.138C169.341 91.0537 166.548 92.9198 162.208 99.1979C159.928 103.736 160.022 106.257 160.597 110.75C162.664 114.416 164.675 115.34 169.723 115.049C174.44 113.216 176.152 110.788 178.311 105.109C180.925 94.8911 178.95 93.3946 175.091 91.138ZM648.543 91.4062C642.793 91.322 640 93.1881 635.66 99.4662C633.38 104.004 633.474 106.526 634.049 111.019C636.116 114.684 638.127 115.608 643.175 115.317C647.892 113.484 649.605 111.056 651.764 105.377C654.378 95.1594 652.402 93.6628 648.543 91.4062ZM534.743 91.1376C528.993 91.0533 526.2 92.9194 521.859 99.1975C519.579 103.735 519.674 106.257 520.249 110.75C522.316 114.415 524.327 115.34 529.375 115.049C534.092 113.216 535.804 110.787 537.963 105.108C540.577 94.8907 538.602 93.3942 534.743 91.1376ZM442.951 83.3467C437.604 82.4597 435.81 83.463 433.02 85.7647C431.289 88.2152 430.762 89.8611 431.946 94.0933C434.443 96.489 436.224 96.973 439.998 96.2426C442.528 94.8524 443.276 93.2098 444.024 89.526C444.66 85.9939 444.232 84.8442 442.951 83.3467ZM903.252 27.1958L914.792 2.21004C919.043 1.92236 921.513 2.14884 926.065 3.2847L929.823 31.2258H921.771V25.8525L912.377 24.7779L910.23 29.6138L903.252 27.1958ZM914.792 18.5986L920.429 19.4046L919.355 8.92665L914.792 18.5986ZM962.836 25.8525L950.221 43.3157L955.589 47.883L968.74 31.2258L974.914 35.5244L980.013 30.4198L960.957 15.6433L956.394 20.4792L962.836 25.8525ZM966.862 58.3609L988.602 40.8977L993.97 46.271L972.23 64.0029L966.862 58.3609ZM976.256 68.0328L1004.97 65.0775L1009 75.0181L987.26 93.0186L982.429 86.302L987.26 82.2721L984.039 75.0181L978.403 75.5554L976.256 68.0328ZM990.212 73.6748L992.091 79.0481L1000.41 72.8688L990.212 73.6748ZM876.412 10.8073L879.901 25.3152C883.342 24.451 886.879 23.1659 888.221 21.0166C889.563 18.3299 887.416 10.27 883.659 9.46398C881.78 9.19532 878.483 9.65837 876.412 10.8073ZM888.439 91.4062C882.689 91.322 879.896 93.1881 875.556 99.4662C873.276 104.004 873.371 106.526 873.946 111.019C876.013 114.684 878.023 115.608 883.071 115.317C887.788 113.484 889.501 111.056 891.66 105.377C894.274 95.1594 892.298 93.6628 888.439 91.4062Z" stroke="#244F33"/>
</svg>
