<svg width="48" height="49" viewBox="0 0 48 49" fill="none" xmlns="http://www.w3.org/2000/svg">
<path d="M34 4.5H14C8.47715 4.5 4 8.97715 4 14.5V34.5C4 40.0228 8.47715 44.5 14 44.5H34C39.5228 44.5 44 40.0228 44 34.5V14.5C44 8.97715 39.5228 4.5 34 4.5Z" stroke="white" stroke-width="4" stroke-linecap="round" stroke-linejoin="round"/>
<path d="M31.9999 23.2406C32.2467 24.9051 31.9624 26.605 31.1874 28.0986C30.4124 29.5922 29.1862 30.8034 27.6832 31.5599C26.1801 32.3165 24.4768 32.5798 22.8155 32.3125C21.1542 32.0451 19.6194 31.2608 18.4296 30.0709C17.2397 28.8811 16.4554 27.3464 16.188 25.685C15.9207 24.0237 16.184 22.3204 16.9406 20.8174C17.6971 19.3143 18.9083 18.0881 20.4019 17.3131C21.8955 16.5381 23.5954 16.2538 25.2599 16.5006C26.9577 16.7524 28.5296 17.5435 29.7433 18.7572C30.957 19.9709 31.7481 21.5428 31.9999 23.2406Z" stroke="white" stroke-width="4" stroke-linecap="round" stroke-linejoin="round"/>
<path d="M35 13.5H35.0208" stroke="white" stroke-width="4" stroke-linecap="round" stroke-linejoin="round"/>
</svg>
