<svg width="124" height="124" viewBox="0 0 124 124" fill="none" xmlns="http://www.w3.org/2000/svg">
<path d="M61.6816 2.08691C94.5952 2.08691 121.277 28.7681 121.277 61.6816C121.277 94.5954 94.5954 121.277 61.6816 121.277C28.7681 121.277 2.08691 94.5952 2.08691 61.6816C2.08712 28.7682 28.7682 2.08712 61.6816 2.08691Z" fill="white" stroke="white" stroke-width="3.82708"/>
<path d="M61.6953 2.08691L62.4404 2.0918H62.4521C95.0112 2.5044 121.277 29.026 121.277 61.6826V61.6953L121.272 62.4404V62.4521C120.868 94.3728 95.3686 120.244 63.5957 121.246V121.291L61.6689 121.277H59.7686V121.246C27.9953 120.244 2.49631 94.3729 2.0918 62.4521V62.4404L2.08691 61.6953L2.08594 61.6826H2.08691C2.08691 28.7689 28.7689 2.08691 61.6826 2.08691H61.6953ZM61.6826 9.56445C32.8988 9.56445 9.56445 32.8988 9.56445 61.6826C9.56477 90.466 32.8982 113.799 61.6816 113.799C90.4652 113.799 113.799 90.4661 113.8 61.6826L113.796 61.0088C113.435 32.5355 90.2414 9.56477 61.6826 9.56445Z" fill="black" stroke="white" stroke-width="3.82708"/>
<circle cx="61.8648" cy="61.8653" r="51.1106" stroke="black" stroke-width="1.09523"/>
<path d="M100.785 58.3032C100.921 58.0377 101.3 58.0377 101.435 58.3032L103.105 61.5751C103.158 61.679 103.258 61.7513 103.373 61.7697L107.001 62.3466C107.295 62.3934 107.412 62.7542 107.202 62.9651L104.606 65.5642C104.523 65.6468 104.485 65.7638 104.504 65.8791L105.076 69.5075C105.122 69.802 104.815 70.025 104.55 69.8898L101.276 68.2243C101.172 68.1713 101.049 68.1713 100.945 68.2243L97.6707 69.8898C97.4051 70.025 97.0981 69.802 97.1446 69.5075L97.7169 65.8791C97.7351 65.7638 97.6971 65.6468 97.6146 65.5642L95.0188 62.9651C94.8082 62.7542 94.9254 62.3934 95.2198 62.3466L98.8475 61.7697C98.9628 61.7513 99.0623 61.679 99.1154 61.5751L100.785 58.3032Z" fill="#373534"/>
<path d="M20.8334 58.3032C20.9689 58.0377 21.3483 58.0377 21.4838 58.3032L23.1535 61.5751C23.2066 61.679 23.3061 61.7513 23.4214 61.7697L27.0491 62.3466C27.3435 62.3934 27.4607 62.7542 27.25 62.9651L24.6543 65.5642C24.5718 65.6468 24.5338 65.7638 24.552 65.8791L25.1243 69.5075C25.1707 69.802 24.8638 70.025 24.5981 69.8898L21.3241 68.2243C21.2201 68.1713 21.0971 68.1713 20.9931 68.2243L17.7191 69.8898C17.4534 70.025 17.1465 69.802 17.1929 69.5075L17.7652 65.8791C17.7834 65.7638 17.7454 65.6468 17.6629 65.5642L15.0672 62.9651C14.8565 62.7542 14.9738 62.3934 15.2682 62.3466L18.8959 61.7697C19.0111 61.7513 19.1106 61.679 19.1637 61.5751L20.8334 58.3032Z" fill="#373534"/>
<path d="M32.8584 38.1685C32.3015 38.8221 31.6652 39.2986 30.9495 39.5981C30.2328 39.8853 29.4798 39.9516 28.6906 39.7971C27.9013 39.6425 27.1166 39.2328 26.3363 38.5679C25.5561 37.903 25.0104 37.179 24.6993 36.3958C24.3939 35.606 24.3156 34.8198 24.4644 34.0372C24.6123 33.2423 24.9761 32.5047 25.5557 31.8245C26.2263 31.0376 26.8507 30.5278 27.4288 30.2952C28.0069 30.0626 28.5127 30.131 28.9461 30.5004C29.2796 30.7846 29.4796 31.1104 29.5462 31.478C29.6062 31.8399 29.5026 32.1776 29.2355 32.4911C29.0082 32.7578 28.7532 32.9895 28.4706 33.1861C28.187 33.3703 27.9031 33.6291 27.6189 33.9626C27.2552 34.3894 27.0916 34.8313 27.1281 35.2883C27.1646 35.7453 27.3829 36.1443 27.783 36.4853C28.1764 36.8206 28.6117 36.9785 29.0887 36.9591C29.5591 36.934 29.9761 36.708 30.3398 36.2812C30.533 36.0545 30.6925 35.8336 30.8183 35.6184C30.9431 35.3909 31.0622 35.1701 31.1756 34.9559C31.2948 34.7351 31.4452 34.518 31.6271 34.3046C31.9283 33.9512 32.2666 33.7905 32.6421 33.8227C33.0109 33.8492 33.3654 34.0074 33.7055 34.2972C34.0456 34.587 34.2172 34.9463 34.2204 35.3749C34.2168 35.7978 34.0884 36.2524 33.8351 36.7388C33.5875 37.2185 33.2619 37.6951 32.8584 38.1685ZM38.8748 33.2516C38.083 33.7536 37.3031 34.0043 36.535 34.0037C35.7669 34.0031 35.0476 33.7849 34.377 33.349C33.7063 32.9131 33.1177 32.2956 32.611 31.4964C32.1089 30.7046 31.8038 29.9125 31.6956 29.12C31.5826 28.3202 31.6897 27.5727 32.0168 26.8777C32.3392 26.1754 32.8962 25.5732 33.688 25.0711C34.4798 24.5691 35.2584 24.3244 36.0237 24.3371C36.7918 24.3377 37.5135 24.5597 38.1889 25.0029C38.8595 25.4388 39.4458 26.0527 39.9478 26.8444C40.4545 27.6436 40.762 28.4394 40.8702 29.2319C40.9785 30.0244 40.869 30.7681 40.542 31.4631C40.2223 32.1534 39.6666 32.7495 38.8748 33.2516ZM33.8969 30.432C34.0424 30.6614 34.2363 30.8445 34.4786 30.9814C34.7163 31.1108 35.0378 31.1352 35.4432 31.0545C35.8438 30.9665 36.366 30.7183 37.0098 30.3102C37.6536 29.902 38.097 29.5378 38.3402 29.2177C38.586 28.8854 38.7011 28.5842 38.6854 28.314C38.665 28.0365 38.5821 27.783 38.4367 27.5536C38.2865 27.3168 38.0973 27.1411 37.869 27.0265C37.636 26.9045 37.3215 26.8912 36.9256 26.9866C36.5323 27.07 36.0138 27.3158 35.37 27.7239C34.7262 28.1321 34.2791 28.4986 34.0286 28.8235C33.7734 29.1409 33.6513 29.431 33.6622 29.6938C33.6685 29.9492 33.7468 30.1952 33.8969 30.432ZM44.4057 30.2327C43.9712 30.3699 43.6086 30.3419 43.318 30.1488C43.0273 29.9557 42.8134 29.642 42.6763 29.2075L40.8326 23.3671C40.6321 22.7321 40.6557 22.2101 40.9033 21.8011C41.1593 21.3896 41.5296 21.1073 42.0142 20.9543C42.4738 20.8092 42.9098 20.837 43.3222 21.0376C43.743 21.2355 44.1315 21.6366 44.4876 22.2408L46.8064 26.1809L47.1323 26.0781L46.7687 21.5208C46.7133 20.8216 46.8011 20.2701 47.032 19.8665C47.2713 19.4602 47.6207 19.1845 48.0802 19.0394C48.5649 18.8864 49.0259 18.9063 49.4634 19.0989C49.9093 19.2889 50.2325 19.7015 50.433 20.3365L52.2766 26.1769C52.4138 26.6114 52.4146 26.9924 52.2792 27.32C52.152 27.645 51.8712 27.876 51.4368 28.0132C51.019 28.1451 50.6564 28.1171 50.3491 27.9293C50.0417 27.7415 49.8194 27.4303 49.6823 26.9959L48.618 23.6245C48.5916 23.5409 48.5554 23.4697 48.5092 23.4107C48.4687 23.3408 48.4026 23.3204 48.3107 23.3494C48.2355 23.3731 48.193 23.4279 48.1833 23.5136C48.171 23.591 48.1697 23.6741 48.1794 23.7629L48.7001 27.0716C48.7498 27.4327 48.7724 27.7517 48.7679 28.0287C48.7692 28.2948 48.7074 28.521 48.5825 28.7075C48.455 28.8855 48.2325 29.0247 47.915 29.1249C47.6058 29.2225 47.3437 29.2363 47.1287 29.1664C46.9194 29.0855 46.7347 28.937 46.5747 28.7211C46.4203 28.4942 46.264 28.2173 46.1058 27.8906L44.62 24.8866C44.5852 24.8056 44.5406 24.737 44.4861 24.6807C44.4289 24.6161 44.3586 24.597 44.275 24.6233C44.1914 24.6497 44.149 24.7044 44.1477 24.7876C44.1437 24.8623 44.1549 24.9415 44.1813 25.025L45.2456 28.3964C45.3827 28.8309 45.3794 29.2133 45.2356 29.5435C45.1001 29.8711 44.8235 30.1008 44.4057 30.2327ZM56.7067 27.0912C56.2796 27.135 55.866 27.1379 55.4657 27.0997C55.0741 27.0606 54.719 26.9474 54.4003 26.7599C54.0894 26.5628 53.8253 26.264 53.608 25.8636C53.3986 25.4535 53.2585 24.9041 53.1878 24.2156C53.1243 23.5967 53.1525 23.0566 53.2724 22.595C53.3924 22.1335 53.5523 21.7604 53.752 21.4757C53.9605 21.19 54.1575 21.0068 54.343 20.9261L54.2521 20.6844L54.0299 20.7073C53.6289 20.7484 53.2978 20.6547 53.0365 20.4261C52.7831 20.1879 52.6292 19.847 52.5748 19.4034C52.5214 18.9684 52.5989 18.6082 52.8074 18.3225C53.0246 18.036 53.3336 17.8721 53.7346 17.831L58.4281 17.3491C59.3608 17.2534 59.8718 17.6413 59.9613 18.5129C60.0016 18.9051 59.9205 19.2305 59.718 19.4891C59.5156 19.7477 59.1746 19.9016 58.6953 19.9508L55.9889 20.2287C55.6664 20.2618 55.5244 20.4657 55.5629 20.8405L55.6636 21.8211C56.0895 21.6805 56.5311 21.5206 56.9884 21.3416C57.4543 21.1616 57.9009 21.0497 58.328 21.0059C58.7376 20.9638 59.0521 21.024 59.2713 21.1864C59.4984 21.3393 59.6276 21.5682 59.6589 21.8733C59.6911 22.1871 59.6121 22.4462 59.4217 22.6507C59.2391 22.8456 58.9434 22.9685 58.5347 23.0192C58.1085 23.0718 57.649 23.0573 57.1562 22.9758C56.6634 22.8943 56.1941 22.828 55.7485 22.7768L55.9243 24.4895C55.9413 24.6551 55.997 24.7683 56.0913 24.8291C56.1935 24.8803 56.339 24.8389 56.5278 24.705C56.9376 24.4075 57.3441 24.1632 57.7473 23.9721C58.1496 23.7722 58.5512 23.6517 58.9521 23.6106C59.5186 23.5524 59.9609 23.6567 60.279 23.9235C60.6058 24.1895 60.7937 24.5621 60.843 25.0415C60.8958 25.5557 60.7796 25.9684 60.4944 26.2795C60.218 26.5898 59.7355 26.7802 59.047 26.8509L56.7067 27.0912ZM65.5567 17.3532C66.5974 17.4178 67.4334 17.6672 68.0649 18.1014C68.7057 18.5274 69.1612 19.1087 69.4315 19.8453C69.7112 20.5737 69.8206 21.4276 69.7599 22.4071C69.6579 24.0512 69.2289 25.236 68.4728 25.9616C67.7167 26.6873 66.6085 27.0048 65.1481 26.9142L64.5709 26.8784C64.1424 26.8518 63.7472 26.7834 63.3853 26.6732C63.0235 26.563 62.7097 26.3855 62.4439 26.1407C62.1787 25.8873 61.9804 25.5458 61.8491 25.1162C61.7177 24.6867 61.6726 24.1397 61.7138 23.475C61.7523 22.8541 61.8688 22.3215 62.0631 21.877C62.2662 21.4331 62.4943 21.083 62.7472 20.8265C63.0001 20.5701 63.2247 20.4172 63.4209 20.3679L63.3707 20.1146L63.1477 20.1008C62.7455 20.0758 62.4341 19.9292 62.2138 19.661C62.0027 19.3845 61.9063 19.0274 61.9247 18.5896C61.943 18.1518 62.0784 17.8091 62.3308 17.5614C62.5925 17.3055 62.9245 17.19 63.3267 17.2149L65.5567 17.3532ZM64.2299 23.4599C64.2185 23.6435 64.25 23.7728 64.3243 23.8476C64.4074 23.923 64.5321 23.9659 64.6982 23.9762L65.4066 24.0201C65.8526 24.0478 66.204 23.973 66.4607 23.7958C66.7175 23.6186 66.9033 23.3843 67.0179 23.0929C67.1418 22.7934 67.2144 22.4731 67.2355 22.132C67.2567 21.7909 67.2245 21.4598 67.1391 21.1384C67.0625 20.8176 66.9079 20.5491 66.6755 20.3328C66.4432 20.1164 66.104 19.9944 65.658 19.9668L64.9496 19.9228C64.7835 19.9125 64.6542 19.944 64.5619 20.0173C64.4788 20.0824 64.4314 20.2111 64.4194 20.4035L64.2299 23.4599ZM74.1673 28.3772C73.2584 28.1471 72.5403 27.7528 72.0129 27.1945C71.4854 26.6361 71.1496 25.9635 71.0053 25.1768C70.8611 24.3901 70.9051 23.5381 71.1374 22.6208C71.3675 21.712 71.7332 20.9459 72.2345 20.3227C72.738 19.6909 73.3545 19.255 74.0841 19.015C74.8159 18.7665 75.6362 18.7573 76.545 18.9874C77.4538 19.2175 78.1667 19.615 78.6835 20.1797C79.2109 20.738 79.5457 21.4148 79.6878 22.21C79.832 22.9967 79.7891 23.8445 79.5589 24.7533C79.3266 25.6707 78.9599 26.4409 78.4586 27.0642C77.9573 27.6874 77.3418 28.1191 76.6122 28.3591C75.8911 28.6013 75.0761 28.6074 74.1673 28.3772ZM72.7943 22.8234C72.7276 23.0867 72.7279 23.3534 72.7951 23.6235C72.8644 23.8851 73.0677 24.1354 73.4048 24.3745C73.7441 24.605 74.2833 24.8138 75.0222 25.001C75.7612 25.1881 76.3305 25.2599 76.7301 25.2165C77.1404 25.1668 77.4383 25.0433 77.6238 24.8463C77.8114 24.6407 77.9386 24.4063 78.0052 24.143C78.0741 23.8712 78.0717 23.613 77.998 23.3684C77.9265 23.1153 77.7201 22.8777 77.3786 22.6557C77.0478 22.4273 76.5129 22.2195 75.7739 22.0324C75.035 21.8453 74.4614 21.7723 74.0533 21.8136C73.6473 21.8464 73.3527 21.957 73.1693 22.1456C72.9882 22.3257 72.8632 22.5516 72.7943 22.8234ZM84.6257 32.457C84.2329 32.263 83.9808 31.9919 83.8694 31.6437C83.7619 31.2877 83.7953 30.9133 83.9698 30.5206C84.2682 29.8373 84.3321 29.2826 84.1615 28.8563C84.0027 28.426 83.6719 28.0867 83.1691 27.8384L82.9334 27.722L82.0022 29.6073C81.8004 30.0158 81.5371 30.2718 81.2124 30.3753C80.8877 30.4787 80.5446 30.4412 80.1833 30.2627C79.7983 30.0726 79.5483 29.8172 79.4331 29.4964C79.3179 29.1756 79.3612 28.811 79.563 28.4025L80.3836 26.741C80.7949 25.9083 81.2291 25.3361 81.686 25.0243C82.1508 24.7164 82.6222 24.5632 83.1003 24.5648L83.152 24.3118L82.9634 24.2187C82.6021 24.0402 82.3716 23.7847 82.272 23.4521C82.1842 23.1155 82.2314 22.7431 82.4135 22.3347C82.5997 21.938 82.8629 21.6722 83.2031 21.5373C83.5434 21.4025 83.8942 21.4243 84.2556 21.6028L87.2604 23.087C88.101 23.5021 88.6796 24.042 88.9963 24.7066C89.313 25.3712 89.2502 26.1513 88.8078 27.0469C88.5789 27.5104 88.3083 27.8604 87.9959 28.097C87.6875 28.3258 87.3708 28.4625 87.0458 28.5072C86.7207 28.5519 86.4169 28.524 86.1343 28.4235L86.0586 28.5767C86.4875 28.9351 86.7601 29.3922 86.8764 29.9481C87.0006 30.5078 86.8959 31.1255 86.5622 31.8011C86.3487 32.2331 86.0699 32.501 85.7256 32.6045C85.393 32.7041 85.0264 32.6549 84.6257 32.457ZM83.765 25.89C83.6797 26.0628 83.6548 26.1922 83.6905 26.2783C83.7262 26.3643 83.8305 26.45 84.0033 26.5354L85.111 27.0825C85.4409 27.2454 85.7174 27.2892 85.9403 27.2136C86.1633 27.1381 86.3408 26.9668 86.4727 26.6997C86.6085 26.4247 86.6387 26.1758 86.5631 25.9528C86.4876 25.7298 86.2849 25.5368 85.9549 25.3738L84.8472 24.8267C84.6744 24.7414 84.5449 24.7067 84.4588 24.7228C84.3727 24.7389 84.285 24.8373 84.1958 25.018L83.765 25.89ZM87.4997 34.2317C87.1724 33.9965 86.9771 33.7051 86.914 33.3576C86.8508 33.0101 86.9292 32.6834 87.1491 32.3774L91.2065 26.7317C91.4315 26.4186 91.7203 26.227 92.0729 26.1567C92.4326 26.0915 92.7797 26.1791 93.1141 26.4194C93.4699 26.6751 93.6707 26.9812 93.7165 27.3379C93.7745 27.6925 93.6936 28.0228 93.4737 28.3287L89.401 33.9958C89.1811 34.3018 88.8893 34.4751 88.5255 34.5158C88.1689 34.5616 87.827 34.4669 87.4997 34.2317ZM89.8707 36.323C89.5514 35.8226 89.5028 35.3597 89.7249 34.9342C89.9535 34.5029 90.4095 34.1526 91.0927 33.8833L95.9494 31.9566C96.3967 31.7765 96.8087 31.656 97.1855 31.5952C97.5681 31.541 97.9262 31.5721 98.2597 31.6884C98.5989 31.8113 98.921 32.0479 99.2258 32.3982C99.686 32.927 99.8857 33.4501 99.8249 33.9676C99.7699 34.4916 99.5623 35.0672 99.2021 35.6943L96.6144 40.2285C96.2533 40.8679 95.8491 41.2777 95.4019 41.4578C94.967 41.6388 94.521 41.5333 94.0637 41.1414C93.7011 40.8181 93.468 40.4635 93.3644 40.0775C93.2665 39.698 93.3433 39.3525 93.5947 39.0408C93.7585 38.8286 93.9179 38.6782 94.0731 38.5896C94.2341 38.5076 94.3657 38.4453 94.4681 38.4027C94.5514 38.365 94.6142 38.3104 94.6564 38.2388C94.711 38.168 94.7009 38.0897 94.6262 38.0038L93.0214 36.1597C92.9466 36.0738 92.8676 36.0497 92.7842 36.0874C92.7132 36.1259 92.6562 36.1872 92.6131 36.2711C92.5568 36.3666 92.4741 36.485 92.3649 36.6265C92.2557 36.768 92.0876 36.9085 91.8605 37.048C91.5171 37.2539 91.1671 37.2855 90.8106 37.1428C90.4541 37.0001 90.1408 36.7268 89.8707 36.323ZM95.8502 36.6075L97.0177 34.6857C97.0722 34.6149 97.1017 34.5487 97.106 34.4869C97.1226 34.4259 97.1022 34.3624 97.0447 34.2963C96.9872 34.2302 96.9242 34.1979 96.8558 34.1994C96.7997 34.2017 96.73 34.2217 96.6467 34.2594L94.5906 35.16L95.8502 36.6075Z" fill="#373534" fill-opacity="0.86"/>
<path d="M47.9009 96.4489C48.8788 96.8106 49.6075 97.2903 50.0871 97.8881C50.5779 98.4807 50.8466 99.1686 50.8932 99.9519C50.951 100.73 50.8098 101.579 50.4693 102.5C49.8979 104.045 49.1456 105.055 48.2125 105.532C47.2794 106.009 46.1267 105.994 44.7543 105.486L44.2119 105.286C43.8093 105.137 43.4506 104.957 43.1358 104.748C42.8211 104.538 42.5717 104.277 42.3878 103.967C42.2069 103.647 42.1154 103.263 42.1134 102.814C42.1114 102.365 42.2259 101.828 42.4569 101.203C42.6727 100.62 42.9377 100.144 43.2519 99.774C43.5743 99.4074 43.8935 99.1378 44.2096 98.9651C44.5257 98.7925 44.7848 98.7108 44.9869 98.7201L45.0119 98.4631L44.8023 98.3856C44.4243 98.2458 44.1685 98.0157 44.0347 97.6953C43.9122 97.3698 43.9229 97 44.0667 96.5861C44.2104 96.1722 44.4388 95.883 44.7519 95.7185C45.0762 95.5489 45.4274 95.534 45.8054 95.6738L47.9009 96.4489ZM44.8705 101.914C44.8067 102.087 44.7996 102.219 44.8492 102.313C44.9071 102.409 45.0141 102.486 45.1702 102.543L45.8359 102.79C46.255 102.945 46.613 102.974 46.91 102.879C47.2069 102.783 47.4523 102.612 47.646 102.366C47.851 102.115 48.0128 101.829 48.1313 101.509C48.2499 101.188 48.3146 100.862 48.3254 100.529C48.3444 100.2 48.2738 99.8985 48.1136 99.6244C47.9534 99.3503 47.6638 99.1357 47.2447 98.9807L46.5791 98.7345C46.4229 98.6768 46.2901 98.6697 46.1806 98.7132C46.0823 98.7516 45.9997 98.8612 45.9328 99.042L44.8705 101.914ZM51.3054 107.563C50.7353 107.398 50.3933 107.083 50.2793 106.616C50.1665 106.141 50.2778 105.577 50.6134 104.924L52.991 100.271C53.2081 99.8409 53.4382 99.4785 53.6812 99.1841C53.9329 98.8909 54.2224 98.6779 54.5497 98.5452C54.8858 98.4137 55.2839 98.3789 55.7441 98.441C56.4387 98.5346 56.934 98.7958 57.2298 99.2247C57.5344 99.6547 57.7582 100.224 57.9014 100.933L58.9494 106.047C59.1001 106.766 59.0669 107.341 58.8497 107.771C58.6424 108.194 58.2377 108.409 57.6355 108.417C57.1497 108.413 56.7406 108.3 56.4079 108.079C56.084 107.858 55.9136 107.548 55.8968 107.148C55.8798 106.88 55.9004 106.662 55.9586 106.493C56.0254 106.325 56.0832 106.192 56.1319 106.092C56.1697 106.009 56.1808 105.926 56.1653 105.845C56.1596 105.755 56.1004 105.703 55.9875 105.688L53.5648 105.362C53.4519 105.346 53.3766 105.38 53.3389 105.464C53.311 105.54 53.3085 105.623 53.3316 105.715C53.3523 105.824 53.3683 105.967 53.3796 106.146C53.3909 106.324 53.3573 106.54 53.2788 106.795C53.1567 107.176 52.9146 107.431 52.5525 107.559C52.1905 107.687 51.7748 107.689 51.3054 107.563ZM55.9857 103.831L55.5946 101.617C55.5889 101.528 55.5673 101.458 55.5297 101.409C55.502 101.352 55.4447 101.318 55.3579 101.306C55.2711 101.295 55.2024 101.312 55.152 101.358C55.1114 101.397 55.0722 101.458 55.0345 101.541L54.0841 103.575L55.9857 103.831ZM63.927 101.983C63.491 102.026 63.1211 101.934 62.8172 101.709C62.5221 101.482 62.3526 101.147 62.309 100.702C62.2661 100.266 62.3539 99.9055 62.5724 99.6199C62.7987 99.3247 63.156 99.1532 63.6443 99.1052L69.2817 98.5514C69.77 98.5034 70.1496 98.6026 70.4203 98.8489C70.6988 99.0857 70.8595 99.4221 70.9024 99.8581C70.9461 100.303 70.8408 100.665 70.5866 100.946C70.3411 101.225 70.0004 101.386 69.5644 101.429C69.2679 101.458 69.0251 101.451 68.836 101.408C68.6548 101.355 68.5032 101.291 68.3813 101.215C68.2585 101.13 68.1418 101.062 68.0311 101.012C67.9197 100.952 67.7854 100.93 67.6285 100.946L67.5339 101.193C67.5765 101.268 67.6486 101.375 67.7504 101.515C67.8513 101.646 67.9543 101.842 68.0593 102.105C68.1635 102.359 68.2378 102.713 68.2824 103.166L68.6537 106.946C68.6888 107.304 68.5828 107.613 68.3356 107.875C68.0972 108.136 67.7861 108.286 67.4024 108.324C67.01 108.362 66.6671 108.277 66.3737 108.068C66.0889 107.858 65.929 107.575 65.8939 107.217L65.5226 103.437C65.478 102.984 65.4821 102.622 65.5349 102.353C65.5868 102.075 65.6495 101.862 65.723 101.714C65.8044 101.556 65.8587 101.436 65.8858 101.355L65.7319 101.132C65.5749 101.147 65.4476 101.195 65.3498 101.275C65.2511 101.346 65.1499 101.436 65.0459 101.543C64.9411 101.641 64.805 101.734 64.6374 101.821C64.469 101.899 64.2322 101.953 63.927 101.983ZM74.1966 107.44C73.8044 107.534 73.4564 107.49 73.1526 107.31C72.8487 107.13 72.6533 106.857 72.5663 106.49L70.9611 99.7254C70.8721 99.3503 70.9166 99.0065 71.0946 98.6941C71.2812 98.3797 71.5748 98.175 71.9755 98.0799C72.4017 97.9788 72.7646 98.0278 73.0639 98.2269C73.3698 98.4154 73.5663 98.693 73.6533 99.0596L75.2645 105.85C75.3515 106.216 75.2911 106.55 75.0835 106.852C74.8844 107.151 74.5888 107.347 74.1966 107.44ZM77.9713 106.24C77.3989 106.397 76.9423 106.307 76.6015 105.969C76.2572 105.623 76.0574 105.084 76.0023 104.351L75.5986 99.1419C75.5588 98.6614 75.5656 98.2322 75.6191 97.8542C75.6805 97.4727 75.8161 97.1399 76.0258 96.8557C76.2436 96.568 76.5649 96.3304 76.9897 96.1428C77.6309 95.8597 78.1897 95.8237 78.666 96.0348C79.1504 96.2424 79.6388 96.611 80.1312 97.1406L83.6969 100.954C84.201 101.488 84.4728 101.995 84.5126 102.476C84.5568 102.945 84.3241 103.34 83.8145 103.66C83.3984 103.911 82.9907 104.029 82.5913 104.014C82.1999 103.995 81.8925 103.819 81.6691 103.487C81.5148 103.268 81.4183 103.071 81.3796 102.896C81.3489 102.718 81.3284 102.574 81.318 102.464C81.3066 102.373 81.273 102.297 81.2171 102.235C81.1657 102.162 81.0879 102.149 80.9837 102.195L78.7474 103.182C78.6432 103.228 78.5968 103.297 78.6081 103.387C78.6239 103.467 78.6656 103.539 78.733 103.605C78.8076 103.687 78.8962 103.801 78.9991 103.948C79.1019 104.094 79.1864 104.296 79.2525 104.554C79.3476 104.943 79.2743 105.287 79.0325 105.585C78.7907 105.883 78.4369 106.102 77.9713 106.24ZM80.012 100.613L78.5215 98.9289C78.4701 98.8558 78.4155 98.8081 78.3577 98.7857C78.3044 98.7517 78.2377 98.7525 78.1576 98.7879C78.0774 98.8232 78.0279 98.8738 78.0091 98.9396C77.9947 98.9939 77.9932 99.0664 78.0045 99.1571L78.2567 101.388L80.012 100.613Z" fill="#373534" fill-opacity="0.86"/>
<path d="M32.493 37.439C31.936 38.0926 31.2997 38.5691 30.584 38.8686C29.8673 39.1558 29.1143 39.2221 28.3251 39.0676C27.5359 38.913 26.7511 38.5033 25.9709 37.8384C25.1906 37.1735 24.6449 36.4495 24.3338 35.6663C24.0284 34.8765 23.9501 34.0903 24.099 33.3077C24.2468 32.5128 24.6106 31.7752 25.1903 31.095C25.8609 30.3081 26.4852 29.7983 27.0633 29.5657C27.6414 29.3331 28.1472 29.4015 28.5807 29.7709C28.9141 30.0551 29.1141 30.3809 29.1808 30.7485C29.2407 31.1105 29.1372 31.4481 28.8701 31.7616C28.6427 32.0283 28.3878 32.26 28.1051 32.4566C27.8215 32.6408 27.5376 32.8996 27.2534 33.2331C26.8897 33.6599 26.7261 34.1018 26.7626 34.5588C26.7991 35.0158 27.0174 35.4148 27.4175 35.7558C27.811 36.0911 28.2462 36.249 28.7232 36.2296C29.1936 36.2045 29.6106 35.9786 29.9743 35.5517C30.1676 35.325 30.3271 35.1041 30.4528 34.8889C30.5776 34.6614 30.6967 34.4406 30.8102 34.2264C30.9293 34.0056 31.0798 33.7885 31.2616 33.5751C31.5628 33.2217 31.9012 33.061 32.2766 33.0932C32.6455 33.1197 32.9999 33.2779 33.34 33.5677C33.6801 33.8575 33.8518 34.2168 33.8549 34.6454C33.8513 35.0683 33.7229 35.5229 33.4696 36.0093C33.222 36.489 32.8965 36.9656 32.493 37.439ZM38.5093 32.5221C37.7176 33.0241 36.9376 33.2748 36.1695 33.2742C35.4014 33.2736 34.6821 33.0554 34.0115 32.6195C33.3409 32.1836 32.7522 31.5661 32.2455 30.7669C31.7435 29.9751 31.4383 29.183 31.3301 28.3905C31.2172 27.5907 31.3242 26.8432 31.6513 26.1483C31.9737 25.4459 32.5308 24.8437 33.3225 24.3416C34.1143 23.8396 34.8929 23.5949 35.6583 23.6076C36.4264 23.6082 37.1481 23.8302 37.8234 24.2735C38.494 24.7093 39.0803 25.3232 39.5823 26.1149C40.089 26.9141 40.3965 27.7099 40.5048 28.5024C40.613 29.2949 40.5036 30.0386 40.1765 30.7336C39.8568 31.4239 39.3011 32.02 38.5093 32.5221ZM33.5314 29.7025C33.6769 29.9319 33.8708 30.115 34.1131 30.2519C34.3508 30.3813 34.6723 30.4057 35.0777 30.325C35.4783 30.237 36.0006 29.9889 36.6443 29.5807C37.2881 29.1725 37.7316 28.8083 37.9747 28.4882C38.2205 28.1559 38.3356 27.8547 38.3199 27.5846C38.2995 27.307 38.2166 27.0535 38.0712 26.8241C37.921 26.5873 37.7318 26.4116 37.5035 26.297C37.2705 26.175 36.9561 26.1617 36.5601 26.2571C36.1668 26.3405 35.6483 26.5863 35.0045 26.9945C34.3608 27.4026 33.9136 27.7692 33.6631 28.094C33.4079 28.4114 33.2858 28.7015 33.2968 28.9643C33.3031 29.2197 33.3813 29.4658 33.5314 29.7025ZM44.0402 29.5032C43.6057 29.6404 43.2432 29.6124 42.9525 29.4193C42.6619 29.2263 42.448 28.9125 42.3108 28.478L40.4671 22.6376C40.2667 22.0026 40.2902 21.4806 40.5379 21.0717C40.7938 20.6601 41.1641 20.3778 41.6487 20.2248C42.1083 20.0798 42.5443 20.1075 42.9567 20.3081C43.3776 20.506 43.766 20.9071 44.1222 21.5113L46.441 25.4514L46.7668 25.3486L46.4032 20.7913C46.3479 20.0921 46.4356 19.5406 46.6665 19.137C46.9058 18.7307 47.2552 18.455 47.7148 18.3099C48.1994 18.1569 48.6604 18.1768 49.098 18.3694C49.5438 18.5595 49.867 18.972 50.0675 19.607L51.9112 25.4474C52.0483 25.8819 52.0491 26.2629 51.9137 26.5905C51.7866 26.9155 51.5058 27.1465 51.0713 27.2837C50.6535 27.4156 50.2909 27.3876 49.9836 27.1998C49.6762 27.012 49.454 26.7009 49.3168 26.2664L48.2525 22.895C48.2262 22.8114 48.1899 22.7402 48.1437 22.6812C48.1033 22.6113 48.0371 22.5909 47.9452 22.6199C47.87 22.6436 47.8275 22.6984 47.8179 22.7841C47.8055 22.8615 47.8042 22.9446 47.8139 23.0334L48.3346 26.3421C48.3843 26.7032 48.4069 27.0222 48.4025 27.2992C48.4038 27.5653 48.342 27.7915 48.217 27.978C48.0895 28.156 47.867 28.2952 47.5495 28.3954C47.2403 28.493 46.9782 28.5068 46.7632 28.4369C46.5539 28.356 46.3692 28.2075 46.2092 27.9916C46.0549 27.7647 45.8986 27.4878 45.7403 27.1611L44.2545 24.1571C44.2197 24.0761 44.1751 24.0075 44.1206 23.9512C44.0634 23.8866 43.9931 23.8675 43.9095 23.8938C43.826 23.9202 43.7835 23.975 43.7822 24.0581C43.7782 24.1328 43.7894 24.212 43.8158 24.2955L44.8801 27.6669C45.0172 28.1014 45.0139 28.4838 44.8701 28.814C44.7346 29.1416 44.458 29.3713 44.0402 29.5032ZM56.3412 26.3617C55.9142 26.4056 55.5005 26.4084 55.1002 26.3702C54.7086 26.3311 54.3535 26.2179 54.0348 26.0304C53.7239 25.8333 53.4598 25.5345 53.2425 25.1341C53.0331 24.724 52.893 24.1747 52.8223 23.4861C52.7588 22.8673 52.787 22.3271 52.907 21.8656C53.0269 21.404 53.1868 21.0309 53.3866 20.7462C53.5951 20.4605 53.792 20.2773 53.9775 20.1966L53.8867 19.955L53.6644 19.9778C53.2635 20.0189 52.9324 19.9252 52.6711 19.6966C52.4176 19.4584 52.2637 19.1175 52.2093 18.6739C52.1559 18.239 52.2334 17.8787 52.4419 17.593C52.6591 17.3065 52.9682 17.1427 53.3691 17.1015L58.0627 16.6196C58.9953 16.5239 59.5063 16.9118 59.5958 17.7834C59.6361 18.1756 59.555 18.501 59.3525 18.7596C59.1501 19.0182 58.8092 19.1721 58.3298 19.2213L55.6235 19.4992C55.301 19.5323 55.159 19.7363 55.1974 20.111L55.2981 21.0916C55.7241 20.951 56.1657 20.7911 56.6229 20.6121C57.0889 20.4321 57.5354 20.3202 57.9625 20.2764C58.3721 20.2343 58.6866 20.2945 58.9058 20.457C59.1329 20.6098 59.2621 20.8387 59.2934 21.1438C59.3257 21.4576 59.2466 21.7167 59.0562 21.9212C58.8736 22.1161 58.5779 22.239 58.1692 22.2898C57.743 22.3423 57.2835 22.3278 56.7907 22.2463C56.2979 22.1648 55.8287 22.0985 55.383 22.0473L55.5589 23.76C55.5759 23.9256 55.6315 24.0388 55.7258 24.0996C55.828 24.1508 55.9735 24.1094 56.1623 23.9755C56.5722 23.678 56.9787 23.4337 57.3818 23.2426C57.7841 23.0427 58.1857 22.9222 58.5866 22.8811C59.1532 22.8229 59.5955 22.9272 59.9135 23.194C60.2403 23.46 60.4283 23.8326 60.4775 24.312C60.5303 24.8262 60.4141 25.2389 60.129 25.55C59.8525 25.8603 59.37 26.0507 58.6815 26.1214L56.3412 26.3617ZM65.1912 16.6237C66.2319 16.6883 67.068 16.9377 67.6994 17.3719C68.3402 17.7979 68.7957 18.3792 69.0661 19.1158C69.3457 19.8442 69.4551 20.6982 69.3944 21.6776C69.2924 23.3217 68.8634 24.5065 68.1073 25.2321C67.3512 25.9578 66.243 26.2753 64.7826 26.1847L64.2054 26.1489C63.7769 26.1223 63.3817 26.0539 63.0198 25.9437C62.658 25.8335 62.3442 25.656 62.0784 25.4113C61.8132 25.1578 61.615 24.8163 61.4836 24.3868C61.3522 23.9572 61.3071 23.4102 61.3484 22.7455C61.3869 22.1246 61.5033 21.592 61.6977 21.1475C61.9008 20.7036 62.1288 20.3535 62.3817 20.097C62.6346 19.8406 62.8592 19.6877 63.0554 19.6384L63.0053 19.3851L62.7823 19.3713C62.38 19.3463 62.0687 19.1997 61.8483 18.9315C61.6372 18.655 61.5408 18.2979 61.5592 17.8601C61.5776 17.4223 61.7129 17.0796 61.9653 16.8319C62.227 16.576 62.559 16.4605 62.9613 16.4854L65.1912 16.6237ZM63.8644 22.7304C63.853 22.9141 63.8845 23.0433 63.9588 23.1181C64.042 23.1935 64.1666 23.2364 64.3327 23.2467L65.0411 23.2906C65.4871 23.3183 65.8385 23.2435 66.0953 23.0663C66.3521 22.8891 66.5378 22.6548 66.6524 22.3634C66.7763 22.0639 66.8489 21.7436 66.87 21.4025C66.8912 21.0615 66.8591 20.7303 66.7736 20.4089C66.697 20.0881 66.5424 19.8196 66.3101 19.6033C66.0777 19.3869 65.7385 19.265 65.2925 19.2373L64.5841 19.1934C64.418 19.1831 64.2887 19.2145 64.1964 19.2878C64.1134 19.3529 64.0659 19.4816 64.0539 19.674L63.8644 22.7304ZM73.8018 27.6477C72.893 27.4176 72.1748 27.0233 71.6474 26.465C71.1199 25.9066 70.7841 25.2341 70.6398 24.4473C70.4956 23.6606 70.5396 22.8086 70.7719 21.8913C71.0021 20.9825 71.3678 20.2164 71.869 19.5932C72.3725 18.9614 72.989 18.5255 73.7186 18.2855C74.4504 18.037 75.2707 18.0278 76.1795 18.2579C77.0884 18.488 77.8012 18.8855 78.318 19.4502C78.8454 20.0085 79.1802 20.6853 79.3223 21.4805C79.4665 22.2672 79.4236 23.115 79.1934 24.0238C78.9612 24.9412 78.5944 25.7115 78.0931 26.3347C77.5918 26.9579 76.9764 27.3896 76.2467 27.6296C75.5256 27.8718 74.7106 27.8779 73.8018 27.6477ZM72.4288 22.0939C72.3622 22.3573 72.3624 22.624 72.4296 22.894C72.4989 23.1556 72.7022 23.4059 73.0393 23.645C73.3787 23.8755 73.9178 24.0843 74.6567 24.2715C75.3957 24.4586 75.965 24.5304 76.3646 24.487C76.7749 24.4373 77.0728 24.3139 77.2583 24.1168C77.4459 23.9112 77.5731 23.6768 77.6398 23.4135C77.7086 23.1417 77.7062 22.8835 77.6325 22.6389C77.5611 22.3858 77.3546 22.1482 77.0131 21.9262C76.6823 21.6978 76.1474 21.49 75.4085 21.3029C74.6695 21.1158 74.096 21.0429 73.6878 21.0841C73.2818 21.1169 72.9872 21.2276 72.8039 21.4161C72.6227 21.5962 72.4977 21.8221 72.4288 22.0939ZM84.2602 31.7275C83.8674 31.5335 83.6153 31.2624 83.5039 30.9142C83.3964 30.5582 83.4299 30.1838 83.6043 29.7911C83.9027 29.1078 83.9666 28.5531 83.796 28.1268C83.6372 27.6965 83.3064 27.3572 82.8036 27.1089L82.568 26.9925L81.6367 28.8779C81.4349 29.2864 81.1717 29.5423 80.8469 29.6458C80.5222 29.7493 80.1792 29.7117 79.8178 29.5332C79.4329 29.3431 79.1828 29.0877 79.0676 28.7669C78.9524 28.4462 78.9957 28.0815 79.1975 27.673L80.0182 26.0115C80.4295 25.1788 80.8636 24.6066 81.3205 24.2948C81.7853 23.9869 82.2568 23.8338 82.7348 23.8353L82.7865 23.5824L82.598 23.4892C82.2366 23.3107 82.0061 23.0552 81.9065 22.7226C81.8187 22.3861 81.8659 22.0136 82.0481 21.6052C82.2342 21.2085 82.4974 20.9427 82.8377 20.8078C83.1779 20.673 83.5287 20.6948 83.8901 20.8733L86.8949 22.3575C87.7355 22.7727 88.3141 23.3125 88.6308 23.9771C88.9475 24.6417 88.8847 25.4218 88.4424 26.3174C88.2134 26.7809 87.9428 27.1309 87.6305 27.3676C87.322 27.5963 87.0053 27.733 86.6803 27.7777C86.3553 27.8224 86.0514 27.7945 85.7688 27.694L85.6932 27.8472C86.122 28.2056 86.3946 28.6627 86.5109 29.2186C86.6351 29.7783 86.5304 30.396 86.1967 31.0716C85.9833 31.5036 85.7044 31.7715 85.3601 31.875C85.0275 31.9746 84.6609 31.9254 84.2602 31.7275ZM83.3996 25.1605C83.3142 25.3333 83.2894 25.4627 83.325 25.5488C83.3607 25.6348 83.465 25.7205 83.6378 25.8059L84.7455 26.353C85.0754 26.516 85.3519 26.5597 85.5749 26.4841C85.7978 26.4086 85.9753 26.2373 86.1072 25.9702C86.243 25.6952 86.2732 25.4463 86.1976 25.2233C86.1221 25.0003 85.9194 24.8073 85.5894 24.6444L84.4818 24.0972C84.3089 24.0119 84.1795 23.9772 84.0933 23.9933C84.0072 24.0094 83.9195 24.1078 83.8303 24.2885L83.3996 25.1605ZM87.1342 33.5022C86.8069 33.267 86.6117 32.9756 86.5485 32.6281C86.4853 32.2806 86.5637 31.9539 86.7836 31.648L90.841 26.0022C91.066 25.6891 91.3548 25.4975 91.7074 25.4272C92.0672 25.362 92.4142 25.4496 92.7486 25.6899C93.1044 25.9456 93.3052 26.2518 93.351 26.6084C93.409 26.963 93.3281 27.2933 93.1083 27.5992L89.0355 33.2663C88.8156 33.5723 88.5238 33.7456 88.1601 33.7863C87.8034 33.8321 87.4615 33.7374 87.1342 33.5022ZM89.5052 35.5935C89.1859 35.0932 89.1373 34.6302 89.3594 34.2047C89.5881 33.7734 90.044 33.4231 90.7272 33.1538L95.5839 31.2271C96.0312 31.047 96.4432 30.9265 96.8201 30.8657C97.2027 30.8115 97.5607 30.8426 97.8942 30.9589C98.2335 31.0818 98.5555 31.3184 98.8604 31.6687C99.3205 32.1975 99.5202 32.7206 99.4594 33.2381C99.4044 33.7621 99.1968 34.3377 98.8366 34.9648L96.2489 39.499C95.8878 40.1384 95.4836 40.5482 95.0364 40.7283C94.6015 40.9093 94.1555 40.8038 93.6983 40.4119C93.3356 40.0886 93.1025 39.734 92.9989 39.348C92.901 38.9685 92.9778 38.623 93.2292 38.3113C93.393 38.0991 93.5525 37.9487 93.7077 37.8601C93.8686 37.7781 94.0003 37.7158 94.1026 37.6732C94.1859 37.6355 94.2487 37.5809 94.2909 37.5093C94.3455 37.4385 94.3355 37.3602 94.2607 37.2743L92.6559 35.4302C92.5812 35.3443 92.5021 35.3202 92.4187 35.3579C92.3478 35.3964 92.2907 35.4577 92.2476 35.5416C92.1913 35.6371 92.1086 35.7555 91.9994 35.897C91.8902 36.0385 91.7221 36.179 91.495 36.3185C91.1516 36.5244 90.8016 36.556 90.4451 36.4133C90.0886 36.2706 89.7753 35.9973 89.5052 35.5935ZM95.4848 35.878L96.6522 33.9562C96.7068 33.8855 96.7362 33.8192 96.7405 33.7574C96.7571 33.6964 96.7367 33.6329 96.6792 33.5668C96.6217 33.5007 96.5587 33.4684 96.4903 33.4699C96.4342 33.4722 96.3645 33.4922 96.2812 33.5299L94.2251 34.4305L95.4848 35.878Z" fill="#244F33"/>
<path d="M47.5357 95.7184C48.5136 96.0801 49.2423 96.5598 49.7219 97.1576C50.2127 97.7502 50.4814 98.4381 50.528 99.2214C50.5858 99.9995 50.4445 100.849 50.1041 101.769C49.5327 103.314 48.7804 104.325 47.8473 104.802C46.9142 105.279 45.7614 105.264 44.3891 104.756L43.8467 104.555C43.444 104.406 43.0853 104.227 42.7706 104.017C42.4558 103.807 42.2065 103.547 42.0225 103.236C41.8416 102.917 41.7502 102.533 41.7482 102.084C41.7461 101.634 41.8606 101.098 42.0916 100.473C42.3074 99.8896 42.5724 99.4131 42.8866 99.0435C43.209 98.677 43.5283 98.4073 43.8444 98.2347C44.1605 98.062 44.4196 97.9803 44.6217 97.9897L44.6467 97.7327L44.4371 97.6552C44.0591 97.5153 43.8032 97.2852 43.6695 96.9649C43.547 96.6393 43.5577 96.2696 43.7014 95.8556C43.8452 95.4417 44.0736 95.1525 44.3867 94.988C44.711 94.8184 45.0621 94.8035 45.4402 94.9433L47.5357 95.7184ZM44.5053 101.184C44.4415 101.356 44.4344 101.489 44.484 101.582C44.5419 101.678 44.6489 101.755 44.805 101.813L45.4706 102.059C45.8897 102.214 46.2478 102.244 46.5447 102.148C46.8417 102.052 47.0871 101.882 47.2808 101.636C47.4858 101.385 47.6476 101.099 47.7661 100.778C47.8846 100.458 47.9493 100.131 47.9601 99.799C47.9792 99.4697 47.9086 99.1681 47.7484 98.8939C47.5882 98.6198 47.2986 98.4053 46.8795 98.2502L46.2138 98.004C46.0577 97.9463 45.9249 97.9392 45.8153 97.9828C45.717 98.0211 45.6345 98.1307 45.5676 98.3115L44.5053 101.184ZM50.9401 106.833C50.3701 106.668 50.028 106.352 49.914 105.886C49.8012 105.411 49.9126 104.847 50.2482 104.194L52.6257 99.5409C52.8429 99.1104 53.073 98.748 53.316 98.4536C53.5677 98.1604 53.8572 97.9475 54.1845 97.8148C54.5205 97.6832 54.9186 97.6485 55.3788 97.7105C56.0735 97.8041 56.5688 98.0654 56.8646 98.4942C57.1691 98.9243 57.393 99.4937 57.5362 100.203L58.5842 105.317C58.7349 106.036 58.7016 106.61 58.4845 107.041C58.2772 107.464 57.8725 107.679 57.2703 107.686C56.7845 107.683 56.3753 107.57 56.0427 107.348C55.7188 107.128 55.5484 106.818 55.5316 106.417C55.5146 106.15 55.5352 105.932 55.5933 105.763C55.6601 105.595 55.7179 105.461 55.7667 105.362C55.8045 105.278 55.8156 105.196 55.8001 105.114C55.7944 105.025 55.7351 104.973 55.6222 104.958L53.1996 104.631C53.0867 104.616 53.0114 104.65 52.9736 104.733C52.9457 104.809 52.9433 104.893 52.9663 104.984C52.987 105.093 53.003 105.237 53.0144 105.415C53.0257 105.593 52.9921 105.81 52.9136 106.065C52.7915 106.446 52.5494 106.701 52.1873 106.829C51.8253 106.957 51.4095 106.958 50.9401 106.833ZM55.6205 103.101L55.2293 100.886C55.2237 100.797 55.2021 100.728 55.1645 100.679C55.1368 100.622 55.0795 100.588 54.9927 100.576C54.9058 100.564 54.8372 100.582 54.7868 100.628C54.7462 100.667 54.707 100.728 54.6693 100.811L53.7189 102.844L55.6205 103.101ZM63.5618 101.252C63.1258 101.295 62.7559 101.204 62.452 100.978C62.1568 100.752 61.9874 100.416 61.9437 99.9718C61.9009 99.5358 61.9887 99.175 62.2072 98.8894C62.4335 98.5942 62.7908 98.4227 63.2791 98.3747L68.9165 97.8209C69.4048 97.773 69.7843 97.8721 70.055 98.1185C70.3336 98.3552 70.4943 98.6916 70.5371 99.1276C70.5808 99.5723 70.4756 99.9348 70.2214 100.215C69.9759 100.495 69.6352 100.656 69.1992 100.698C68.9027 100.728 68.6599 100.721 68.4708 100.678C68.2895 100.625 68.138 100.561 68.016 100.485C67.8933 100.4 67.7765 100.332 67.6659 100.281C67.5544 100.222 67.4202 100.2 67.2632 100.215L67.1686 100.462C67.2112 100.537 67.2834 100.645 67.3852 100.784C67.4861 100.915 67.589 101.112 67.6941 101.375C67.7983 101.628 67.8726 101.982 67.9172 102.436L68.2885 106.216C68.3236 106.573 68.2176 106.883 67.9704 107.145C67.7319 107.406 67.4209 107.555 67.0372 107.593C66.6448 107.632 66.3019 107.546 66.0084 107.338C65.7237 107.128 65.5638 106.844 65.5287 106.487L65.1573 102.707C65.1128 102.253 65.1169 101.892 65.1697 101.623C65.2216 101.345 65.2843 101.131 65.3578 100.983C65.4392 100.826 65.4934 100.706 65.5206 100.624L65.3667 100.401C65.2097 100.417 65.0823 100.465 64.9846 100.545C64.8859 100.616 64.7846 100.705 64.6807 100.812C64.5759 100.911 64.4397 101.003 64.2722 101.09C64.1038 101.168 63.867 101.222 63.5618 101.252ZM73.8314 106.71C73.4392 106.803 73.0912 106.76 72.7873 106.58C72.4835 106.399 72.288 106.126 72.201 105.76L70.5959 98.9949C70.5069 98.6198 70.5514 98.2761 70.7294 97.9637C70.916 97.6493 71.2096 97.4445 71.6102 97.3494C72.0365 97.2483 72.3993 97.2973 72.6987 97.4964C73.0046 97.685 73.201 97.9625 73.288 98.3291L74.8992 105.119C74.9862 105.486 74.9259 105.82 74.7183 106.121C74.5192 106.421 74.2235 106.617 73.8314 106.71ZM77.6061 105.51C77.0337 105.667 76.5771 105.576 76.2363 105.238C75.8919 104.892 75.6922 104.353 75.637 103.621L75.2333 98.4115C75.1936 97.931 75.2004 97.5017 75.2538 97.1238C75.3152 96.7423 75.4508 96.4094 75.6606 96.1253C75.8783 95.8376 76.1996 95.5999 76.6244 95.4123C77.2657 95.1292 77.8244 95.0932 78.3008 95.3043C78.7851 95.5119 79.2735 95.8805 79.766 96.4101L83.3317 100.223C83.8357 100.757 84.1076 101.265 84.1474 101.745C84.1916 102.214 83.9589 102.609 83.4492 102.93C83.0332 103.181 82.6254 103.298 82.226 103.283C81.8346 103.264 81.5272 103.089 81.3039 102.756C81.1496 102.537 81.0531 102.34 81.0144 102.166C80.9837 101.988 80.9631 101.844 80.9527 101.733C80.9414 101.643 80.9078 101.567 80.8519 101.505C80.8004 101.432 80.7226 101.418 80.6184 101.464L78.3822 102.452C78.278 102.498 78.2315 102.566 78.2429 102.657C78.2587 102.736 78.3003 102.809 78.3678 102.875C78.4423 102.957 78.531 103.071 78.6339 103.217C78.7367 103.363 78.8212 103.565 78.8873 103.824C78.9824 104.213 78.9091 104.556 78.6672 104.855C78.4254 105.153 78.0717 105.371 77.6061 105.51ZM79.6468 99.8821L78.1563 98.1984C78.1049 98.1253 78.0503 98.0776 77.9925 98.0552C77.9392 98.0213 77.8725 98.022 77.7923 98.0574C77.7122 98.0928 77.6627 98.1434 77.6438 98.2092C77.6295 98.2634 77.628 98.3359 77.6393 98.4267L77.8914 100.657L79.6468 99.8821Z" fill="#244F33"/>
<path fill-rule="evenodd" clip-rule="evenodd" d="M64.9678 47.8088C46.5315 49.0869 51.46 83.7691 78.4756 67.523C79.5708 64.2375 85.9597 64.9677 84.4994 69.7134C75.1899 95.269 47.4441 97.2769 37.9522 77.7451C31.5633 57.3009 52.0075 24.8092 77.5629 35.0312C89.793 43.0629 76.7246 64.9674 66.2456 60.0389C63.6078 59.5606 63.1409 58.9367 63.8726 57.3008C66.3366 52.7721 66.8724 50.575 64.9678 47.8088ZM55.6584 48.9043C48.3568 55.1106 46.8965 68.9835 58.3964 72.6343C49.8171 67.523 49.8171 57.3008 55.6584 48.9043ZM72.6344 35.9441C79.3883 39.0473 80.4835 44.8885 77.5629 52.5551C82.5005 44.5234 80.6661 38.0538 72.6344 35.9441ZM66.2456 86.8723C74.2305 83.0583 77.7061 79.0592 82.1264 68.6185L81.2137 67.8883L80.301 69.3486V70.6264C75.7963 79.0682 72.743 82.677 66.2456 86.8723Z" fill="#244F33" stroke="#244F33" stroke-width="0.365076"/>
</svg>
