<svg width="156" height="156" viewBox="0 0 156 156" fill="none" xmlns="http://www.w3.org/2000/svg">
<circle cx="77.7452" cy="77.7452" r="75.2849" stroke="black" stroke-width="4.92058"/>
<circle cx="77.9912" cy="77.9915" r="68.8882" stroke="black" stroke-width="1.47617"/>
<path d="M130.449 73.1913C130.632 72.8335 131.143 72.8335 131.326 73.1913L133.576 77.6012C133.648 77.7413 133.782 77.8388 133.937 77.8635L138.827 78.6412C139.224 78.7043 139.382 79.1906 139.098 79.4748L135.599 82.9779C135.488 83.0892 135.437 83.2469 135.461 83.4023L136.233 88.2928C136.295 88.6896 135.881 88.9902 135.523 88.808L131.111 86.5632C130.97 86.4919 130.805 86.4919 130.664 86.5632L126.252 88.808C125.894 88.9902 125.48 88.6896 125.542 88.2928L126.314 83.4023C126.338 83.2469 126.287 83.0892 126.176 82.9779L122.677 79.4748C122.393 79.1906 122.551 78.7043 122.948 78.6412L127.838 77.8635C127.993 77.8388 128.127 77.7413 128.199 77.6012L130.449 73.1913Z" fill="#373534"/>
<path d="M22.6885 73.1913C22.8711 72.8335 23.3824 72.8335 23.565 73.1913L25.8156 77.6012C25.8871 77.7413 26.0212 77.8388 26.1766 77.8635L31.0661 78.6412C31.4628 78.7043 31.6208 79.1906 31.3369 79.4748L27.8383 82.9779C27.7272 83.0892 27.6759 83.2469 27.7004 83.4023L28.4718 88.2928C28.5344 88.6896 28.1207 88.9902 27.7626 88.808L23.3499 86.5632C23.2097 86.4919 23.0438 86.4919 22.9036 86.5632L18.4909 88.808C18.1328 88.9902 17.7191 88.6896 17.7817 88.2928L18.5531 83.4023C18.5776 83.2469 18.5263 83.0892 18.4152 82.9779L14.9166 79.4748C14.6327 79.1906 14.7907 78.7043 15.1874 78.6412L20.077 77.8635C20.2323 77.8388 20.3665 77.7413 20.438 77.6012L22.6885 73.1913Z" fill="#373534"/>
<path d="M38.8955 46.0528C38.1449 46.9337 37.2872 47.576 36.3226 47.9797C35.3566 48.3667 34.3417 48.4561 33.278 48.2478C32.2142 48.0395 31.1565 47.4873 30.1049 46.5911C29.0532 45.6949 28.3177 44.719 27.8984 43.6635C27.4867 42.5989 27.3812 41.5393 27.5819 40.4845C27.7812 39.4131 28.2715 38.419 29.0528 37.5022C29.9566 36.4415 30.7981 35.7545 31.5773 35.441C32.3565 35.1275 33.0382 35.2197 33.6224 35.7175C34.0718 36.1005 34.3414 36.5397 34.4313 37.0352C34.5121 37.523 34.3725 37.9781 34.0125 38.4006C33.7061 38.7601 33.3624 39.0724 32.9815 39.3373C32.5992 39.5856 32.2166 39.9345 31.8336 40.3839C31.3434 40.9592 31.1228 41.5548 31.172 42.1708C31.2211 42.7868 31.5154 43.3245 32.0547 43.7841C32.585 44.236 33.1716 44.4489 33.8146 44.4227C34.4485 44.3889 35.0106 44.0843 35.5008 43.5091C35.7613 43.2035 35.9762 42.9057 36.1458 42.6157C36.314 42.3091 36.4745 42.0114 36.6274 41.7228C36.7879 41.4252 36.9908 41.1325 37.2359 40.8449C37.6418 40.3685 38.0979 40.152 38.6039 40.1954C39.101 40.2311 39.5788 40.4443 40.0372 40.8349C40.4956 41.2256 40.7269 41.7097 40.7311 42.2874C40.7264 42.8574 40.5533 43.4702 40.2119 44.1257C39.8781 44.7723 39.4394 45.4146 38.8955 46.0528ZM47.0045 39.4256C45.9374 40.1022 44.8861 40.4402 43.8509 40.4394C42.8156 40.4386 41.8461 40.1444 40.9422 39.5569C40.0383 38.9694 39.2449 38.1371 38.5619 37.0599C37.8853 35.9928 37.474 34.9251 37.3282 33.857C37.176 32.7789 37.3203 31.7715 37.7611 30.8348C38.1956 29.8881 38.9464 29.0765 40.0136 28.3998C41.0808 27.7232 42.1302 27.3934 43.1618 27.4105C44.197 27.4113 45.1698 27.7104 46.08 28.3079C46.9838 28.8954 47.7741 29.7228 48.4507 30.7899C49.1337 31.8671 49.5481 32.9397 49.694 34.0078C49.8399 35.0759 49.6924 36.0783 49.2516 37.015C48.8207 37.9454 48.0717 38.749 47.0045 39.4256ZM40.2952 35.6254C40.4912 35.9346 40.7526 36.1814 41.0792 36.3658C41.3996 36.5402 41.8329 36.5731 42.3793 36.4644C42.9193 36.3457 43.6231 36.0113 44.4908 35.4611C45.3585 34.9109 45.9562 34.4201 46.2839 33.9886C46.6152 33.5408 46.7703 33.1348 46.7492 32.7707C46.7217 32.3966 46.61 32.0549 46.414 31.7458C46.2116 31.4266 45.9566 31.1898 45.6489 31.0353C45.3348 30.8708 44.911 30.8529 44.3773 30.9816C43.8472 31.0939 43.1484 31.4252 42.2807 31.9753C41.413 32.5255 40.8103 33.0195 40.4726 33.4573C40.1287 33.8852 39.9641 34.2762 39.9789 34.6304C39.9874 34.9746 40.0928 35.3062 40.2952 35.6254ZM54.4591 35.3567C53.8735 35.5416 53.3849 35.5039 52.9931 35.2437C52.6014 34.9834 52.3131 34.5605 52.1282 33.9749L49.6432 26.1031C49.3731 25.2472 49.4048 24.5436 49.7386 23.9925C50.0836 23.4377 50.5827 23.0573 51.2359 22.8511C51.8552 22.6556 52.4429 22.693 52.9988 22.9633C53.566 23.2301 54.0896 23.7707 54.5696 24.5851L57.6949 29.8957L58.1341 29.757L57.644 23.6146C57.5694 22.6722 57.6877 21.9289 57.999 21.3849C58.3215 20.8372 58.7924 20.4657 59.4118 20.2701C60.0649 20.064 60.6864 20.0907 61.2761 20.3504C61.8771 20.6065 62.3126 21.1625 62.5828 22.0183L65.0678 29.8902C65.2526 30.4758 65.2538 30.9894 65.0712 31.4309C64.8998 31.8689 64.5214 32.1803 63.9358 32.3652C63.3727 32.5429 62.884 32.5052 62.4697 32.2521C62.0555 31.999 61.7559 31.5796 61.5711 30.994L60.1366 26.45C60.1011 26.3374 60.0522 26.2413 59.9899 26.1619C59.9354 26.0677 59.8462 26.0401 59.7223 26.0792C59.621 26.1112 59.5638 26.185 59.5507 26.3006C59.5341 26.4049 59.5323 26.5169 59.5454 26.6366L60.2473 31.0961C60.3142 31.5827 60.3447 32.0128 60.3387 32.3861C60.3404 32.7447 60.2571 33.0497 60.0888 33.301C59.9169 33.541 59.6169 33.7285 59.189 33.8636C58.7723 33.9952 58.4191 34.0138 58.1293 33.9195C57.8471 33.8104 57.5982 33.6104 57.3825 33.3193C57.1745 33.0135 56.9639 32.6404 56.7505 32.2L54.7479 28.1511C54.7011 28.042 54.641 27.9495 54.5675 27.8737C54.4904 27.7865 54.3956 27.7607 54.283 27.7963C54.1704 27.8318 54.1132 27.9056 54.1114 28.0176C54.106 28.1184 54.1211 28.2251 54.1567 28.3377L55.5911 32.8817C55.776 33.4674 55.7715 33.9827 55.5776 34.4278C55.3951 34.8693 55.0222 35.179 54.4591 35.3567ZM71.0388 31.1225C70.4631 31.1816 69.9056 31.1854 69.3661 31.134C68.8383 31.0813 68.3597 30.9287 67.9301 30.676C67.5111 30.4103 67.1551 30.0076 66.8623 29.4679C66.58 28.9151 66.3912 28.1748 66.2959 27.2467C66.2103 26.4126 66.2483 25.6845 66.41 25.0625C66.5717 24.4405 66.7871 23.9375 67.0564 23.5537C67.3374 23.1688 67.6029 22.9219 67.8529 22.8131L67.7304 22.4873L67.4309 22.5181C66.8905 22.5736 66.4442 22.4473 66.092 22.1391C65.7504 21.8181 65.543 21.3586 65.4697 20.7607C65.3977 20.1745 65.5021 19.6889 65.7831 19.3039C66.0759 18.9177 66.4925 18.6969 67.0329 18.6414L73.359 17.9919C74.616 17.8628 75.3048 18.3857 75.4254 19.5605C75.4796 20.0891 75.3703 20.5277 75.0975 20.8762C74.8246 21.2248 74.3651 21.4322 73.719 21.4986L70.0713 21.8731C69.6367 21.9177 69.4453 22.1926 69.4971 22.6977L69.6328 24.0193C70.2069 23.8298 70.8021 23.6144 71.4184 23.373C72.0465 23.1305 72.6483 22.9796 73.2239 22.9205C73.7761 22.8639 74.1999 22.945 74.4954 23.1639C74.8015 23.37 74.9756 23.6785 75.0178 24.0897C75.0613 24.5126 74.9547 24.8619 74.698 25.1376C74.452 25.4002 74.0535 25.5658 73.5025 25.6342C72.9281 25.7051 72.3088 25.6856 71.6446 25.5757C70.9804 25.4658 70.3479 25.3764 69.7473 25.3075L69.9843 27.6159C70.0072 27.8391 70.0822 27.9917 70.2093 28.0736C70.347 28.1426 70.5431 28.0868 70.7976 27.9064C71.35 27.5054 71.8979 27.1761 72.4413 26.9185C72.9835 26.6491 73.5248 26.4867 74.0651 26.4312C74.8287 26.3528 75.4249 26.4934 75.8536 26.8531C76.294 27.2115 76.5474 27.7137 76.6137 28.3599C76.6849 29.053 76.5283 29.6092 76.144 30.0285C75.7714 30.4467 75.1211 30.7034 74.193 30.7987L71.0388 31.1225ZM82.9583 17.9933C84.3609 18.0793 85.488 18.4146 86.3396 18.9993C87.2036 19.5729 87.8181 20.3559 88.1832 21.3485C88.5608 22.33 88.7091 23.4809 88.6281 24.801C88.4922 27.017 87.9151 28.6144 86.8967 29.5931C85.8784 30.5719 84.3849 31.0009 82.4165 30.8802L81.6385 30.8324C81.0609 30.797 80.5282 30.7052 80.0404 30.557C79.5525 30.4087 79.1294 30.1698 78.771 29.8402C78.4134 29.4988 78.1458 29.0387 77.9683 28.4599C77.7908 27.8811 77.7296 27.1438 77.7845 26.248C77.8358 25.4111 77.9923 24.6931 78.2538 24.0939C78.5271 23.4954 78.8341 23.0232 79.1748 22.6773C79.5155 22.3314 79.818 22.1252 80.0824 22.0586L80.0146 21.7172L79.714 21.6988C79.1718 21.6655 78.752 21.4682 78.4547 21.1069C78.1699 20.7345 78.0397 20.2532 78.0641 19.6631C78.0884 19.073 78.2706 18.6109 78.6105 18.2768C78.963 17.9317 79.4103 17.7757 79.9525 17.809L82.9583 17.9933ZM81.1756 26.2252C81.1605 26.4728 81.203 26.6469 81.3033 26.7477C81.4154 26.8493 81.5834 26.9069 81.8074 26.9206L82.7622 26.9792C83.3633 27.0161 83.8369 26.9149 84.1828 26.6759C84.5288 26.4368 84.7788 26.1208 84.9331 25.728C85.0998 25.3241 85.1973 24.8923 85.2255 24.4326C85.2537 23.9729 85.2101 23.5266 85.0946 23.0936C84.991 22.6613 84.7825 22.2995 84.4691 22.0081C84.1556 21.7168 83.6984 21.5527 83.0972 21.5158L82.1424 21.4572C81.9185 21.4435 81.7443 21.4861 81.6199 21.5849C81.5081 21.6727 81.4442 21.8463 81.4283 22.1056L81.1756 26.2252ZM94.5732 32.8446C93.3481 32.5351 92.3799 32.0042 91.6686 31.252C90.9573 30.4998 90.5042 29.5935 90.3092 28.5333C90.1142 27.473 90.173 26.3246 90.4854 25.0881C90.795 23.863 91.2874 22.8302 91.9626 21.9899C92.6406 21.138 93.4713 20.5501 94.4546 20.226C95.4407 19.8905 96.5463 19.8776 97.7714 20.1871C98.9965 20.4967 99.9575 21.0318 100.654 21.7926C101.366 22.5448 101.817 23.4568 102.01 24.5285C102.205 25.5887 102.147 26.7314 101.838 27.9565C101.525 29.193 101.031 30.2315 100.356 31.0719C99.681 31.9123 98.8518 32.4945 97.8685 32.8185C96.8967 33.1455 95.7983 33.1542 94.5732 32.8446ZM92.7188 25.3601C92.6291 25.715 92.6297 26.0745 92.7204 26.4384C92.814 26.791 93.0882 27.1282 93.5428 27.4501C94.0002 27.7606 94.727 28.0417 95.7232 28.2934C96.7193 28.5451 97.4866 28.6416 98.0253 28.5828C98.5782 28.5154 98.9796 28.3489 99.2295 28.0831C99.4822 27.8059 99.6534 27.4899 99.7431 27.1349C99.8357 26.7685 99.8323 26.4205 99.7329 26.0909C99.6363 25.7498 99.3579 25.4298 98.8975 25.1307C98.4515 24.8231 97.7304 24.5435 96.7343 24.2918C95.7382 24.0401 94.9651 23.9422 94.415 23.9981C93.8678 24.0426 93.4707 24.1919 93.2238 24.4462C92.9797 24.6891 92.8114 24.9937 92.7188 25.3601ZM108.679 38.3222C108.149 38.0619 107.808 37.6972 107.657 37.2283C107.511 36.7487 107.555 36.244 107.789 35.7142C108.189 34.7924 108.273 34.0445 108.042 33.4704C107.827 32.891 107.38 32.4347 106.702 32.1014L106.384 31.9452L105.134 34.4891C104.863 35.0403 104.509 35.3861 104.072 35.5265C103.635 35.6669 103.172 35.6174 102.684 35.3779C102.165 35.1227 101.827 34.7792 101.671 34.3472C101.515 33.9152 101.572 33.4236 101.843 32.8725L102.944 30.6306C103.496 29.5071 104.079 28.7345 104.694 28.3129C105.32 27.8966 105.955 27.6888 106.599 27.6895L106.668 27.3484L106.414 27.2234C105.926 26.9839 105.615 26.6401 105.48 26.1922C105.36 25.7388 105.423 25.2366 105.667 24.6856C105.917 24.1505 106.271 23.7915 106.729 23.6087C107.187 23.4259 107.66 23.4542 108.148 23.6937L112.202 25.6853C113.336 26.2424 114.118 26.9684 114.546 27.8632C114.975 28.758 114.893 29.8096 114.299 31.018C113.992 31.6433 113.628 32.1159 113.208 32.4358C112.793 32.745 112.367 32.9303 111.929 32.9915C111.491 33.0526 111.081 33.0159 110.7 32.8813L110.598 33.088C111.177 33.5698 111.546 34.1851 111.705 34.934C111.874 35.688 111.734 36.5208 111.287 37.4324C111 38.0154 110.625 38.3772 110.161 38.5178C109.713 38.653 109.219 38.5878 108.679 38.3222ZM107.499 29.4736C107.385 29.7068 107.351 29.8813 107.4 29.9971C107.448 30.113 107.589 30.2282 107.822 30.3427L109.317 31.0769C109.762 31.2955 110.135 31.3537 110.435 31.2512C110.735 31.1487 110.974 30.9173 111.151 30.5569C111.333 30.1859 111.373 29.8503 111.271 29.5499C111.168 29.2496 110.894 28.9901 110.449 28.7714L108.955 28.0373C108.721 27.9228 108.547 27.8765 108.431 27.8984C108.315 27.9203 108.197 28.0532 108.077 28.297L107.499 29.4736ZM112.552 40.7182C112.112 40.3997 111.851 40.006 111.767 39.5374C111.684 39.0687 111.791 38.6287 112.089 38.2174L117.584 30.627C117.888 30.2061 118.279 29.9491 118.754 29.856C119.239 29.7699 119.707 29.8896 120.156 30.2151C120.635 30.5613 120.904 30.9749 120.964 31.4558C121.04 31.934 120.93 32.3788 120.632 32.7901L115.116 40.4092C114.818 40.8205 114.424 41.0528 113.934 41.1059C113.453 41.166 112.992 41.0368 112.552 40.7182ZM115.743 43.5462C115.313 42.8712 115.249 42.2472 115.549 41.674C115.858 41.0932 116.473 40.6218 117.394 40.2601L123.944 37.6722C124.547 37.4302 125.103 37.2686 125.611 37.1874C126.126 37.1151 126.609 37.1576 127.058 37.3149C127.515 37.4812 127.949 37.8007 128.359 38.2734C128.978 38.9869 129.247 39.6924 129.164 40.3897C129.089 41.096 128.808 41.8714 128.321 42.7159L124.825 48.8224C124.337 49.6836 123.792 50.2352 123.188 50.4772C122.602 50.7203 122.001 50.5773 121.386 50.0482C120.897 49.6119 120.584 49.1334 120.445 48.6129C120.314 48.1014 120.418 47.6358 120.757 47.2161C120.978 46.9304 121.194 46.7279 121.403 46.6088C121.62 46.4986 121.797 46.4149 121.935 46.3577C122.048 46.307 122.133 46.2335 122.19 46.1371C122.263 46.0419 122.25 45.9363 122.149 45.8203L119.99 43.3319C119.889 43.2159 119.783 43.1833 119.67 43.2339C119.574 43.2858 119.497 43.3682 119.439 43.4813C119.363 43.6098 119.251 43.7694 119.104 43.9598C118.957 44.1503 118.73 44.3394 118.423 44.527C117.96 44.8039 117.488 44.8459 117.008 44.6529C116.528 44.4598 116.106 44.0909 115.743 43.5462ZM123.802 43.9407L125.379 41.3525C125.452 41.2572 125.492 41.168 125.498 41.0847C125.521 41.0026 125.493 40.9169 125.416 40.8277C125.338 40.7385 125.254 40.6948 125.161 40.6967C125.086 40.6997 124.992 40.7266 124.879 40.7772L122.107 41.9874L123.802 43.9407Z" fill="#373534" fill-opacity="0.86"/>
<path d="M59.1706 124.605C60.4886 125.092 61.4708 125.739 62.1171 126.544C62.7787 127.343 63.1408 128.27 63.2036 129.326C63.2816 130.375 63.0912 131.519 62.6323 132.76C61.8621 134.842 60.8482 136.205 59.5905 136.848C58.3329 137.49 56.7792 137.47 54.9295 136.786L54.1985 136.515C53.6557 136.315 53.1723 136.073 52.748 135.79C52.3238 135.507 51.9877 135.156 51.7398 134.737C51.496 134.307 51.3727 133.789 51.37 133.184C51.3673 132.578 51.5216 131.855 51.8329 131.013C52.1238 130.227 52.481 129.584 52.9045 129.086C53.339 128.592 53.7693 128.229 54.1954 127.996C54.6214 127.763 54.9706 127.653 55.243 127.666L55.2767 127.319L54.9942 127.215C54.4847 127.027 54.1399 126.716 53.9596 126.285C53.7945 125.846 53.8089 125.347 54.0026 124.79C54.1964 124.232 54.5043 123.842 54.9262 123.62C55.3634 123.392 55.8367 123.371 56.3462 123.56L59.1706 124.605ZM55.0861 131.971C55.0001 132.203 54.9905 132.382 55.0574 132.508C55.1354 132.637 55.2796 132.741 55.4901 132.819L56.3872 133.151C56.9521 133.36 57.4347 133.4 57.8349 133.271C58.2352 133.142 58.5659 132.912 58.827 132.58C59.1033 132.242 59.3214 131.856 59.4811 131.424C59.6409 130.992 59.7281 130.552 59.7426 130.105C59.7683 129.661 59.6732 129.254 59.4573 128.885C59.2414 128.515 58.851 128.226 58.2861 128.017L57.3889 127.685C57.1785 127.607 56.9995 127.598 56.8518 127.657C56.7194 127.708 56.6081 127.856 56.5179 128.1L55.0861 131.971ZM63.7592 139.585C62.9908 139.362 62.5298 138.937 62.3762 138.308C62.2241 137.668 62.3742 136.908 62.8265 136.028L66.0311 129.757C66.3237 129.176 66.6338 128.688 66.9614 128.291C67.3006 127.896 67.6908 127.609 68.132 127.43C68.5849 127.253 69.1215 127.206 69.7418 127.29C70.678 127.416 71.3456 127.768 71.7443 128.346C72.1548 128.926 72.4565 129.693 72.6494 130.649L74.062 137.542C74.2651 138.511 74.2203 139.285 73.9276 139.865C73.6482 140.435 73.1027 140.725 72.2911 140.735C71.6363 140.73 71.0848 140.578 70.6365 140.28C70.1999 139.982 69.9703 139.564 69.9476 139.025C69.9247 138.664 69.9525 138.37 70.0308 138.142C70.1209 137.916 70.1988 137.736 70.2645 137.602C70.3154 137.49 70.3304 137.379 70.3095 137.268C70.3019 137.148 70.222 137.078 70.0698 137.057L66.8045 136.617C66.6524 136.597 66.5509 136.643 66.5 136.755C66.4624 136.857 66.4591 136.97 66.4901 137.093C66.518 137.24 66.5396 137.434 66.5549 137.674C66.5701 137.914 66.5248 138.206 66.419 138.549C66.2544 139.063 65.9281 139.407 65.4401 139.579C64.9521 139.752 64.3918 139.754 63.7592 139.585ZM70.0675 134.555L69.5402 131.57C69.5326 131.45 69.5035 131.357 69.4528 131.29C69.4155 131.214 69.3383 131.168 69.2213 131.152C69.1042 131.136 69.0117 131.159 68.9437 131.222C68.889 131.274 68.8362 131.356 68.7854 131.468L67.5044 134.209L70.0675 134.555ZM80.7709 132.063C80.1833 132.121 79.6847 131.998 79.2751 131.694C78.8773 131.389 78.6489 130.937 78.5901 130.337C78.5323 129.75 78.6507 129.263 78.9451 128.879C79.2502 128.481 79.7318 128.25 80.3899 128.185L87.9881 127.438C88.6463 127.374 89.1578 127.507 89.5227 127.839C89.8981 128.159 90.1147 128.612 90.1725 129.2C90.2313 129.799 90.0895 130.288 89.7469 130.665C89.416 131.042 88.9568 131.259 88.3691 131.317C87.9695 131.356 87.6423 131.347 87.3874 131.289C87.1431 131.218 86.9388 131.131 86.7745 131.029C86.609 130.914 86.4517 130.823 86.3026 130.755C86.1523 130.674 85.9714 130.645 85.7598 130.665L85.6323 130.998C85.6897 131.1 85.787 131.244 85.9242 131.432C86.0602 131.609 86.199 131.874 86.3405 132.228C86.4809 132.57 86.5812 133.047 86.6412 133.658L87.1417 138.753C87.189 139.235 87.0461 139.652 86.7129 140.005C86.3915 140.357 85.9723 140.559 85.4551 140.61C84.9263 140.662 84.4641 140.547 84.0686 140.265C83.6848 139.983 83.4693 139.6 83.4219 139.118L82.9214 134.024C82.8614 133.412 82.8669 132.925 82.9381 132.562C83.0081 132.188 83.0926 131.9 83.1916 131.701C83.3013 131.488 83.3744 131.327 83.4111 131.217L83.2036 130.917C82.992 130.937 82.8204 131.002 82.6886 131.11C82.5556 131.206 82.4191 131.326 82.279 131.47C82.1378 131.603 81.9542 131.728 81.7284 131.845C81.5014 131.95 81.1823 132.023 80.7709 132.063ZM94.6125 139.419C94.0839 139.545 93.6149 139.486 93.2053 139.244C92.7958 139.001 92.5324 138.632 92.4151 138.138L90.2517 129.021C90.1317 128.515 90.1917 128.052 90.4316 127.631C90.683 127.207 91.0788 126.931 91.6188 126.803C92.1933 126.667 92.6824 126.733 93.0859 127.001C93.4982 127.255 93.7629 127.629 93.8802 128.123L96.0518 137.275C96.1691 137.77 96.0877 138.22 95.8079 138.626C95.5395 139.029 95.141 139.294 94.6125 139.419ZM99.7002 137.802C98.9287 138.013 98.3133 137.891 97.8539 137.436C97.3898 136.969 97.1206 136.243 97.0463 135.256L96.5021 128.234C96.4486 127.587 96.4578 127.008 96.5297 126.499C96.6125 125.985 96.7953 125.536 97.078 125.153C97.3715 124.765 97.8045 124.445 98.3771 124.192C99.2414 123.811 99.9945 123.762 100.636 124.047C101.289 124.326 101.948 124.823 102.611 125.537L107.417 130.676C108.097 131.396 108.463 132.08 108.517 132.728C108.576 133.36 108.263 133.892 107.576 134.324C107.015 134.662 106.465 134.821 105.927 134.801C105.4 134.775 104.985 134.539 104.684 134.091C104.476 133.795 104.346 133.53 104.294 133.295C104.253 133.055 104.225 132.861 104.211 132.712C104.196 132.59 104.15 132.487 104.075 132.404C104.006 132.305 103.901 132.287 103.76 132.349L100.746 133.68C100.606 133.742 100.543 133.834 100.558 133.957C100.58 134.063 100.636 134.161 100.727 134.25C100.827 134.361 100.947 134.515 101.085 134.711C101.224 134.908 101.338 135.181 101.427 135.529C101.555 136.053 101.456 136.516 101.13 136.918C100.805 137.321 100.328 137.615 99.7002 137.802ZM102.451 130.217L100.442 127.947C100.372 127.849 100.299 127.784 100.221 127.754C100.149 127.708 100.059 127.709 99.9512 127.757C99.8432 127.805 99.7765 127.873 99.7511 127.962C99.7317 128.035 99.7297 128.133 99.745 128.255L100.085 131.261L102.451 130.217Z" fill="#373534" fill-opacity="0.86"/>
<path d="M38.4035 45.0694C37.6529 45.9503 36.7952 46.5926 35.8306 46.9963C34.8646 47.3833 33.8497 47.4727 32.786 47.2644C31.7222 47.0561 30.6645 46.5039 29.6129 45.6077C28.5612 44.7115 27.8257 43.7356 27.4064 42.6801C26.9947 41.6155 26.8892 40.5559 27.0899 39.5011C27.2892 38.4297 27.7795 37.4356 28.5607 36.5188C29.4646 35.4581 30.3061 34.7711 31.0853 34.4576C31.8644 34.1441 32.5462 34.2363 33.1304 34.7341C33.5798 35.1171 33.8494 35.5563 33.9392 36.0518C34.0201 36.5396 33.8805 36.9947 33.5205 37.4172C33.2141 37.7767 32.8704 38.089 32.4895 38.3539C32.1072 38.6022 31.7245 38.9511 31.3416 39.4005C30.8513 39.9758 30.6308 40.5714 30.68 41.1874C30.7291 41.8034 31.0234 42.3411 31.5627 42.8007C32.093 43.2526 32.6796 43.4655 33.3226 43.4393C33.9565 43.4055 34.5186 43.1009 35.0088 42.5257C35.2693 42.2201 35.4842 41.9223 35.6538 41.6323C35.822 41.3257 35.9825 41.0281 36.1354 40.7394C36.2959 40.4418 36.4988 40.1491 36.7439 39.8615C37.1498 39.3851 37.6059 39.1686 38.1119 39.212C38.609 39.2477 39.0868 39.4609 39.5452 39.8515C40.0036 40.2422 40.2349 40.7263 40.2391 41.304C40.2344 41.874 40.0613 42.4868 39.7199 43.1424C39.3861 43.7889 38.9474 44.4312 38.4035 45.0694ZM46.5125 38.4422C45.4454 39.1188 44.3941 39.4568 43.3589 39.456C42.3236 39.4552 41.3541 39.161 40.4502 38.5735C39.5463 37.986 38.7529 37.1537 38.0699 36.0765C37.3933 35.0094 36.982 33.9417 36.8362 32.8736C36.684 31.7955 36.8283 30.7881 37.2691 29.8514C37.7036 28.9047 38.4544 28.0931 39.5216 27.4164C40.5888 26.7398 41.6382 26.41 42.6698 26.4271C43.705 26.4279 44.6778 26.727 45.588 27.3245C46.4918 27.912 47.2821 28.7394 47.9587 29.8065C48.6417 30.8837 49.0561 31.9563 49.202 33.0244C49.3479 34.0925 49.2004 35.0949 48.7596 36.0316C48.3287 36.962 47.5797 37.7656 46.5125 38.4422ZM39.8032 34.642C39.9992 34.9512 40.2606 35.198 40.5872 35.3824C40.9076 35.5568 41.3409 35.5897 41.8873 35.481C42.4273 35.3623 43.1311 35.0279 43.9988 34.4777C44.8665 33.9275 45.4642 33.4367 45.7919 33.0052C46.1232 32.5574 46.2783 32.1514 46.2572 31.7873C46.2297 31.4132 46.118 31.0715 45.9219 30.7624C45.7196 30.4432 45.4646 30.2064 45.1569 30.0519C44.8428 29.8874 44.419 29.8695 43.8853 29.9982C43.3552 30.1105 42.6564 30.4418 41.7887 30.992C40.921 31.5421 40.3183 32.0361 39.9806 32.4739C39.6367 32.9018 39.4721 33.2928 39.4869 33.647C39.4954 33.9912 39.6008 34.3228 39.8032 34.642ZM53.9671 34.3733C53.3815 34.5582 52.8929 34.5205 52.5011 34.2603C52.1094 34 51.8211 33.5771 51.6362 32.9915L49.1512 25.1197C48.8811 24.2638 48.9128 23.5602 49.2466 23.0091C49.5916 22.4543 50.0907 22.0739 50.7438 21.8677C51.3632 21.6722 51.9509 21.7096 52.5068 21.9799C53.074 22.2467 53.5976 22.7873 54.0776 23.6017L57.2029 28.9123L57.6421 28.7736L57.152 22.6312C57.0774 21.6888 57.1957 20.9455 57.507 20.4015C57.8294 19.8538 58.3004 19.4823 58.9198 19.2867C59.5729 19.0806 60.1944 19.1073 60.7841 19.367C61.3851 19.6231 61.8206 20.1791 62.0908 21.0349L64.5758 28.9068C64.7606 29.4924 64.7618 30.006 64.5792 30.4475C64.4078 30.8855 64.0294 31.1969 63.4438 31.3818C62.8807 31.5595 62.392 31.5218 61.9777 31.2687C61.5635 31.0156 61.2639 30.5962 61.079 30.0106L59.6446 25.4666C59.609 25.354 59.5602 25.2579 59.4979 25.1785C59.4434 25.0843 59.3542 25.0567 59.2303 25.0958C59.129 25.1278 59.0718 25.2016 59.0587 25.3172C59.0421 25.4215 59.0403 25.5335 59.0534 25.6532L59.7552 30.1127C59.8222 30.5993 59.8527 31.0294 59.8467 31.4028C59.8484 31.7613 59.7651 32.0663 59.5968 32.3176C59.4249 32.5576 59.1249 32.7451 58.697 32.8802C58.2803 33.0118 57.9271 33.0304 57.6373 32.9361C57.3551 32.827 57.1062 32.627 56.8905 32.3359C56.6825 32.0301 56.4718 31.657 56.2585 31.2166L54.2559 27.1677C54.2091 27.0586 54.149 26.9661 54.0755 26.8903C53.9984 26.8031 53.9036 26.7773 53.791 26.8129C53.6784 26.8484 53.6212 26.9222 53.6194 27.0342C53.614 27.135 53.6291 27.2417 53.6647 27.3543L55.0991 31.8983C55.284 32.484 55.2795 32.9993 55.0856 33.4444C54.903 33.8859 54.5302 34.1956 53.9671 34.3733ZM70.5468 30.1391C69.9711 30.1982 69.4136 30.202 68.8741 30.1506C68.3463 30.0979 67.8677 29.9453 67.4381 29.6926C67.0191 29.4269 66.6631 29.0242 66.3703 28.4845C66.088 27.9318 65.8992 27.1914 65.8039 26.2633C65.7183 25.4292 65.7563 24.7011 65.918 24.0791C66.0797 23.4571 66.2951 22.9541 66.5644 22.5704C66.8454 22.1854 67.1109 21.9385 67.3609 21.8297L67.2384 21.5039L66.9389 21.5347C66.3985 21.5902 65.9522 21.4639 65.6 21.1557C65.2584 20.8347 65.051 20.3752 64.9777 19.7773C64.9057 19.1911 65.0101 18.7055 65.2911 18.3205C65.5839 17.9343 66.0005 17.7135 66.5408 17.658L72.867 17.0085C74.124 16.8794 74.8128 17.4023 74.9334 18.5771C74.9876 19.1057 74.8783 19.5443 74.6055 19.8928C74.3326 20.2414 73.8731 20.4488 73.227 20.5152L69.5793 20.8897C69.1447 20.9343 68.9533 21.2092 69.0051 21.7143L69.1408 23.0359C69.7149 22.8464 70.3101 22.631 70.9264 22.3896C71.5544 22.1471 72.1563 21.9962 72.7319 21.9371C73.2841 21.8805 73.7079 21.9616 74.0034 22.1806C74.3095 22.3866 74.4836 22.6951 74.5258 23.1063C74.5692 23.5292 74.4627 23.8785 74.206 24.1542C73.96 24.4168 73.5615 24.5824 73.0105 24.6508C72.4361 24.7217 71.8168 24.7022 71.1526 24.5923C70.4884 24.4824 69.8559 24.393 69.2553 24.3241L69.4923 26.6325C69.5152 26.8557 69.5902 27.0083 69.7173 27.0902C69.855 27.1592 70.0511 27.1034 70.3056 26.923C70.858 26.522 71.4059 26.1927 71.9493 25.9351C72.4915 25.6657 73.0328 25.5033 73.5731 25.4478C74.3367 25.3694 74.9329 25.51 75.3616 25.8697C75.802 26.2281 76.0554 26.7303 76.1217 27.3765C76.1929 28.0696 76.0363 28.6258 75.652 29.0451C75.2794 29.4633 74.6291 29.72 73.701 29.8153L70.5468 30.1391ZM82.4663 17.0099C83.8689 17.0959 84.996 17.4312 85.8476 18.0159C86.7116 18.5895 87.3261 19.3725 87.6912 20.3651C88.0688 21.3466 88.2171 22.4975 88.1361 23.8176C88.0002 26.0336 87.4231 27.631 86.4047 28.6097C85.3864 29.5885 83.8929 30.0175 81.9245 29.8968L81.1465 29.8491C80.5689 29.8136 80.0362 29.7218 79.5484 29.5736C79.0605 29.4253 78.6374 29.1864 78.279 28.8568C77.9214 28.5154 77.6538 28.0553 77.4763 27.4765C77.2988 26.8978 77.2376 26.1604 77.2925 25.2646C77.3438 24.4277 77.5002 23.7097 77.7618 23.1105C78.0351 22.512 78.3421 22.0398 78.6828 21.6939C79.0235 21.348 79.326 21.1418 79.5904 21.0752L79.5225 20.7338L79.222 20.7154C78.6798 20.6821 78.26 20.4848 77.9627 20.1235C77.6779 19.7511 77.5477 19.2698 77.5721 18.6797C77.5964 18.0896 77.7786 17.6275 78.1185 17.2934C78.471 16.9483 78.9183 16.7923 79.4605 16.8256L82.4663 17.0099ZM80.6836 25.2418C80.6685 25.4894 80.711 25.6635 80.8113 25.7643C80.9234 25.8659 81.0914 25.9235 81.3154 25.9372L82.2702 25.9958C82.8713 26.0327 83.3449 25.9315 83.6908 25.6925C84.0368 25.4534 84.2868 25.1374 84.4411 24.7446C84.6078 24.3407 84.7053 23.909 84.7335 23.4492C84.7617 22.9895 84.7181 22.5432 84.6026 22.1102C84.499 21.6779 84.2905 21.3161 83.977 21.0247C83.6636 20.7334 83.2063 20.5693 82.6052 20.5324L81.6504 20.4738C81.4265 20.4601 81.2523 20.5027 81.1279 20.6015C81.0161 20.6893 80.9522 20.8629 80.9363 21.1222L80.6836 25.2418ZM94.0812 31.8612C92.8561 31.5517 91.8879 31.0208 91.1766 30.2686C90.4653 29.5164 90.0122 28.6101 89.8172 27.5499C89.6222 26.4896 89.681 25.3412 89.9934 24.1047C90.303 22.8796 90.7953 21.8468 91.4705 21.0065C92.1486 20.1546 92.9793 19.5667 93.9626 19.2426C94.9487 18.9071 96.0543 18.8942 97.2794 19.2037C98.5045 19.5133 99.4655 20.0484 100.162 20.8092C100.874 21.5614 101.325 22.4734 101.518 23.5451C101.713 24.6053 101.655 25.748 101.346 26.9731C101.033 28.2096 100.539 29.2481 99.8642 30.0885C99.189 30.9289 98.3598 31.5111 97.3765 31.8351C96.4047 32.1621 95.3063 32.1708 94.0812 31.8612ZM92.2268 24.3767C92.1371 24.7316 92.1377 25.0911 92.2284 25.455C92.322 25.8076 92.5961 26.1448 93.0507 26.4667C93.5082 26.7772 94.235 27.0583 95.2312 27.31C96.2273 27.5617 96.9946 27.6582 97.5333 27.5994C98.0862 27.532 98.4876 27.3655 98.7375 27.0997C98.9902 26.8225 99.1614 26.5065 99.2511 26.1515C99.3437 25.7851 99.3403 25.4371 99.2409 25.1075C99.1443 24.7664 98.8659 24.4464 98.4055 24.1473C97.9594 23.8397 97.2384 23.5601 96.2423 23.3084C95.2461 23.0567 94.4731 22.9588 93.923 23.0147C93.3758 23.0592 92.9787 23.2085 92.7318 23.4628C92.4877 23.7057 92.3194 24.0103 92.2268 24.3767ZM108.187 37.3388C107.657 37.0785 107.316 36.7138 107.165 36.2449C107.019 35.7653 107.063 35.2606 107.297 34.7308C107.697 33.809 107.781 33.0611 107.55 32.487C107.335 31.9076 106.888 31.4513 106.21 31.118L105.892 30.9618L104.642 33.5057C104.371 34.0569 104.017 34.4027 103.58 34.5431C103.143 34.6835 102.68 34.634 102.192 34.3945C101.673 34.1393 101.335 33.7958 101.179 33.3638C101.023 32.9318 101.08 32.4402 101.351 31.8891L102.452 29.6472C103.004 28.5237 103.587 27.7511 104.202 27.3295C104.828 26.9132 105.463 26.7054 106.107 26.7061L106.176 26.365L105.922 26.24C105.434 26.0005 105.123 25.6568 104.988 25.2088C104.868 24.7554 104.931 24.2532 105.175 23.7022C105.425 23.1671 105.779 22.8081 106.237 22.6253C106.695 22.4425 107.168 22.4708 107.656 22.7103L111.71 24.7019C112.844 25.259 113.626 25.985 114.054 26.8798C114.483 27.7746 114.401 28.8262 113.807 30.0346C113.5 30.6599 113.136 31.1325 112.716 31.4524C112.301 31.7617 111.875 31.9469 111.437 32.0081C110.999 32.0692 110.589 32.0325 110.208 31.8979L110.106 32.1046C110.685 32.5864 111.054 33.2017 111.213 33.9506C111.382 34.7046 111.242 35.5374 110.795 36.449C110.508 37.032 110.133 37.3938 109.669 37.5344C109.221 37.6696 108.727 37.6044 108.187 37.3388ZM107.007 28.4902C106.893 28.7234 106.859 28.8979 106.908 29.0137C106.956 29.1296 107.097 29.2448 107.33 29.3593L108.825 30.0935C109.27 30.3121 109.643 30.3703 109.943 30.2678C110.243 30.1653 110.482 29.9339 110.659 29.5735C110.841 29.2025 110.881 28.8669 110.779 28.5665C110.676 28.2662 110.402 28.0067 109.957 27.788L108.463 27.0539C108.229 26.9394 108.055 26.8931 107.939 26.915C107.823 26.9369 107.705 27.0698 107.585 27.3136L107.007 28.4902ZM112.06 39.7348C111.62 39.4163 111.359 39.0226 111.275 38.554C111.192 38.0853 111.299 37.6453 111.597 37.234L117.092 29.6436C117.396 29.2227 117.787 28.9657 118.262 28.8726C118.747 28.7865 119.215 28.9062 119.664 29.2317C120.143 29.5779 120.412 29.9915 120.472 30.4724C120.548 30.9506 120.438 31.3954 120.14 31.8067L114.624 39.4258C114.326 39.8371 113.932 40.0694 113.442 40.1225C112.961 40.1826 112.5 40.0534 112.06 39.7348ZM115.251 42.5628C114.821 41.8878 114.757 41.2638 115.057 40.6906C115.366 40.1098 115.981 39.6385 116.902 39.2767L123.452 36.6888C124.055 36.4468 124.611 36.2852 125.119 36.204C125.634 36.1317 126.117 36.1742 126.566 36.3315C127.023 36.4978 127.457 36.8173 127.867 37.29C128.486 38.0036 128.755 38.709 128.672 39.4063C128.597 40.1126 128.316 40.888 127.829 41.7325L124.333 47.839C123.845 48.7002 123.3 49.2518 122.696 49.4938C122.11 49.7369 121.509 49.5939 120.894 49.0648C120.405 48.6285 120.092 48.15 119.953 47.6295C119.822 47.118 119.926 46.6524 120.265 46.2327C120.486 45.947 120.702 45.7445 120.911 45.6254C121.128 45.5152 121.305 45.4315 121.443 45.3743C121.556 45.3236 121.641 45.2501 121.698 45.1537C121.771 45.0585 121.758 44.9529 121.657 44.8369L119.498 42.3485C119.397 42.2325 119.291 42.1999 119.178 42.2505C119.082 42.3024 119.005 42.3848 118.947 42.4979C118.871 42.6264 118.759 42.786 118.612 42.9764C118.465 43.1669 118.238 43.356 117.931 43.5436C117.468 43.8205 116.996 43.8625 116.516 43.6695C116.036 43.4764 115.614 43.1075 115.251 42.5628ZM123.31 42.9573L124.887 40.3691C124.96 40.2738 125 40.1846 125.006 40.1013C125.029 40.0192 125.001 39.9335 124.924 39.8443C124.846 39.7551 124.762 39.7114 124.669 39.7133C124.594 39.7163 124.5 39.7432 124.387 39.7938L121.615 41.004L123.31 42.9573Z" fill="#244F33"/>
<path d="M58.6784 123.621C59.9965 124.108 60.9787 124.755 61.625 125.561C62.2865 126.359 62.6487 127.286 62.7115 128.342C62.7895 129.391 62.599 130.536 62.1402 131.776C61.37 133.858 60.3561 135.221 59.0984 135.864C57.8407 136.507 56.287 136.486 54.4373 135.802L53.7063 135.531C53.1636 135.331 52.6801 135.089 52.2559 134.806C51.8317 134.523 51.4956 134.172 51.2477 133.753C51.0039 133.323 50.8806 132.805 50.8779 132.2C50.8752 131.594 51.0295 130.871 51.3408 130.029C51.6317 129.243 51.9889 128.6 52.4123 128.102C52.8469 127.608 53.2772 127.245 53.7033 127.012C54.1293 126.779 54.4785 126.669 54.7509 126.682L54.7845 126.336L54.5021 126.231C53.9926 126.043 53.6477 125.733 53.4675 125.301C53.3024 124.862 53.3168 124.364 53.5105 123.806C53.7043 123.248 54.0121 122.858 54.4341 122.636C54.8712 122.408 55.3445 122.388 55.854 122.576L58.6784 123.621ZM54.594 130.987C54.508 131.219 54.4984 131.399 54.5653 131.524C54.6433 131.654 54.7875 131.757 54.998 131.835L55.8951 132.167C56.46 132.376 56.9426 132.416 57.3428 132.287C57.7431 132.158 58.0738 131.928 58.3349 131.596C58.6112 131.258 58.8292 130.872 58.989 130.44C59.1488 130.009 59.2359 129.569 59.2505 129.121C59.2762 128.677 59.181 128.27 58.9651 127.901C58.7492 127.531 58.3588 127.242 57.794 127.033L56.8968 126.701C56.6864 126.624 56.5073 126.614 56.3597 126.673C56.2272 126.724 56.1159 126.872 56.0258 127.116L54.594 130.987ZM63.267 138.601C62.4987 138.379 62.0377 137.953 61.884 137.325C61.732 136.684 61.8821 135.924 62.3344 135.044L65.5389 128.773C65.8316 128.193 66.1417 127.704 66.4693 127.307C66.8085 126.912 67.1987 126.625 67.6399 126.446C68.0928 126.269 68.6293 126.222 69.2496 126.306C70.1859 126.432 70.8534 126.784 71.2522 127.362C71.6626 127.942 71.9643 128.709 72.1573 129.665L73.5699 136.558C73.773 137.527 73.7282 138.301 73.4355 138.881C73.1561 139.451 72.6106 139.741 71.799 139.751C71.1442 139.746 70.5927 139.594 70.1444 139.296C69.7078 138.999 69.4782 138.58 69.4555 138.041C69.4326 137.681 69.4603 137.386 69.5387 137.159C69.6288 136.932 69.7067 136.752 69.7724 136.618C69.8233 136.506 69.8383 136.395 69.8174 136.285C69.8097 136.164 69.7298 136.094 69.5777 136.074L66.3124 135.633C66.1602 135.613 66.0587 135.659 66.0078 135.771C65.9702 135.873 65.967 135.986 65.998 136.109C66.0259 136.256 66.0475 136.45 66.0627 136.69C66.078 136.931 66.0327 137.222 65.9269 137.566C65.7623 138.08 65.436 138.423 64.948 138.595C64.46 138.768 63.8997 138.77 63.267 138.601ZM69.5754 133.571L69.0481 130.586C69.0405 130.466 69.0113 130.373 68.9607 130.306C68.9234 130.23 68.8462 130.184 68.7291 130.168C68.6121 130.152 68.5196 130.175 68.4516 130.238C68.3969 130.29 68.3441 130.372 68.2932 130.485L67.0123 133.225L69.5754 133.571ZM80.2788 131.079C79.6912 131.137 79.1926 131.014 78.783 130.71C78.3852 130.405 78.1568 129.953 78.0979 129.354C78.0402 128.766 78.1586 128.28 78.453 127.895C78.758 127.497 79.2396 127.266 79.8978 127.201L87.496 126.455C88.1542 126.39 88.6657 126.524 89.0305 126.856C89.406 127.175 89.6226 127.628 89.6803 128.216C89.7392 128.815 89.5974 129.304 89.2548 129.681C88.9239 130.058 88.4646 130.275 87.877 130.333C87.4774 130.372 87.1502 130.363 86.8953 130.305C86.651 130.234 86.4467 130.147 86.2823 130.045C86.1169 129.93 85.9595 129.839 85.8104 129.771C85.6602 129.69 85.4793 129.661 85.2677 129.682L85.1402 130.014C85.1976 130.116 85.2949 130.26 85.432 130.449C85.568 130.625 85.7068 130.89 85.8484 131.244C85.9888 131.586 86.089 132.063 86.1491 132.674L86.6496 137.769C86.6969 138.251 86.554 138.668 86.2208 139.022C85.8994 139.374 85.4801 139.575 84.963 139.626C84.4341 139.678 83.9719 139.563 83.5764 139.281C83.1927 138.999 82.9771 138.616 82.9298 138.135L82.4293 133.04C82.3693 132.429 82.3748 131.941 82.446 131.578C82.5159 131.204 82.6005 130.917 82.6995 130.717C82.8092 130.505 82.8823 130.343 82.9189 130.233L82.7115 129.933C82.4999 129.953 82.3282 130.018 82.1964 130.126C82.0635 130.222 81.927 130.342 81.7869 130.486C81.6456 130.619 81.4621 130.744 81.2363 130.861C81.0093 130.966 80.6902 131.039 80.2788 131.079ZM94.1204 138.436C93.5918 138.561 93.1228 138.502 92.7132 138.26C92.3036 138.017 92.0402 137.649 91.923 137.155L89.7595 128.037C89.6396 127.531 89.6996 127.068 89.9395 126.647C90.1909 126.223 90.5867 125.947 91.1267 125.819C91.7012 125.683 92.1902 125.749 92.5938 126.017C93.0061 126.271 93.2708 126.645 93.3881 127.14L95.5597 136.292C95.6769 136.786 95.5956 137.236 95.3158 137.642C95.0474 138.046 94.6489 138.31 94.1204 138.436ZM99.2081 136.818C98.4366 137.029 97.8211 136.907 97.3618 136.452C96.8977 135.985 96.6285 135.259 96.5541 134.272L96.01 127.251C95.9564 126.603 95.9656 126.024 96.0376 125.515C96.1204 125.001 96.3031 124.552 96.5859 124.169C96.8794 123.781 97.3124 123.461 97.885 123.208C98.7492 122.827 99.5024 122.778 100.144 123.063C100.797 123.342 101.455 123.839 102.119 124.553L106.925 129.693C107.605 130.412 107.971 131.096 108.025 131.744C108.084 132.376 107.771 132.908 107.084 133.34C106.523 133.678 105.973 133.837 105.435 133.817C104.907 133.791 104.493 133.555 104.192 133.107C103.984 132.811 103.854 132.546 103.802 132.311C103.76 132.071 103.733 131.877 103.719 131.728C103.703 131.606 103.658 131.503 103.583 131.42C103.513 131.322 103.409 131.303 103.268 131.365L100.254 132.696C100.114 132.758 100.051 132.85 100.066 132.973C100.088 133.079 100.144 133.177 100.235 133.266C100.335 133.377 100.455 133.531 100.593 133.728C100.732 133.925 100.846 134.197 100.935 134.545C101.063 135.069 100.964 135.533 100.638 135.935C100.312 136.337 99.8356 136.631 99.2081 136.818ZM101.959 129.233L99.9496 126.963C99.8803 126.865 99.8068 126.8 99.7289 126.77C99.6571 126.725 99.5671 126.726 99.4591 126.773C99.3511 126.821 99.2843 126.889 99.2589 126.978C99.2396 127.051 99.2375 127.149 99.2528 127.271L99.5927 130.277L101.959 129.233Z" fill="#244F33"/>
<path fill-rule="evenodd" clip-rule="evenodd" d="M82.1738 59.0471C57.3248 60.7697 63.9676 107.515 100.38 85.6183C101.856 81.1901 110.467 82.1742 108.499 88.5706C95.9514 123.015 58.5549 125.721 45.7615 99.3959C37.1504 71.8408 64.7056 28.0476 99.1498 41.8251C115.634 52.6504 98.0199 82.1739 83.896 75.5311C80.3407 74.8864 79.7114 74.0456 80.6976 71.8406C84.0187 65.7366 84.7408 62.7755 82.1738 59.0471ZM69.6263 60.5237C59.7851 68.8886 57.8169 87.5869 73.3167 92.5074C61.7533 85.6183 61.7533 71.8406 69.6263 60.5237ZM92.507 43.0556C101.61 47.2381 103.086 55.111 99.1498 65.4442C105.805 54.619 103.332 45.899 92.507 43.0556ZM83.896 111.698C94.6583 106.557 99.3427 101.167 105.3 87.0948L104.07 86.1107L102.84 88.0789V89.8011C96.7686 101.179 92.6533 106.043 83.896 111.698Z" fill="#244F33" stroke="#244F33" stroke-width="0.492058"/>
</svg>
