<svg width="210" height="42" viewBox="0 0 210 42" fill="none" xmlns="http://www.w3.org/2000/svg">
<path d="M17.2368 1.21156C20.0974 0.487787 22.9869 0.531439 26.0431 1.20413L26.6572 1.3472L26.8625 1.39736L27.0594 1.47354C31.0899 3.02526 34.1119 6.74588 33.8841 12.0682L33.8832 12.0849C37.7295 10.4081 41.8331 10.704 44.6998 11.8722C45.0901 12.0312 45.4439 12.2444 45.7543 12.4956C46.702 13.2625 47.514 14.1313 48.1661 15.134C48.2431 14.9993 48.3218 14.8627 48.403 14.7243L48.4652 14.6193L48.534 14.519C48.8796 14.0176 49.5637 12.8679 51.0748 12.136C51.4835 11.8099 51.9779 11.4814 52.5882 11.2358C53.347 10.9305 54.0759 10.8336 54.7334 10.814L55.0725 10.8177C55.7465 10.8527 56.3925 11.051 56.9593 11.3826L57.2362 11.5591L57.5009 11.7505C57.6997 11.8995 57.9017 12.0665 58.102 12.2531C59.632 11.421 61.1015 11.0216 62.8958 10.8354L63.2126 10.814L63.5313 10.8168L63.9205 10.84C64.8462 10.905 65.883 11.0669 66.9176 11.5396C67.4256 11.7717 67.8818 12.0549 68.2981 12.3785C69.0739 11.8842 69.9649 11.4334 71.01 11.142C72.9429 10.603 75.0185 10.7015 77.463 11.2553C77.6059 11.2877 77.7735 11.3329 77.9554 11.3984L78.1421 11.4708L78.5082 11.6371C80.2964 12.5184 81.4456 14.1194 82.0682 15.566C82.1281 15.7053 82.1841 15.8485 82.2382 15.9943C82.8757 15.3085 83.5172 14.698 84.1994 14.1502C85.5685 13.0507 86.9724 12.3056 88.6114 11.6343C88.8798 11.5244 89.1573 11.4434 89.4345 11.3909L90.0755 11.2739C91.5606 11.0124 92.9721 10.8468 94.3583 10.9404C96.05 11.0546 97.5225 11.5379 99.0295 12.3618C99.2254 12.4689 99.4104 12.5898 99.5823 12.7222L99.7495 12.8579L100.13 13.1905C100.702 13.7016 101.283 14.2842 101.788 14.9881C102.539 14.2942 103.328 13.6831 104.171 13.066L104.318 12.9629C104.467 12.8626 104.625 12.772 104.786 12.6916L105.452 12.3673C107.008 11.6323 108.57 11.0592 110.195 10.9051C111.25 10.8049 112.244 10.8887 113.203 11.1243C114.144 8.411 115.15 6.43137 116.832 4.29594C117.077 3.98409 117.364 3.71073 117.678 3.48304C118.697 2.74467 119.917 1.92345 121.304 1.5488C122.944 1.10567 124.461 1.36015 125.878 2.03839C126.418 2.29735 126.892 2.66861 127.27 3.12071C128.01 4.00584 128.652 5.11598 128.792 6.58878C128.915 7.88857 128.607 9.13788 128.259 10.2334L128.196 10.4285L128.111 10.6143C127.7 11.5087 127.305 12.3826 126.923 13.2341C127.235 13.0215 127.559 12.8096 127.896 12.5987C128.089 12.4782 128.293 12.3725 128.501 12.2847L129.203 11.9976C130.832 11.3548 132.385 10.913 134.02 10.8261C135.93 10.7247 137.664 11.1211 139.486 11.7783C139.734 11.8678 139.98 11.9827 140.217 12.1239L140.451 12.2744L140.766 12.4983C141.067 12.7184 141.358 12.9511 141.637 13.1988C141.713 13.0712 141.793 12.9489 141.879 12.8346L142.195 12.4268C142.941 11.4961 143.757 10.6987 144.779 10.0671C145.926 9.35743 147.12 8.99092 148.305 8.71533C148.636 8.63842 148.972 8.60209 149.304 8.60478L149.635 8.62057L150.354 8.68932C152.015 8.86674 153.566 9.17167 155.081 9.82552C156.835 10.5831 158.303 11.7051 159.808 13.1868C160.092 13.4668 160.34 13.7902 160.539 14.1474C160.663 14.3714 160.8 14.6262 160.936 14.9101C161.22 14.5275 161.53 14.1419 161.874 13.747C161.451 13.1099 161.165 12.4387 160.958 11.743L160.895 11.5331L160.86 11.3175C160.72 10.44 160.648 9.49224 160.838 8.47657C161.03 7.44717 161.443 6.60844 161.88 5.88272L162.038 5.63931C162.203 5.40382 162.387 5.19194 162.583 5.00479C163.378 4.24642 164.258 3.47549 165.341 2.91075C166.496 2.30857 167.669 2.04584 168.943 1.96036L169.058 1.95292H169.172C170.28 1.95518 171.391 2.03294 172.502 2.37842C173.406 2.65953 174.169 3.07437 174.871 3.56665C175.329 2.80079 176.039 2.16561 176.977 1.80892L177.472 1.63241C178.603 1.25489 179.581 1.11593 180.767 1.04526L181.106 1.03876C181.17 1.04011 181.237 1.04314 181.306 1.04805L181.523 1.06849L181.822 1.11401C182.885 1.30416 183.739 1.7685 184.416 2.37006C185.16 1.50912 186.266 0.910673 187.572 0.904049L188.003 0.91241C188.427 0.930231 188.837 0.978023 189.272 1.0592C191.077 1.39624 192.292 2.80094 192.623 4.35632L192.677 4.66941L192.85 5.96169C193.012 5.66287 193.216 5.37962 193.461 5.11999L193.596 4.98342C195.022 3.6096 197.252 3.47811 198.831 4.70285L201.516 6.78481C202.309 7.39962 202.806 8.2429 202.999 9.14268C203.565 9.31476 204.1 9.61087 204.56 10.0299L204.701 10.1646L204.856 10.3281C205.741 11.3148 206.055 12.6176 205.823 13.8296C206.962 14.1878 207.925 15.0148 208.438 16.1439L208.508 16.3074L208.787 16.9976C209.487 18.7274 208.987 20.7117 207.549 21.902L204.401 24.5088C203.337 25.3895 201.974 25.6471 200.739 25.3394C200.739 25.5376 200.729 25.739 200.703 25.9433C200.602 26.771 200.295 27.5237 200.049 28.0763L200.038 28.1005C198.39 31.7309 197.258 33.7064 195.074 36.7943C194.945 36.9774 194.796 37.1573 194.629 37.3257C192.307 39.6809 189.583 40.962 186.781 40.8449C184.806 40.7623 183.077 39.9914 181.718 38.8243C179.805 40.2135 177.699 40.9609 175.509 40.8644C173.495 40.7756 171.74 39.9869 170.316 38.8215C168.401 40.2393 166.312 41.0122 164.133 40.9248C162.152 40.8453 160.455 40.0702 159.092 38.959C158.556 39.3272 157.976 39.6598 157.328 39.9354C155.939 40.5258 154.463 40.775 152.82 40.8486C152.611 40.858 152.393 40.8525 152.171 40.8282C150.248 40.6173 147.782 39.9554 145.971 37.9398C145.09 36.9602 144.495 35.809 144.155 34.5191C142.855 35.2666 141.485 35.6601 140.048 35.8969C134.787 41.8388 127.288 42.0946 122.324 38.395C120.616 39.8205 118.621 40.6925 116.498 40.7808C114.371 40.8693 112.397 40.1555 110.805 38.8335C108.823 40.3297 106.5 41.06 104.137 40.8467C101.887 40.6435 99.8622 39.6058 98.3086 37.9733C95.4784 39.9135 92.3764 40.9439 89.3156 40.9118C86.3555 40.8807 83.5741 39.8498 81.3529 37.9082C80.9286 38.2842 80.4848 38.6313 80.0067 38.9487C78.8445 39.7204 77.6242 40.2379 76.3054 40.6786C75.754 40.8628 75.1717 40.9303 74.5997 40.8821C72.7456 40.7257 70.6882 40.401 68.9893 39.1587C68.6827 38.9345 68.406 38.6909 68.1523 38.435C67.9602 38.6545 67.7421 38.8638 67.4917 39.0481C64.4242 41.3065 59.6971 41.584 56.453 38.6301C56.0362 39.1211 55.5267 39.5804 54.8885 39.953C53.1063 40.9934 51.044 40.9676 49.123 40.7195L48.913 40.6925L48.7077 40.6396C47.414 40.3018 46.2152 39.5131 45.3576 38.749C44.9084 38.3487 44.3273 37.7542 43.8554 37.0006C38.5596 41.7929 30.9971 42.112 26.3543 37.6815C26.3025 37.7197 26.2516 37.7592 26.1982 37.7949C23.9632 39.289 21.8522 40.4109 19.3782 40.9517C16.9166 41.4898 14.3801 41.3909 11.3774 40.9239L11.1582 40.8895L10.9445 40.8263C4.92875 39.0471 0.891736 34.0241 0.120357 28.4786L0.101776 28.3439L0.0934147 28.2073C-0.183511 23.2853 0.117534 19.3332 1.5074 15.71C2.90065 12.078 5.26 9.11189 8.46862 5.93939L8.59775 5.81211L8.73897 5.6997C11.46 3.53853 14.214 1.9764 17.2368 1.21156ZM163.092 26.1346C162.784 26.8492 162.261 27.7279 161.217 28.3801C159.851 29.3125 158.048 29.8021 156.268 29.1549C155.302 28.8037 154.537 28.1823 154.008 27.4093C153.717 27.3673 153.41 27.2865 153.096 27.1454C152.679 26.958 152.346 26.7116 152.081 26.4459C151.348 28.1689 150.816 29.5338 150.541 30.6219C150.287 32.6665 150.77 33.3177 150.924 33.4888C151.152 33.7419 151.66 34.0427 152.721 34.1838C153.017 34.1664 153.276 34.1419 153.504 34.1113C153.492 34.2223 153.483 34.3404 153.484 34.4643C153.485 34.8526 153.556 35.4666 153.924 36.1096C154.323 36.8067 154.93 37.2895 155.58 37.5487C156.632 37.9676 157.534 37.7118 157.708 37.6626C157.711 37.6617 157.714 37.6609 157.716 37.6602C157.73 37.6564 157.742 37.651 157.755 37.6472C157.673 37.5513 157.592 37.4552 157.514 37.3573C157.594 37.4586 157.687 37.552 157.787 37.6379C158.229 37.5018 158.539 37.3033 158.578 37.2785C158.579 37.2776 158.581 37.2769 158.581 37.2765C158.614 37.256 158.642 37.2333 158.669 37.2152L155.143 33.5882C155.201 33.5526 155.261 33.5138 155.323 33.4712L154.277 32.3006C154.258 32.3222 154.19 32.4029 154.105 32.5208L154.068 32.4827C154.198 32.3455 154.319 32.2239 154.426 32.1222C154.476 32.0743 154.543 32.0117 154.618 31.9476C154.652 31.9188 154.719 31.8626 154.806 31.798C154.846 31.7675 154.928 31.707 155.036 31.6391C155.059 31.6248 155.409 31.3916 155.908 31.2508C156.059 31.2082 156.976 30.9358 158.046 31.3623C158.197 31.4223 158.344 31.4958 158.488 31.5797C160.001 31.3297 161.574 31.9051 162.576 33.0345L162.721 33.2064L162.844 33.3532C163.45 34.0549 163.999 34.2549 164.4 34.2711C164.634 34.2805 165.036 34.2339 165.597 33.9487C165.687 34.4377 165.912 35.0639 166.445 35.6293C167.115 36.342 167.926 36.5924 168.504 36.655C168.756 36.6822 168.99 36.6757 169.199 36.654L166.156 33.6143C166.208 33.5785 166.261 33.5414 166.315 33.5018L165.602 32.7335C165.585 32.8219 165.571 32.9172 165.56 33.0187L165.05 32.5096C165.343 32.193 165.578 31.9306 165.779 31.6958C165.996 31.4433 166.224 31.2027 166.454 30.9953C166.561 30.8987 166.726 30.7559 166.932 30.6163C167.03 30.5501 167.213 30.4325 167.456 30.3218C167.563 30.2729 168.271 29.9323 169.22 30.0347C169.804 30.0978 170.619 30.3499 171.293 31.0659C171.441 31.2235 171.566 31.3862 171.67 31.549C172.545 31.8046 173.344 32.3206 173.928 33.0513C174.621 33.9198 175.291 34.1891 175.803 34.2116C176.298 34.2333 177.266 34.0484 178.619 32.7503C178.204 31.8767 178.27 31.0538 178.293 30.8123C178.321 30.531 178.376 30.2661 178.449 30.0226C178.358 29.9893 178.267 29.9536 178.175 29.913C177.539 29.6299 177.052 29.2397 176.678 28.8335C176.527 28.831 176.37 28.8194 176.209 28.7944C175.146 28.6305 174.376 28.0147 173.925 27.3758C173.775 27.1637 173.659 26.9488 173.568 26.7385C173.257 27.3169 172.829 27.9379 172.202 28.4414C171.088 29.3362 169.897 29.4549 169.158 29.4606C168.72 29.4639 168.263 29.3971 167.814 29.245C167.253 29.0553 166.424 28.6827 165.752 27.8942C165.515 27.8706 165.266 27.8214 165.007 27.7354C163.98 27.3932 163.4 26.6892 163.092 26.1346ZM8.05984 17.3024C7.93901 17.5652 7.82746 17.8288 7.72539 18.0948C6.82978 20.4295 6.498 23.2648 6.73505 27.6778C7.18229 30.5636 9.31041 33.3098 12.627 34.3751C15.1087 34.7461 16.6694 34.7269 17.9559 34.4457C19.0947 34.1968 20.2311 33.6976 21.7649 32.7326L20.8619 31.4747C21.5112 30.9522 21.9512 30.5523 22.3455 30.1174C21.4891 30.1687 20.6263 30.1567 19.7861 30.1007C19.782 30.1004 19.778 30.1009 19.774 30.1007C19.7682 30.1003 19.7621 30.1001 19.7563 30.0997C14.8823 29.8004 10.956 26.5432 10.1492 22.909C10.1105 22.7346 10.0757 22.5531 10.0443 22.3656C9.24999 22.0746 8.63438 21.5116 8.25959 20.8698C7.84119 20.1532 7.7816 19.4667 7.77277 19.1223C7.7627 18.729 7.81248 18.3819 7.86475 18.1208L7.98459 17.5829C8.00784 17.4887 8.03453 17.3956 8.05984 17.3024ZM83.8408 29.1614C84.0159 29.5767 84.1186 30.0504 84.1186 30.58C84.1186 30.7801 84.0992 30.9775 84.0656 31.1709C84.3108 31.3565 84.5386 31.5672 84.742 31.8036L85.1164 32.2672C86.2321 33.576 87.7123 34.2349 89.3852 34.2525C90.9524 34.269 92.8468 33.7106 94.8006 32.2987C94.7547 32.0971 94.729 31.9102 94.7188 31.745C93.4875 31.9541 92.2798 32.0166 91.1681 31.9123C90.6982 31.8682 89.8939 31.7352 89.1307 31.2127C88.9131 31.0637 88.6551 30.8489 88.4098 30.5587C87.7676 30.8622 86.7685 31.1146 85.6385 30.6887C84.736 30.3486 84.1774 29.7403 83.8408 29.1614ZM73.7255 26.3604C73.3004 27.5205 72.9006 28.7902 72.6404 29.9687C72.3795 31.1507 72.3175 31.9908 72.3598 32.4734C72.5059 33.0356 72.6412 33.3641 72.7454 33.5529C72.8424 33.7286 72.9008 33.7692 72.9201 33.7833C73.0198 33.8563 73.3796 34.0535 74.6638 34.1968C75.1158 34.0314 75.4789 33.8733 75.788 33.7127L74.8069 32.7057C76.0888 31.2817 76.7201 30.4652 77.4695 29.1772C76.6695 28.8643 75.7868 28.2953 75.1878 27.2318C75.1833 27.2239 75.1792 27.2156 75.1748 27.2077C74.6669 27.0619 74.2193 26.8065 73.8584 26.4858C73.812 26.4446 73.7681 26.4025 73.7255 26.3604ZM185.333 26.5648C185.126 27.066 184.847 27.6427 184.439 28.1878C184.78 28.5339 184.994 28.8937 185.112 29.1382C185.863 30.6895 185.253 32.064 185.027 32.4948C185.011 32.5251 184.995 32.5549 184.979 32.5849C185.175 32.7583 185.357 32.9463 185.518 33.1488L185.657 33.3346L185.819 33.5418C186.207 33.9882 186.647 34.1748 187.06 34.1921C187.512 34.2109 188.458 34.0416 189.754 32.7791C190.152 32.2129 190.508 31.6944 190.834 31.1969C190.47 30.5744 190.39 29.9859 190.367 29.7281C190.361 29.6613 190.357 29.5959 190.355 29.5321C189.629 29.4297 188.848 29.1461 188.149 28.5037C187.983 28.3522 187.84 28.1941 187.714 28.0345C187.492 28.0047 187.261 27.9518 187.024 27.8682C186.252 27.5953 185.697 27.0946 185.333 26.5648ZM125.012 26.4171C124.896 26.6319 124.77 26.8447 124.63 27.0516C124.184 27.7098 123.691 28.1896 123.185 28.5947C123.164 28.6113 123.142 28.626 123.121 28.6421C124.082 29.1897 124.908 30.2283 124.908 31.6939C124.908 31.7337 124.904 31.7733 124.903 31.8129C125.068 31.9325 125.227 32.0629 125.377 32.2068L125.547 32.3786L125.751 32.5867C127.307 34.084 129.884 34.7727 132.437 33.5353L131.548 32.3192C131.708 32.1935 131.857 32.0802 131.997 31.9773C132.343 31.6866 132.747 31.2784 133.211 30.7881L133.401 30.5958C133.607 30.3956 133.859 30.1788 134.153 29.9892C134.326 29.8779 134.696 29.6536 135.205 29.5182C135.387 29.4697 136.132 29.2893 136.994 29.52C136.62 29.1879 136.317 28.7824 136.105 28.3299C135.465 29.1299 134.697 29.6442 133.876 29.9966C133.387 30.207 132.879 30.3123 132.387 30.3292C131.79 30.3497 130.884 30.3279 129.95 29.913C129.662 29.7849 129.406 29.6333 129.176 29.4699C129.003 29.504 128.82 29.5279 128.627 29.5349C127.591 29.5722 126.716 29.1475 126.124 28.5863C125.325 27.8294 125.09 26.9066 125.012 26.4171ZM50.0641 27.2838C49.5792 27.8916 48.8387 28.4636 47.8232 28.6625C47.6378 28.6988 47.4561 28.7184 47.2788 28.7266C47.1086 29.0019 46.9042 29.2507 46.6703 29.468C48.2378 30.0309 49.4595 31.4469 49.6209 33.2575L49.6367 33.5204L49.6423 33.6338C49.6829 33.676 49.7303 33.7253 49.7881 33.7768C49.9394 33.9116 50.1034 34.0299 50.248 34.115C50.2744 34.1305 50.2991 34.1412 50.3195 34.1522C50.3584 34.1562 50.396 34.1617 50.4329 34.1652C50.238 33.8371 50.13 33.5545 50.078 33.4071C49.8872 32.866 49.8035 32.3072 49.7863 31.7841C49.7648 31.1299 49.7264 30.2248 49.7854 29.1828L49.7909 29.088L49.8021 28.9942C49.8711 28.3879 49.9572 27.819 50.0641 27.2838ZM29.7991 26.2703C29.386 26.9959 28.8693 27.5883 28.2932 28.0707C28.7929 28.4467 29.2013 28.9698 29.4442 29.6334L29.5297 29.8944L29.5817 30.1016C29.6701 30.5027 29.6835 30.9098 29.631 31.3056C29.8067 31.4707 29.9685 31.6496 30.1141 31.8407L30.4188 32.2625C31.445 33.5737 33.3437 34.3866 35.4393 34.0797C35.5242 33.6809 35.6607 33.3954 35.7254 33.2677C35.9258 32.8723 36.1609 32.6124 36.2094 32.5579C36.2989 32.4575 36.3762 32.383 36.4185 32.3433C36.5055 32.2617 36.5788 32.2022 36.6136 32.1743C36.6622 32.1352 36.7067 32.1032 36.7418 32.0776C36.9621 31.9075 37.369 31.559 37.8157 31.1356C38.2891 30.687 38.6565 30.2967 38.8284 30.0793C38.9278 29.9536 39.0356 29.8363 39.1498 29.7272C39.002 29.8042 38.8529 29.8775 38.7011 29.9427C38.2113 30.1531 37.7035 30.2575 37.2119 30.2744C36.6149 30.2949 35.7085 30.274 34.775 29.8591C34.4626 29.7202 34.1862 29.5548 33.9417 29.3751C33.2046 29.5221 32.344 29.4475 31.5364 28.9756C30.6638 28.4657 30.2576 27.7252 30.0834 27.3201C29.9088 26.9139 29.8356 26.5379 29.7991 26.2703ZM61.1641 30.4407C61.0838 30.6636 61.0086 30.8788 60.9402 31.0864C60.795 31.6297 60.7017 32.345 60.7265 32.9714C60.7377 33.2534 60.7713 33.4514 60.8009 33.5687C61.2927 34.0913 62.1311 34.2966 62.9311 34.0109C62.1936 33.4866 61.8404 32.809 61.7225 32.5737C61.5043 32.1384 61.361 31.678 61.2765 31.2322L61.271 31.1997L61.2654 31.1663C61.224 30.9207 61.1916 30.6787 61.1641 30.4407ZM114.36 26.1876C114.132 26.7828 113.806 27.5459 113.258 28.2426C112.941 28.6448 112.591 28.975 112.219 29.2497C112.913 29.7927 113.277 30.5178 113.428 31.1152C113.53 31.5214 113.545 31.8924 113.527 32.1966C113.854 32.4187 114.161 32.6885 114.434 33.0113L114.605 33.2259L114.709 33.3578C115.229 33.9865 115.762 34.1462 116.221 34.1271C116.495 34.1157 116.871 34.0303 117.314 33.7936C117.131 33.0927 117.209 32.4854 117.258 32.2207C117.373 31.5956 117.629 31.0851 117.873 30.7129L118.074 30.3915C118.141 30.2775 118.21 30.1559 118.281 30.0254L118.366 29.8749C118.472 29.6983 118.589 29.5373 118.714 29.3909C118.188 29.2469 117.646 28.9968 117.143 28.5743C116.728 28.226 116.428 27.8322 116.208 27.4353C116.138 27.4164 116.067 27.3963 115.995 27.3721C115.272 27.1264 114.733 26.6832 114.36 26.1876ZM155.143 33.5882C154.996 33.6781 154.858 33.749 154.723 33.8066C154.441 33.9263 154.068 34.0355 153.504 34.1113C153.558 33.5994 153.713 33.2369 153.757 33.1358C153.843 32.9369 153.931 32.7887 153.976 32.715C154.02 32.6431 154.064 32.5776 154.105 32.5208L155.143 33.5882ZM166.156 33.6143C165.955 33.7518 165.769 33.8615 165.597 33.9487C165.576 33.8352 165.562 33.7291 165.554 33.6328C165.535 33.4112 165.541 33.2047 165.56 33.0187L166.156 33.6143ZM38.7513 31.444C38.6006 31.4415 38.4633 31.451 38.3444 31.4635C38.2232 31.9546 38.2335 32.4475 38.3453 32.9119C38.8485 32.5691 39.3449 32.1485 39.8271 31.641C39.3481 31.4683 38.9426 31.4473 38.7513 31.444ZM123.003 30.7278C121.606 29.2164 119.813 29.7017 119.173 30.0301C118.869 30.1859 118.639 30.3665 118.475 30.5243C118.328 30.8913 118.248 31.2874 118.248 31.6939C118.248 32.1388 118.335 32.5391 118.481 32.8933C118.596 32.7764 118.714 32.6503 118.833 32.5115L119.004 32.321C120.154 31.1158 121.797 30.7258 123.28 31.0734C123.199 30.958 123.108 30.8413 123.003 30.7278ZM183.853 28.8548C183.321 29.3656 182.726 29.7281 182.101 29.9966C181.612 30.207 181.104 30.3123 180.612 30.3292C180.165 30.3446 179.544 30.3353 178.868 30.1555C178.858 30.2024 178.85 30.2513 178.843 30.3013C178.783 30.7302 178.793 31.3669 179.118 32.0395C179.145 32.0942 179.178 32.1582 179.22 32.2291C180.949 30.9462 183.159 31.22 184.658 32.3248C184.688 32.2711 184.713 32.222 184.734 32.178C184.78 32.0817 184.884 31.8366 184.921 31.4617C184.939 31.2753 184.95 30.9673 184.871 30.5893C184.797 30.2365 184.596 29.5903 184.012 29.0026C183.96 28.9511 183.907 28.9024 183.853 28.8548ZM95.698 31.5481C95.7011 31.56 95.705 31.5716 95.7082 31.5834C95.7287 31.5658 95.75 31.5491 95.7705 31.5314C95.7463 31.537 95.7221 31.5425 95.698 31.5481ZM85.0374 24.86C84.6876 25.1229 84.431 25.4406 84.2551 25.7788C84.207 25.8972 84.1561 26.017 84.1009 26.1374C84.0376 26.3206 83.9948 26.5059 83.9727 26.6893L83.9588 26.8342C83.9143 27.5273 84.1236 28.274 84.6704 28.8929C84.9662 29.2276 85.5218 29.6968 86.3733 29.8684C86.9263 29.9798 87.4531 29.9334 87.9174 29.7904C87.8936 29.7398 87.8678 29.6893 87.8458 29.6362C87.484 28.7598 87.5076 27.8105 87.8449 26.9912C87.9459 26.746 88.0672 26.5287 88.1998 26.3353C87.7914 26.3729 87.3406 26.3393 86.8546 26.1876C85.962 25.909 85.393 25.365 85.0374 24.86ZM40.9345 28.2705C40.6967 28.5685 40.4414 28.8268 40.1718 29.0518C40.5215 28.9025 40.8693 28.8174 41.2076 28.7824C41.1033 28.6194 41.0119 28.4483 40.9345 28.2705ZM83.3243 27.4334C83.1968 27.5972 83.0592 27.7587 82.9062 27.9137C83.1897 28.1448 83.4374 28.4238 83.6336 28.7499C83.557 28.5719 83.4998 28.405 83.4599 28.2584C83.3919 28.0085 83.3442 27.7293 83.3243 27.4334ZM32.4785 22.8821C32.3653 22.9104 32.2558 22.9448 32.1514 22.9834C31.7721 23.1236 31.4804 23.3131 31.2689 23.4841C30.9686 24.0145 30.6594 24.6053 30.3194 25.2697C30.3228 25.3957 30.346 25.6689 30.4875 26.0204C30.5804 26.2508 31.0936 27.423 32.5704 27.806C32.2825 27.2847 32.1393 26.7538 32.0836 26.2805C32.0281 25.8085 31.9664 25.1485 32.0697 24.3927C32.1438 23.8505 32.2883 23.3533 32.4785 22.8821ZM127.628 23.0019C127.135 23.1422 126.767 23.3749 126.538 23.5566C126.451 23.6254 126.373 23.6956 126.301 23.7656C126.063 24.2147 125.811 24.7105 125.54 25.266L125.537 25.3635C125.536 25.4502 125.545 25.619 125.619 25.8522C125.654 25.9614 125.863 26.632 126.598 27.1937C126.846 27.3834 127.213 27.5988 127.678 27.7279C127.436 27.2493 127.31 26.768 127.259 26.3344C127.203 25.8624 127.142 25.2024 127.245 24.4466C127.316 23.9296 127.451 23.4536 127.628 23.0019ZM174.624 24.0295C174.442 24.4957 174.257 25.0208 174.067 25.6218L174.051 25.6692C174.197 25.985 174.444 26.3754 174.868 26.7283C175.081 26.9054 175.357 27.0817 175.686 27.2188C175.58 26.9132 175.517 26.6137 175.484 26.3344C175.428 25.8624 175.367 25.2024 175.47 24.4466C175.48 24.3739 175.492 24.3022 175.504 24.2311L174.624 24.0295ZM103.493 24.1168C103.313 24.6297 103.122 25.1259 102.909 25.6023C103.014 25.8366 103.179 26.1261 103.445 26.4124C103.664 26.6479 104.05 26.9803 104.598 27.2002C104.485 26.8822 104.417 26.5707 104.383 26.2805C104.327 25.8085 104.265 25.1485 104.369 24.3927C104.372 24.3659 104.377 24.3394 104.381 24.3128L103.493 24.1168ZM42.8409 24.1047C42.717 24.1675 42.598 24.2387 42.4841 24.3175C42.4431 24.6507 42.3839 24.9728 42.316 25.2771C42.5632 25.6207 42.9385 26.0044 43.507 26.2805C43.5188 26.2862 43.5314 26.2907 43.5432 26.2963C43.2625 25.6274 43.1599 24.8975 43.232 24.1995C43.2335 24.1843 43.2342 24.169 43.2357 24.1539L42.8409 24.1047ZM132.148 24.6621C132.176 24.8663 132.188 25.0696 132.191 25.2697C132.548 25.4409 132.955 25.5337 133.384 25.5168L132.148 24.6621ZM180.465 24.7253C180.461 24.9122 180.446 25.0948 180.422 25.2716C180.777 25.4412 181.182 25.5336 181.609 25.5168L180.465 24.7253ZM36.9341 24.5813C36.9627 24.7992 36.9755 25.0061 36.9768 25.1963C37.3427 25.3798 37.7635 25.4805 38.2087 25.4629L36.9341 24.5813ZM109.371 24.6761C109.376 24.8661 109.374 25.0541 109.362 25.2381C109.707 25.395 110.097 25.4791 110.508 25.4629L109.371 24.6761ZM133.37 25.0421L133.82 25.2679C133.79 25.1443 133.747 25.0132 133.69 24.8777L133.36 24.7931L133.37 25.0421ZM181.595 25.0421L182.045 25.2679C182.015 25.1443 181.972 25.0132 181.915 24.8777L181.585 24.7931L181.595 25.0421ZM38.1939 24.9882L38.6444 25.214C38.6144 25.0904 38.572 24.9593 38.5144 24.8238L38.1836 24.7392L38.1939 24.9882ZM110.493 24.9882L110.943 25.214C110.913 25.0904 110.871 24.9593 110.813 24.8238L110.483 24.7392L110.493 24.9882ZM132.432 24.3425L133.248 24.6528L133.123 24.7327L132.372 24.5404L133.37 25.0421L133.36 24.7931L133.123 24.7327L133.248 24.6528L133.66 24.8089C133.613 24.707 133.557 24.6029 133.491 24.4986C133.48 24.4808 133.407 24.3686 133.26 24.2292C133.117 24.0943 132.939 23.9672 132.734 23.8659L132.432 24.3425ZM180.657 24.3425L181.473 24.6528L181.348 24.7327L180.597 24.5404L181.595 25.0421L181.585 24.7931L181.348 24.7327L181.473 24.6528L181.885 24.8089C181.838 24.707 181.782 24.6029 181.716 24.4986C181.704 24.4807 181.632 24.3686 181.485 24.2292C181.342 24.0943 181.164 23.9672 180.959 23.8659L180.657 24.3425ZM87.045 24.2571C86.6266 24.2343 86.2526 24.3004 85.9432 24.3983C86.0597 24.486 86.1901 24.5714 86.3362 24.65C86.6479 24.8179 87.0681 24.9699 87.5662 25.0124C87.3591 24.7765 87.1874 24.5214 87.045 24.2571ZM37.2565 24.2887L38.0731 24.599L37.9477 24.6788L37.197 24.4865L38.1939 24.9882L38.1836 24.7392L37.9477 24.6788L38.0731 24.599L38.4846 24.755C38.4592 24.6999 38.432 24.6438 38.401 24.5878L38.3156 24.4447L38.2505 24.3555C38.2124 24.3078 38.1569 24.2451 38.0833 24.1753C37.941 24.0404 37.7633 23.9133 37.5584 23.8121L37.2565 24.2887ZM109.233 23.6235C109.237 23.6386 109.24 23.6533 109.244 23.6676C109.262 23.7447 109.278 23.8102 109.288 23.8622C109.309 23.9765 109.326 24.0913 109.339 24.206L110.372 24.599L110.247 24.6788L109.496 24.4875L110.493 24.9882L110.483 24.7392L110.247 24.6788L110.372 24.599L110.784 24.755C110.758 24.6999 110.731 24.6438 110.7 24.5878L110.615 24.4447L110.549 24.3555C110.511 24.3078 110.456 24.2451 110.382 24.1753C110.222 24.0235 110.018 23.88 109.779 23.774C109.527 23.6618 109.322 23.6306 109.239 23.6225L109.233 23.6235ZM179.46 24.2496C179.548 24.4454 179.666 24.6376 179.814 24.8108C179.842 24.8438 179.873 24.872 179.9 24.9C179.895 24.8617 179.891 24.821 179.884 24.7792C179.866 24.6728 179.831 24.5163 179.768 24.3286L179.46 24.2496ZM108.359 24.1967C108.441 24.3797 108.55 24.5584 108.686 24.7225C108.645 24.5746 108.586 24.4091 108.5 24.2329L108.359 24.1967ZM138.369 23.9551C138.204 24.0155 138.046 24.0902 137.895 24.1772C138.021 24.3004 138.167 24.4228 138.336 24.5367C138.336 24.3965 138.341 24.2581 138.354 24.1224L138.369 23.9551ZM132.115 23.6764C132.05 23.6798 131.984 23.6853 131.917 23.6941C131.92 23.7032 131.924 23.7123 131.927 23.7211C131.942 23.764 131.956 23.8033 131.967 23.839C132.006 23.9595 132.038 24.0814 132.066 24.2032L132.432 24.3425L132.734 23.8659C132.708 23.8532 132.682 23.8397 132.656 23.8279C132.403 23.7156 132.198 23.6845 132.115 23.6764ZM36.9397 23.6225C36.8629 23.6265 36.7851 23.6343 36.7065 23.6458C36.7672 23.8106 36.8146 23.9741 36.8523 24.1344L37.2565 24.2887L37.5584 23.8121C37.5326 23.7993 37.507 23.7858 37.4804 23.774C37.2279 23.6617 37.023 23.6306 36.9397 23.6225ZM180.377 23.7396C180.414 23.9156 180.437 24.0914 180.451 24.2645L180.657 24.3425L180.959 23.8659C180.933 23.8532 180.907 23.8397 180.881 23.8279C180.649 23.7249 180.458 23.6896 180.363 23.6783C180.368 23.6998 180.373 23.7202 180.377 23.7396ZM104.916 22.5607C104.755 22.5988 104.603 22.6462 104.463 22.7028C104.291 22.7724 104.137 22.8526 103.998 22.9378C103.907 23.0981 103.815 23.2668 103.719 23.4442C103.646 23.6716 103.57 23.8956 103.493 24.1168L104.381 24.3128C104.476 23.6777 104.668 23.104 104.916 22.5607ZM176.209 22.2188C175.845 22.2792 175.542 22.3936 175.313 22.5068C175.081 22.9404 174.854 23.4369 174.624 24.0295L175.504 24.2311C175.626 23.5324 175.864 22.907 176.162 22.3126L176.209 22.2188ZM43.2552 23.93C43.1122 23.9778 42.9742 24.0371 42.8409 24.1047L43.2357 24.1539C43.2434 24.0784 43.2484 24.0036 43.2552 23.93ZM90.9051 19.8981C90.8596 19.9054 90.8122 19.916 90.763 19.9269C90.9058 20.131 91.0103 20.3189 91.0826 20.4666C91.2678 20.8452 91.3883 21.2366 91.4579 21.6196L92.3888 21.8091L91.4616 21.6418C91.4826 21.7603 91.4992 21.8778 91.5109 21.994C91.5148 22.033 91.5164 22.073 91.5192 22.1129L90.933 22.2439C90.9291 22.1123 90.909 21.9508 90.8513 21.7682L90.8373 21.7217L90.8057 21.6381C90.7923 21.6033 90.774 21.5621 90.7528 21.5146L89.1223 21.221L89.1205 21.2247C89.1196 21.2517 89.1175 21.2848 89.1186 21.3232C89.1249 21.5464 89.1742 21.8777 89.3379 22.2364L89.3518 22.2643C89.6583 22.9185 90.1117 23.3041 90.5363 23.5306C90.8605 23.0022 90.916 22.5439 90.926 22.4606L90.9265 22.4566C90.9335 22.3996 90.9355 22.3279 90.933 22.2439L91.5192 22.1129C91.5564 22.6364 91.4981 23.2259 91.3009 23.8037C91.3705 23.8172 91.4324 23.8265 91.4845 23.8321C91.4887 23.8326 91.4929 23.833 91.4969 23.8334C91.4794 23.8317 91.4759 23.8319 91.4845 23.8321C91.516 23.8331 91.7093 23.8352 91.9744 23.748C92.1794 23.6805 92.3223 23.5913 92.3702 23.5594C92.5497 23.4133 92.7287 23.2273 92.883 22.9936C92.8868 22.9878 93.0553 22.734 93.1292 22.3265C93.1857 22.0155 93.1544 21.7951 93.1469 21.7515C93.0482 21.3086 92.8177 20.8464 92.4241 20.4657L92.2457 20.3078L92.1352 20.2288C91.9935 20.1355 91.7585 20.0104 91.4449 19.9408C91.2602 19.8998 91.1075 19.8915 91.0101 19.8925L90.9051 19.8981ZM179.473 23.878C179.484 23.8735 179.484 23.8728 179.477 23.8764C179.473 23.8785 179.467 23.8821 179.457 23.8873L179.607 23.944C179.591 23.9118 179.574 23.8794 179.556 23.8464L179.477 23.8764L179.473 23.878ZM86.5768 21.1327C86.3204 21.4307 86.0464 21.7634 85.749 22.137C85.4699 22.6088 85.2625 22.9936 85.0903 23.3689C85.0941 23.3769 85.0976 23.3851 85.1015 23.3931C85.136 23.4636 85.196 23.577 85.2882 23.7127C85.6965 23.4875 86.1657 23.3335 86.6697 23.2862C86.6626 23.2573 86.6539 23.2288 86.6474 23.1998C86.5228 22.6403 86.433 21.9298 86.5768 21.1374V21.1327ZM62.5019 17.6312C61.764 17.8077 61.1455 18.118 60.2732 18.7526C59.0989 19.6069 57.8094 19.6988 56.7605 19.4735C56.1295 19.9618 54.9795 20.5562 53.494 20.0718C53.3711 20.0317 53.2546 19.9866 53.1438 19.938C52.6878 20.8588 52.3239 21.7505 51.9444 22.8199C52.8316 21.6639 53.8853 20.901 54.385 20.4871L55.4366 21.6028C55.6817 21.3949 55.943 21.1957 56.2217 21.0055L56.4288 20.8726C56.6404 20.7458 56.8653 20.637 57.1005 20.5484L57.3811 20.448C57.6823 20.347 58.0421 20.2477 58.4337 20.1963C58.9541 20.1279 59.8038 20.1068 60.6987 20.54C62.2161 21.2748 62.6646 22.667 62.8076 23.3875C63.4275 22.4876 64.1378 21.7455 64.7622 21.1485C63.6403 20.6922 62.8323 19.69 62.5976 18.5389C62.5964 18.5331 62.5948 18.528 62.5939 18.524C62.5321 18.2511 62.4985 17.9483 62.5019 17.6312ZM16.5818 21.0751C16.6008 21.2096 16.6228 21.3401 16.6506 21.4653C16.6537 21.4749 16.6898 21.594 16.829 21.7942C16.9754 22.0049 17.201 22.2548 17.5155 22.4984C17.7919 22.7125 18.124 22.9081 18.5049 23.0688C18.0948 22.7888 17.7339 22.4526 17.4124 22.0701C17.4038 22.0619 17.3946 22.0533 17.3724 22.032C17.3246 21.9861 17.2281 21.8923 17.1235 21.7803C17.0159 21.6651 16.8736 21.5031 16.7286 21.2981C16.6769 21.225 16.6284 21.1503 16.5818 21.0751ZM96.3279 18.8065C95.9843 19.0543 95.7511 19.3268 95.6153 19.5153C95.5696 19.5788 95.5285 19.6411 95.4918 19.7011C95.6689 20.1602 95.746 20.6057 95.7686 21.012C95.8124 21.0595 95.8595 21.1072 95.9098 21.155C96.0545 21.2925 96.2381 21.4338 96.4542 21.5638C96.5245 21.3335 96.5981 21.0602 96.6828 20.7286C96.7156 19.644 96.5807 19.2499 96.5063 19.0879C96.4731 19.0159 96.4235 18.9285 96.3279 18.8065ZM66.9557 21.3083C66.8444 21.3359 66.7312 21.3566 66.6166 21.3734L66.7346 21.4867C66.8073 21.4252 66.8815 21.3663 66.9557 21.3083ZM89.8256 20.3403C89.7351 20.4055 89.6217 20.4969 89.507 20.6227C89.3602 20.7836 89.2539 20.9482 89.1818 21.09C89.1707 21.1118 89.1619 21.133 89.153 21.1523L90.7342 21.4728C90.5998 21.1847 90.3274 20.7255 89.8256 20.3403ZM184.463 18.0577C183.431 17.3167 181.081 17.174 178.507 18.8585C177.608 19.6191 176.96 20.2395 176.448 20.8401C176.558 20.825 176.672 20.8148 176.789 20.8104C176.947 20.8044 177.099 20.8096 177.245 20.8234C177.554 20.4799 177.909 20.1441 178.322 19.8535C179.308 19.1597 180.345 18.9055 181.338 18.8641L181.661 18.8631C182.409 18.8908 183.12 19.1215 183.724 19.5042C184.229 19.8245 185.019 20.4168 185.509 21.4681C185.888 20.4894 186.233 19.6779 186.598 18.8771C185.815 18.787 185.073 18.4954 184.463 18.0577ZM74.2579 17.4668C73.5323 17.4085 73.0928 17.4751 72.7993 17.5569C72.2946 17.6976 71.8064 17.9861 70.7433 18.8325C70.2625 19.2153 69.7429 19.4705 69.2132 19.6175C69.0427 19.9088 68.8313 20.1738 68.588 20.4062C68.8807 20.3064 69.1908 20.2304 69.5226 20.1805L69.8032 20.1508C70.7852 20.0897 72.1836 20.4106 73.1059 21.4272C73.2515 20.9521 73.406 20.5458 73.4951 20.2938C73.7127 19.6788 73.8245 19.2926 73.8621 18.9291L73.8705 18.8427L73.8844 18.7563C73.9533 18.3155 74.0768 17.877 74.2579 17.4668ZM41.8468 17.9137C40.1595 17.3543 37.5947 17.3658 35.4504 18.7842C34.2872 19.5961 33.4519 20.353 32.6996 21.3055C32.9333 21.2586 33.1827 21.2364 33.4474 21.2452C33.8383 20.744 34.3183 20.2241 34.9218 19.7996C35.9081 19.1059 36.9442 18.8516 37.9374 18.8102L38.2598 18.8092C39.0085 18.8367 39.719 19.0674 40.3232 19.4503C40.8231 19.7671 41.601 20.3501 42.0921 21.3799C42.349 21.044 42.7079 20.6852 43.1985 20.4053C43.154 20.1674 43.1038 19.9524 43.0434 19.7587C42.8209 19.046 42.4638 18.4754 41.8468 17.9137ZM110.824 17.5346C110.245 17.5896 109.409 17.8403 107.944 18.5593C106.896 19.3327 106.231 19.8932 105.651 20.5419C105.58 20.6213 105.509 20.704 105.437 20.7899C105.556 20.7777 105.679 20.7691 105.807 20.7695C105.917 20.7698 106.024 20.7764 106.127 20.7862C106.439 20.4366 106.8 20.0952 107.221 19.7996C108.207 19.1059 109.243 18.8507 110.236 18.8092H110.559C111.201 18.8328 111.815 19.0058 112.357 19.296L112.622 19.4503L112.879 19.6221C113.362 19.9632 113.977 20.5129 114.39 21.378L115.546 18.3986C114.557 18.5974 113.504 18.4656 112.6 17.988C111.769 17.5492 111.284 17.4909 110.824 17.5346ZM134.374 17.4761C133.655 17.5143 132.762 17.7287 131.268 18.3466C129.696 19.3449 128.744 20.191 127.985 21.1235C127.953 21.1631 127.923 21.2047 127.891 21.2452C127.997 21.2252 128.107 21.209 128.221 21.1987C128.39 21.1834 128.553 21.1815 128.709 21.1894C129.084 20.7227 129.538 20.2471 130.097 19.8535C131.083 19.1597 132.12 18.9055 133.113 18.8641L133.436 18.8631C134.184 18.8908 134.895 19.1215 135.499 19.5042C135.864 19.7359 136.379 20.1102 136.821 20.697C137.005 20.2824 137.351 19.67 137.982 19.1753C137.764 18.7175 137.446 18.3359 136.918 17.936C135.754 17.5405 135.024 17.4415 134.374 17.4761ZM75.4526 20.7481C75.3707 20.7649 75.2921 20.7836 75.2175 20.8048C75.2688 20.859 75.3232 20.9122 75.3801 20.9646C75.4046 20.8917 75.4278 20.8193 75.4526 20.7481ZM196.048 18.8668C195.784 19.4061 195.548 19.8961 195.331 20.3561C195.494 20.3569 195.661 20.3645 195.832 20.383C196.308 20.4346 196.747 20.5549 197.146 20.7119C196.832 20.3099 196.59 19.8438 196.443 19.3286L196.433 19.2933C196.409 19.2103 196.389 19.1272 196.37 19.0443C196.267 18.9755 196.165 18.9023 196.067 18.8232C196.06 18.8375 196.055 18.8528 196.048 18.8668ZM63.3947 17.4817C63.268 17.4965 63.1467 17.5119 63.0296 17.53C62.9899 17.9367 63.0329 18.3665 63.1764 18.8046C63.3439 19.1925 63.8219 20.0353 64.9258 20.4508C65.0757 20.5073 65.2245 20.5503 65.3708 20.5828C65.4274 20.5309 65.482 20.4801 65.5352 20.4313L65.5891 20.3821L65.8678 20.6506C66.7443 20.7011 67.5083 20.3726 68.0046 19.9835C68.0928 19.9143 68.1736 19.8411 68.2498 19.768C66.83 19.8195 65.4451 19.1537 64.5969 18.0539C64.4236 17.8293 64.3067 17.7152 64.242 17.66C64.1856 17.612 64.1595 17.6012 64.15 17.5969C64.1187 17.5826 63.9624 17.5184 63.3947 17.4817ZM10.6871 15.9636C10.1526 16.0552 9.76785 16.2606 9.58067 16.3761C9.02239 16.7205 8.78145 17.1221 8.7306 17.2076C8.66038 17.3256 8.61556 17.4317 8.5866 17.5244L8.56245 17.6126C8.5393 17.712 8.49941 17.9407 8.54201 18.2723C8.56309 18.4361 8.69045 19.3949 9.63269 20.1563C9.71052 20.2192 9.79353 20.2792 9.88074 20.3366C9.88344 18.9698 10.1078 17.456 10.6871 15.9636ZM149.446 15.2919C148.802 15.4599 148.493 15.6 148.28 15.7314C148.095 15.846 147.852 16.0361 147.487 16.4755C147.486 16.4818 147.485 16.488 147.484 16.4941C147.484 16.4963 147.483 16.4984 147.483 16.5006C147.691 16.4743 147.914 16.4646 148.151 16.4802C149.093 16.5419 149.917 16.9753 150.497 17.6108L150.609 17.7399L150.732 17.8979C150.875 18.092 150.989 18.2896 151.081 18.485C151.349 18.5928 151.62 18.7373 151.884 18.93C152.116 19.0997 152.316 19.2886 152.49 19.4884L152.83 18.6875C152.895 18.4951 152.93 18.3575 152.949 18.2648C152.819 18.1148 152.593 17.8928 152.195 17.5606L153.141 16.3036C152.896 16.1557 152.666 16.037 152.44 15.9395C151.734 15.6347 150.871 15.4332 149.446 15.2919ZM202.462 18.9124C202.472 18.9887 202.484 19.0651 202.502 19.1409C202.545 19.2132 202.594 19.2816 202.644 19.3481C202.698 19.2454 202.744 19.1388 202.784 19.0294C202.679 18.982 202.571 18.9448 202.462 18.9124ZM54.2066 18.0233C54.1963 18.0381 54.1852 18.0542 54.1732 18.0716C54.1511 18.1035 54.128 18.1373 54.1016 18.1756C54.0995 18.1787 54.0973 18.1818 54.0951 18.1849C53.929 18.4699 53.7739 18.7425 53.6287 19.0081C54.367 19.2759 55.0674 19.2326 55.6234 19.0731C55.0947 18.8072 54.6169 18.4475 54.2122 18.0205C54.2103 18.0214 54.2085 18.0224 54.2066 18.0233ZM93.4934 17.5746C93.862 17.7434 94.2371 17.9815 94.5776 18.3103C94.6161 18.1484 94.6731 17.9515 94.7569 17.7353C94.462 17.647 94.1906 17.6038 93.9096 17.5848C93.7799 17.576 93.6423 17.5733 93.4934 17.5746ZM24.8418 7.76122C22.5118 7.2179 20.618 7.2251 18.87 7.66738C17.0749 8.12162 15.203 9.09267 13.0199 10.8056C11.4155 12.4021 10.217 13.7823 9.31775 15.0996C9.71527 14.7463 10.3667 14.3263 11.2659 14.2273C11.3622 14.2167 11.4573 14.2104 11.5511 14.2078C12.389 12.8317 13.5961 11.5362 15.2849 10.4647L15.427 10.3736L15.5785 10.2984C16.9861 9.59392 18.7293 9.21373 20.4494 9.61463L20.7931 9.70568L21.0105 9.77628C22.0773 10.1583 22.8699 10.9507 23.3006 11.8629C23.7208 12.753 23.8948 13.6159 23.9017 14.4502C24.7405 13.4147 25.0816 12.3616 25.1187 11.4755C25.1435 10.8835 25.2574 10.2865 25.4754 9.7289C25.5815 9.45764 25.7778 9.02624 26.1248 8.5927C25.7637 8.24289 25.3299 7.96917 24.8418 7.76122ZM200.433 13.8111C200.111 13.9298 199.776 14.0069 199.437 14.0415C199.453 14.0803 199.469 14.1194 199.487 14.1576C199.641 14.1235 199.8 14.098 199.961 14.0814L200.292 14.047L200.619 14.0136C200.606 13.9976 200.593 13.9811 200.58 13.9653L200.487 13.8622L200.433 13.8111ZM196.435 10.1516C196.443 10.2744 196.462 10.396 196.487 10.5167C196.616 10.5113 196.745 10.4964 196.872 10.4721L196.813 10.4164L196.595 10.2501C196.543 10.2144 196.489 10.183 196.435 10.1516ZM168.86 8.66795C168.635 8.71178 168.513 8.76678 168.421 8.81474C168.23 8.91408 167.959 9.10413 167.435 9.58769C167.37 9.71781 167.376 9.73662 167.383 9.70103C167.389 9.66897 167.368 9.72975 167.403 10.028C167.41 10.0441 167.416 10.0552 167.419 10.0624C167.453 10.0952 167.567 10.1935 167.891 10.3932C168.355 10.4815 168.731 10.5309 169.079 10.5446C168.958 10.1418 168.881 9.71647 168.856 9.28761C168.845 9.09509 168.845 8.88681 168.86 8.66795ZM169.598 8.62243C169.558 8.71708 169.533 8.79362 169.517 8.84447C169.458 9.02905 169.435 9.17481 169.425 9.25417L169.417 9.30712C169.417 9.30712 169.417 9.31058 169.417 9.3127C169.417 9.31681 169.418 9.32451 169.419 9.33592C169.432 9.44031 169.498 9.94436 169.913 10.5074C170.14 10.4805 170.377 10.4424 170.64 10.3894C170.676 10.3269 170.764 10.1457 170.899 9.73448C170.993 9.25546 170.997 9.04749 170.994 8.98103C170.757 8.82029 170.623 8.76722 170.525 8.7367C170.379 8.69132 170.129 8.64186 169.598 8.62243ZM187.712 7.22424C187.625 7.28498 187.541 7.34962 187.463 7.42026C187.577 7.47241 187.697 7.51658 187.823 7.55219C187.865 7.54847 187.906 7.54296 187.946 7.53732C187.885 7.43282 187.816 7.33267 187.741 7.23724L187.712 7.22424ZM187.712 7.22424L187.741 7.23724C187.735 7.23015 187.73 7.22291 187.724 7.21588C187.72 7.21866 187.716 7.22143 187.712 7.22424ZM98.6244 30.4221C99.61 30.4153 100.576 30.7424 101.361 31.313C101.333 30.8969 101.215 30.3206 100.827 29.7365C100.69 29.5297 100.535 29.3479 100.368 29.1874C99.8239 29.6693 99.2408 30.0715 98.6244 30.4221ZM102.247 30.6748C102.247 31.0998 102.167 31.5122 102.022 31.8955C102.183 32.0688 102.331 32.2552 102.462 32.453L102.59 32.6564L102.711 32.8515C103.33 33.7923 104.093 34.1563 104.737 34.2144C104.969 34.2354 105.242 34.219 105.543 34.1438L104.734 33.055C105.359 32.518 106.095 31.5421 106.833 30.4398L107.043 30.1471C107.1 30.073 107.161 29.9979 107.226 29.9223C107.176 29.9019 107.124 29.8818 107.073 29.8591C106.619 29.6571 106.244 29.3975 105.928 29.1196C105.457 29.1577 104.944 29.1036 104.424 28.9059C103.529 28.5651 102.978 27.9407 102.676 27.4446C102.53 27.2043 102.421 26.9625 102.341 26.7292C102.079 27.1893 101.788 27.6276 101.459 28.041C101.401 28.1133 101.342 28.1833 101.283 28.2528C101.866 28.8415 102.247 29.6626 102.247 30.6748Z" fill="white"/>
<path d="M85.0374 24.86C84.6876 25.1229 84.431 25.4406 84.2551 25.7788C84.207 25.8972 84.1561 26.017 84.1009 26.1374C84.0376 26.3206 83.9948 26.5059 83.9727 26.6893L83.9588 26.8342C83.9143 27.5273 84.1236 28.274 84.6704 28.8929C84.9662 29.2276 85.5218 29.6968 86.3733 29.8684C86.9263 29.9798 87.4531 29.9334 87.9174 29.7904C87.8936 29.7398 87.8678 29.6893 87.8458 29.6362C87.484 28.7598 87.5076 27.8105 87.8449 26.9912C87.9459 26.746 88.0672 26.5287 88.1998 26.3353C87.7914 26.3729 87.3406 26.3393 86.8546 26.1876C85.962 25.909 85.393 25.365 85.0374 24.86Z" fill="white"/>
<path d="M90.9051 19.8981C90.8596 19.9054 90.8122 19.916 90.763 19.9269C90.9058 20.131 91.0103 20.3189 91.0826 20.4666C91.2678 20.8452 91.3883 21.2366 91.4579 21.6196L92.3888 21.8091L91.4616 21.6418C91.4826 21.7603 91.4992 21.8778 91.5109 21.994C91.5148 22.033 91.5164 22.073 91.5192 22.1129C91.5564 22.6364 91.4981 23.2259 91.3009 23.8037C91.3705 23.8172 91.4324 23.8265 91.4845 23.8321C91.516 23.8331 91.7093 23.8352 91.9744 23.748C92.1794 23.6805 92.3223 23.5913 92.3702 23.5594C92.5497 23.4133 92.7287 23.2273 92.883 22.9936C92.8878 22.9864 93.0555 22.7327 93.1292 22.3265C93.1857 22.0155 93.1544 21.7951 93.1469 21.7515C93.0482 21.3086 92.8177 20.8464 92.4241 20.4657L92.2457 20.3078L92.1352 20.2288C91.9935 20.1355 91.7585 20.0104 91.4449 19.9408C91.2602 19.8998 91.1075 19.8915 91.0101 19.8925L90.9051 19.8981Z" fill="white"/>
<path d="M90.933 22.2439C90.9291 22.1123 90.909 21.9508 90.8513 21.7682L90.8373 21.7217L90.8057 21.6381C90.7923 21.6033 90.774 21.5621 90.7528 21.5146L89.1223 21.221L89.1205 21.2247C89.1196 21.2517 89.1175 21.2848 89.1186 21.3232C89.1249 21.5464 89.1742 21.8777 89.3379 22.2364L89.3518 22.2643C89.6583 22.9185 90.1117 23.3041 90.5363 23.5306C90.8605 23.0022 90.916 22.5439 90.926 22.4606L90.9265 22.4566C90.9335 22.3996 90.9355 22.3279 90.933 22.2439Z" fill="white"/>
<path d="M89.8256 20.3403C89.7351 20.4055 89.6217 20.4969 89.507 20.6227C89.3602 20.7836 89.2539 20.9482 89.1818 21.09C89.1707 21.1118 89.1619 21.133 89.153 21.1523L90.7342 21.4728C90.5998 21.1847 90.3274 20.7255 89.8256 20.3403Z" fill="white"/>
<path d="M109.233 23.6235L109.244 23.6676C109.262 23.7447 109.278 23.8102 109.288 23.8622C109.309 23.9765 109.326 24.0913 109.339 24.206L110.372 24.599L110.784 24.755C110.758 24.6999 110.731 24.6438 110.7 24.5878L110.615 24.4447L110.549 24.3555C110.511 24.3078 110.456 24.2451 110.382 24.1753C110.222 24.0235 110.018 23.88 109.779 23.774C109.527 23.6618 109.322 23.6306 109.239 23.6225L109.233 23.6235Z" fill="white"/>
<path d="M110.493 24.9882L110.483 24.7392L110.247 24.6788L109.496 24.4875L110.493 24.9882Z" fill="white"/>
<path d="M110.493 24.9882L110.943 25.214C110.913 25.0904 110.871 24.9593 110.813 24.8238L110.483 24.7392L110.493 24.9882Z" fill="white"/>
<path d="M109.371 24.6761C109.376 24.8661 109.374 25.0541 109.362 25.2381C109.707 25.395 110.097 25.4791 110.508 25.4629L109.371 24.6761Z" fill="white"/>
<path d="M108.359 24.1967C108.441 24.3797 108.55 24.5584 108.686 24.7225C108.645 24.5746 108.586 24.4091 108.5 24.2329L108.359 24.1967Z" fill="white"/>
<path d="M133.37 25.0421L133.82 25.2679C133.79 25.1443 133.747 25.0132 133.69 24.8777L133.36 24.7931L133.37 25.0421Z" fill="white"/>
<path d="M133.37 25.0421L133.36 24.7931L133.123 24.7327L132.372 24.5404L133.37 25.0421Z" fill="white"/>
<path d="M132.432 24.3425L132.734 23.8659C132.708 23.8532 132.682 23.8397 132.656 23.8279C132.403 23.7156 132.198 23.6845 132.115 23.6764C132.05 23.6798 131.984 23.6853 131.917 23.6941L131.927 23.7211C131.942 23.764 131.956 23.8033 131.967 23.839C132.006 23.9595 132.038 24.0814 132.066 24.2032L132.432 24.3425Z" fill="white"/>
<path d="M132.432 24.3425L133.248 24.6528L133.66 24.8089C133.613 24.707 133.557 24.6029 133.491 24.4986C133.48 24.4808 133.407 24.3686 133.26 24.2292C133.117 24.0943 132.939 23.9672 132.734 23.8659L132.432 24.3425Z" fill="white"/>
<path d="M132.148 24.6621C132.176 24.8663 132.188 25.0696 132.191 25.2697C132.548 25.4409 132.955 25.5337 133.384 25.5168L132.148 24.6621Z" fill="white"/>
<path d="M153.504 34.1113C153.492 34.2223 153.483 34.3404 153.484 34.4643C153.485 34.8526 153.556 35.4666 153.924 36.1096C154.323 36.8067 154.93 37.2895 155.58 37.5487C156.632 37.9676 157.534 37.7118 157.708 37.6626L157.716 37.6602C157.73 37.6564 157.742 37.651 157.755 37.6472C157.673 37.5513 157.592 37.4552 157.514 37.3573C157.594 37.4586 157.687 37.552 157.787 37.6379C158.229 37.5018 158.539 37.3033 158.578 37.2785L158.581 37.2765C158.614 37.256 158.642 37.2333 158.669 37.2152L155.143 33.5882C154.996 33.6781 154.858 33.749 154.723 33.8066C154.441 33.9263 154.068 34.0355 153.504 34.1113Z" fill="white"/>
<path d="M165.597 33.9487C165.687 34.4377 165.912 35.0639 166.445 35.6293C167.115 36.342 167.926 36.5924 168.504 36.655C168.756 36.6822 168.99 36.6757 169.199 36.654L166.156 33.6143C165.955 33.7518 165.769 33.8615 165.597 33.9487Z" fill="white"/>
<path d="M183.853 28.8548C183.321 29.3656 182.726 29.7281 182.101 29.9966C181.612 30.207 181.104 30.3123 180.612 30.3292C180.165 30.3446 179.544 30.3353 178.868 30.1555C178.858 30.2024 178.85 30.2513 178.843 30.3013C178.783 30.7302 178.793 31.3669 179.118 32.0395C179.145 32.0942 179.178 32.1582 179.22 32.2291C180.949 30.9462 183.159 31.22 184.658 32.3248C184.688 32.2711 184.713 32.222 184.734 32.178C184.78 32.0817 184.884 31.8366 184.921 31.4617C184.939 31.2753 184.95 30.9673 184.871 30.5893C184.797 30.2365 184.596 29.5903 184.012 29.0026C183.96 28.9511 183.907 28.9024 183.853 28.8548Z" fill="white"/>
<path d="M180.657 24.3425L181.473 24.6528L181.885 24.8089C181.838 24.707 181.782 24.6029 181.716 24.4986C181.704 24.4807 181.632 24.3686 181.485 24.2292C181.342 24.0943 181.164 23.9672 180.959 23.8659L180.657 24.3425Z" fill="white"/>
<path d="M180.657 24.3425L180.959 23.8659C180.933 23.8532 180.907 23.8397 180.881 23.8279C180.649 23.7249 180.458 23.6896 180.363 23.6783C180.368 23.6998 180.373 23.7202 180.377 23.7396C180.414 23.9156 180.437 24.0914 180.451 24.2645L180.657 24.3425Z" fill="white"/>
<path d="M179.477 23.8764C179.473 23.8785 179.467 23.8821 179.457 23.8873L179.607 23.944C179.591 23.9118 179.574 23.8794 179.556 23.8464L179.477 23.8764Z" fill="white"/>
<path d="M179.46 24.2496C179.548 24.4454 179.666 24.6376 179.814 24.8108C179.842 24.8438 179.873 24.872 179.9 24.9C179.895 24.8617 179.891 24.821 179.884 24.7792C179.866 24.6728 179.831 24.5163 179.768 24.3286L179.46 24.2496Z" fill="white"/>
<path d="M180.465 24.7253C180.461 24.9122 180.446 25.0948 180.422 25.2716C180.777 25.4412 181.182 25.5336 181.609 25.5168L180.465 24.7253Z" fill="white"/>
<path d="M181.595 25.0421L181.585 24.7931L181.348 24.7327L180.597 24.5404L181.595 25.0421Z" fill="white"/>
<path d="M181.595 25.0421L182.045 25.2679C182.015 25.1443 181.972 25.0132 181.915 24.8777L181.585 24.7931L181.595 25.0421Z" fill="white"/>
<path d="M196.048 18.8668C195.784 19.4061 195.548 19.8961 195.331 20.3561C195.494 20.3569 195.661 20.3645 195.832 20.383C196.308 20.4346 196.747 20.5549 197.146 20.7119C196.832 20.3099 196.59 19.8438 196.443 19.3286L196.433 19.2933C196.409 19.2103 196.389 19.1272 196.37 19.0443C196.267 18.9755 196.165 18.9023 196.067 18.8232C196.06 18.8375 196.055 18.8528 196.048 18.8668Z" fill="white"/>
<path d="M202.462 18.9124C202.472 18.9887 202.484 19.0651 202.502 19.1409C202.545 19.2132 202.594 19.2816 202.644 19.3481C202.698 19.2454 202.744 19.1388 202.784 19.0294C202.679 18.982 202.571 18.9448 202.462 18.9124Z" fill="white"/>
<path d="M187.712 7.22424C187.625 7.28498 187.541 7.34962 187.463 7.42026C187.577 7.47241 187.697 7.51658 187.823 7.55219C187.865 7.54847 187.906 7.54296 187.946 7.53732C187.885 7.43282 187.816 7.33267 187.741 7.23724L187.712 7.22424Z" fill="white"/>
<path d="M36.9341 24.5813C36.9627 24.7992 36.9755 25.0061 36.9768 25.1963C37.3427 25.3798 37.7635 25.4805 38.2087 25.4629L36.9341 24.5813Z" fill="white"/>
<path d="M38.1939 24.9882L38.6444 25.214C38.6144 25.0904 38.572 24.9593 38.5144 24.8238L38.1836 24.7392L38.1939 24.9882Z" fill="white"/>
<path d="M38.1939 24.9882L38.1836 24.7392L37.9477 24.6788L37.197 24.4865L38.1939 24.9882Z" fill="white"/>
<path d="M37.2565 24.2887L38.0731 24.599L38.4846 24.755C38.4592 24.6999 38.432 24.6438 38.401 24.5878L38.3156 24.4447L38.2505 24.3555C38.2124 24.3078 38.1569 24.2451 38.0833 24.1753C37.941 24.0404 37.7633 23.9133 37.5584 23.8121L37.2565 24.2887Z" fill="white"/>
<path d="M37.2565 24.2887L37.5584 23.8121C37.5326 23.7993 37.507 23.7858 37.4804 23.774C37.2279 23.6617 37.023 23.6306 36.9397 23.6225C36.8629 23.6265 36.7851 23.6343 36.7065 23.6458C36.7672 23.8106 36.8146 23.9741 36.8523 24.1344L37.2565 24.2887Z" fill="white"/>
<path d="M16.5818 21.0751C16.6008 21.2096 16.6228 21.3401 16.6506 21.4653C16.6551 21.4796 16.6929 21.5985 16.829 21.7942C16.9754 22.0049 17.201 22.2548 17.5155 22.4984C17.7919 22.7125 18.124 22.9081 18.5049 23.0688C18.0948 22.7888 17.7339 22.4526 17.4124 22.0701C17.4038 22.0619 17.3946 22.0533 17.3724 22.032C17.3246 21.9861 17.2281 21.8923 17.1235 21.7803C17.0159 21.6651 16.8736 21.5031 16.7286 21.2981C16.6769 21.225 16.6284 21.1503 16.5818 21.0751Z" fill="white"/>
<path fill-rule="evenodd" clip-rule="evenodd" d="M177.421 5.22907L178.77 10.5759L178.813 10.5666C180.068 10.3022 180.785 10.1511 181.899 9.76575C184.165 8.7936 183.41 4.58097 181.036 4.36494C179.594 4.44662 178.8 4.61518 177.421 5.22907ZM180.011 8.90162L179.309 5.98518C179.726 5.75422 180.388 5.66113 180.766 5.71514C181.521 5.87716 181.953 7.49741 181.683 8.03749C181.413 8.46955 180.702 8.72789 180.011 8.90162Z" fill="#244F33"/>
<path fill-rule="evenodd" clip-rule="evenodd" d="M184.705 9.27967L187.025 4.25692C187.879 4.19909 188.376 4.24462 189.291 4.47295L190.046 10.0898H188.427V9.00963L186.539 8.7936L186.107 9.76575L184.705 9.27967ZM188.158 7.71344L187.025 7.55141L187.942 5.60712L188.158 7.71344Z" fill="#244F33"/>
<path d="M196.682 9.00963L194.147 12.5202L195.226 13.4383L197.869 10.0898L199.11 10.9539L200.136 9.92777L196.305 6.95732L195.388 7.92947L196.682 9.00963Z" fill="#244F33"/>
<path d="M197.492 15.5446L201.862 12.0341L202.941 13.1142L198.571 16.6788L197.492 15.5446Z" fill="#244F33"/>
<path fill-rule="evenodd" clip-rule="evenodd" d="M199.38 17.4889L205.153 16.8948L205.963 18.8931L201.592 22.5117L200.621 21.1615L201.592 20.3513L200.945 18.8931L199.812 19.0011L199.38 17.4889ZM202.563 19.7032L202.186 18.6231L204.236 18.461L202.563 19.7032Z" fill="#244F33"/>
<path fill-rule="evenodd" clip-rule="evenodd" d="M20.1439 13.0062C20.93 14.3774 20.634 15.5604 19.2806 18.1369C19.0229 18.562 19.3406 19.4894 19.7123 19.5952C20.2518 20.4053 20.6835 20.5133 21.169 20.6213C25.917 21.1614 30.0715 16.3007 30.5571 11.926C30.719 8.14545 28.6687 5.66107 25.8631 4.58091C20.1439 3.17677 15.7736 4.36495 10.8098 8.30745C4.68005 14.3682 2.88785 18.5964 3.41807 28.0204C4.01157 32.2871 7.14092 36.2297 11.8889 37.6338C17.5319 38.5115 20.2195 37.7968 24.4063 34.9874C25.4869 34.0038 25.998 33.4871 26.7803 32.6111C29.478 38.6601 38.1107 39.4702 43.2364 32.7731C44.5436 32.6814 45.231 32.5438 46.3657 32.125C46.2834 33.054 46.2831 33.5743 46.3657 34.5014C46.5815 35.6356 48.3081 37.0938 49.549 37.4178C53.1416 37.8819 54.045 36.9433 54.9444 34.5014C55.1603 28.5066 55.484 25.4821 58.1817 23.6998C59.2732 23.2685 59.5069 23.5025 59.5845 24.3479C59.151 26.6602 58.4515 27.9665 57.7501 30.1267C57.2645 31.8551 57.1566 34.5014 58.1817 35.6355C60.1241 37.958 63.4692 37.958 65.6274 36.2836C66.8699 34.5561 67.03 33.2917 66.5446 30.6128C66.3826 27.2676 67.0691 26.1338 68.5409 24.3479C69.3801 23.5154 69.7982 23.4655 70.5372 23.4297C70.7436 23.7205 70.7679 24.0764 70.6991 24.9419C69.7279 27.5344 68.7568 30.9369 69.0805 33.0972C69.9058 36.4961 71.3852 37.2939 75.0694 37.5798C77.9407 36.644 79.3578 35.6478 81.436 32.7731C84.8891 38.9301 92.8204 39.3622 99.0791 32.9892C101.129 38.4981 107.388 39.3622 111.057 33.6913C113.215 38.6061 118.665 38.8761 122.225 33.5292C125.463 38.39 133.232 39.5242 138.304 32.7731C141.938 32.3952 143.625 31.4804 145.803 28.1824C147.33 25.2674 148.134 23.6821 149.472 20.9453C150.094 21.4555 150.272 21.8766 149.85 23.2137C148.694 25.8645 147.692 28.1824 147.26 30.0187C146.493 35.5896 149.472 37.2019 152.602 37.5258C155.943 37.3884 157.307 36.459 159.4 34.2313C161.612 38.012 165.928 39.4702 170.569 34.0153C172.943 38.12 177.637 39.3622 182.169 33.7993C183.572 37.5259 187.996 39.3622 192.312 34.9334C194.399 31.9873 195.431 30.1947 197.006 26.7242C197.493 25.6285 197.531 25.1655 197.168 24.6179C195.824 23.5066 195.088 23.3525 193.823 24.3479C193.068 25.4738 192.643 25.832 191.88 26.1301C190.243 26.5301 190.09 25.932 190.046 24.6179C191.018 21.7012 191.734 20.102 193.121 17.2728C193.445 15.2206 191.88 13.6543 189.506 14.3564C188.468 14.8926 187.907 15.2099 187.025 15.8686C184.435 13.3843 180.011 13.8164 176.503 16.1926C173.545 18.6721 172.221 20.4159 170.892 24.6179C170.337 25.9463 169.892 26.1477 169.004 26.1301C168.222 25.8978 167.967 25.5657 168.033 24.4019C168.518 21.5935 169.489 20.1893 170.029 17.1108C170.029 14.5725 168.68 13.7623 166.684 14.4104C165.962 14.7773 165.713 14.7345 164.634 15.6526C162.892 17.5716 162.182 19.0902 161.019 21.9715C160.101 24.4019 160.155 25.1581 159.4 25.59C157.889 26.6703 156.486 25.9682 156.486 24.6179C156.747 22.8586 157.296 21.9715 157.889 20.1352C158.678 17.8768 158.347 17.0394 157.566 15.6526C154.819 12.9205 152.936 12.2324 149.203 11.926C146.978 12.4284 145.891 13.0046 144.455 14.9504C143.861 16.6248 144.082 18.3129 145.426 18.947C143.975 23.7418 142.62 25.59 141.487 25.9681C142.389 19.4429 141.271 16.8408 138.466 14.9504C135.21 13.7576 133.302 13.8654 129.725 15.3825C125.891 17.7663 124.489 19.8042 122.495 23.9158C122.028 25.1243 121.67 25.5739 120.931 26.1301C119.223 26.4581 118.936 26.0088 118.934 24.7259C120.067 20.5134 122.333 15.2206 125.085 9.22559C125.742 7.15835 125.614 6.26826 124.599 5.12097C122.825 4.20476 121.68 4.68339 119.528 6.25514C117.519 8.77816 116.621 10.9694 115.265 15.7066C112.082 13.6159 110.072 13.7634 106.201 15.7066C103.735 17.5067 102.442 18.7317 100.644 22.1335C99.5658 25.5919 98.5461 26.8748 96.0037 28.0204C92.8743 28.9926 89.9608 28.7766 89.0436 27.5883C92.2731 28.3691 93.821 28.087 96.3274 26.8862C98.9168 25.0276 99.3858 23.6829 99.9963 21.2154C100.165 18.0587 99.406 16.9324 97.5144 15.3285C95.1462 14.0109 93.4098 14.0211 89.9608 14.6804C87.0243 15.8712 85.4977 17.0772 83.0007 20.2432C82.0565 21.8146 81.678 22.7275 81.2202 24.4019C80.7576 25.6029 80.2906 25.9107 79.3318 26.2381C78.0681 26.0493 77.8178 25.5383 77.929 24.1318C78.4211 22.2109 78.7372 21.362 79.3318 20.0272C79.8713 18.137 78.7383 15.2746 76.7959 14.5184C71.9212 13.3981 70.5163 14.7455 67.8395 16.8947C66.4307 14.6747 65.3886 14.2284 63.3074 14.1403C60.8477 14.386 59.41 15.0395 56.7249 17.3268C56.7061 15.5349 56.2821 14.9 55.1063 14.1403C54.0591 14.1264 53.5713 14.333 52.8402 15.0045C52.0109 15.2931 51.7585 15.708 51.2755 16.4087C49.6739 19.1404 49.0017 20.9539 47.9304 24.3479C47.3934 25.522 47.0388 25.7915 46.3657 25.9681C47.2046 20.1762 46.3657 17.2189 43.5601 15.0045C41.0242 13.9244 36.9777 13.7623 33.5785 16.0306C30.2933 18.3158 29.0108 20.4416 26.9422 24.5639C25.917 26.4542 23.1654 26.9943 19.982 26.7782C16.3132 26.5623 13.8313 24.1319 13.3996 22.1875C12.8601 19.7572 13.2378 15.7066 17.0685 13.2762C18.1476 12.7361 19.2806 12.6281 20.1439 13.0062ZM190.909 17.5969C191.165 16.8385 191.141 16.4679 190.909 15.8686C191.425 16.0832 191.88 16.5708 191.179 18.137C190.075 20.3951 189.521 21.7091 188.643 24.1319C188.291 25.4031 188.397 25.9999 188.913 26.9403C187.995 26.2645 187.726 24.942 188.266 23.5918C189.181 21.1225 189.793 19.8463 190.909 17.5969ZM195.226 25.8602C192.655 31.5354 191.511 32.9535 189.507 35.2576C191.518 33.8261 192.752 32.4805 195.819 25.6441C195.641 25.2828 195.5 25.2612 195.226 25.3201V25.8602ZM181.791 30.6129C180.891 32.5322 180.166 33.5997 178.122 35.4736C179.915 34.3565 180.818 33.384 182.169 30.7749C182.106 30.4329 182.003 30.4628 181.791 30.6129ZM178.716 21.7555C176.503 22.9437 175.694 26.4542 177.852 27.5884C176.342 25.6981 177.259 23.3758 178.716 21.7555ZM167.493 34.7715C168.701 33.4669 169.289 32.7171 170.029 31.315C170.126 32.1716 169.393 33.0093 167.493 34.7715ZM167.709 18.137C167.998 17.1294 167.951 16.5916 167.709 15.6526C168.431 16.0908 168.584 16.6768 168.195 18.6231L166.684 23.4838C166.276 24.7946 166.416 25.5415 167.062 26.8863C166.006 26.218 165.619 25.6122 166.144 23.1598L167.709 18.137ZM156.486 34.7715C157.458 33.7453 158.591 32.3411 159.076 31.639C158.811 32.4746 158.351 33.1045 156.486 34.7715ZM155.947 19.8653C156.739 17.6137 156.227 16.5888 154.328 15.0045L154.382 15.0406C156.408 16.4137 157.555 17.1915 156.379 20.2433L155.084 23.3218C154.674 24.5285 154.72 25.2563 155.407 26.6703C154.331 25.9005 154.005 24.6179 154.598 23.0517L155.947 19.8653ZM147.746 19.7572C145.556 24.8659 144.404 27.1652 142.189 29.8027C144.243 28.1375 145.526 26.1256 148.124 20.0273C148.058 19.8216 147.975 19.7655 147.746 19.7572ZM139.005 27.1023C140.192 22.2956 140.03 18.9471 137.495 16.3547C140.084 17.867 141.163 20.7834 139.653 27.1023H139.005ZM130.427 21.7015C127.945 23.0517 127.459 27.1023 129.725 27.6424C128.107 25.8602 129.024 23.3758 130.427 21.7015ZM121.578 30.8829C120.553 33.0281 119.629 33.9346 118.017 35.5816C119.674 34.4875 120.42 33.5972 121.578 31.747V30.8829ZM123.035 8.30753C123.357 7.34341 123.383 6.88012 123.035 6.25514C123.764 6.54565 123.971 6.93068 123.466 8.57757L117.639 23.5378C117.316 24.672 117.208 25.9682 117.909 26.9943C116.849 26.3 116.56 24.7259 117.208 23.3218L123.035 8.30753ZM106.902 35.5816C108.742 34.0024 110.409 30.8829 110.895 30.3968C110.895 31.261 109.438 33.9614 106.902 35.5816ZM107.496 21.8096C105.554 22.8357 104.475 26.3462 106.633 27.4804C105.577 25.3359 105.936 24.086 107.496 21.8096ZM98.9172 30.2888C97.4253 32.2828 96.4183 33.2501 94.2771 34.6635C96.0046 33.8543 97.0101 33.0798 98.9172 30.7209V30.2888ZM87.371 26.5083C87.1443 27.4202 87.3309 27.9132 87.9105 28.7766C86.3459 27.8044 86.2919 26.5083 87.371 26.5083ZM95.8418 16.1927C99.6726 17.3269 99.2949 23.8619 95.1404 25.7521C98.4856 22.7277 98.7014 18.7851 95.8418 16.1927ZM88.6659 23.6458C87.0473 23.2678 87.371 20.9994 89.0436 20.0272C88.1301 21.4066 87.8594 22.1909 88.6659 23.6458ZM80.7886 30.0728C79.6852 32.0905 78.893 33.1435 77.2815 34.9335C78.8285 33.6137 79.6298 32.7371 80.7886 30.6128V30.0728ZM77.1736 19.2712C77.4091 17.7657 77.0192 17.0532 75.7708 15.9227C77.1736 16.5168 77.929 17.2729 77.6592 19.5952C77.3355 21.1074 76.688 22.2956 76.5262 23.2138C76.1836 24.5266 76.2765 25.3804 76.7959 26.8863C75.7413 25.8686 75.7708 24.9419 76.0945 23.2138C76.2564 22.0796 77.0118 20.8374 77.1736 19.2712ZM65.8972 18.083C65.7655 17.2423 65.4843 16.8038 64.926 16.0307C65.7459 16.5906 66.1278 16.9868 66.4367 18.083H65.8972ZM63.685 35.6355C64.7641 34.3394 64.9208 32.5781 64.5483 30.6128C63.8534 26.4925 65.8597 24.6519 67.7859 22.8849L67.8395 22.8357C65.6274 25.4281 64.7202 26.9403 64.926 30.3968C65.1958 31.9631 65.6274 34.2314 63.685 35.6355ZM54.3509 15.7606C55.2682 15.4906 54.9444 17.6509 55.2682 18.083C54.5542 17.8997 54.3509 17.3268 54.3509 15.7606ZM53.8114 28.2365C54.189 25.9471 54.8428 24.8364 56.5091 23.0517C54.9444 24.3479 53.5956 25.104 53.11 29.3707C52.9481 32.2331 53.6495 33.8534 52.0849 35.7976C54.3509 34.6635 53.4877 31.315 53.8114 28.2365ZM43.8838 27.1023C45.352 21.5044 44.2615 18.353 42.2652 16.2467C44.9089 18.029 45.988 21.8636 44.4234 27.1023H43.8838ZM41.4559 32.125L41.8335 31.9631C40.6549 33.4454 39.9035 34.0419 38.7329 34.7472C38.5165 34.9116 38.3667 35.0039 38.3265 34.9874C38.4679 34.9051 38.603 34.8255 38.7329 34.7472C39.4311 34.2167 40.8218 32.9348 41.4559 32.125ZM35.413 21.6475C32.8771 23.4298 32.2297 26.4542 34.3339 27.5884C32.9315 24.8854 33.8736 23.7329 35.413 21.6475ZM26.2407 30.5049C25.1768 32.0514 24.4732 32.8434 22.9495 34.0694C24.4451 33.1162 25.1582 32.3646 26.3487 30.8829L26.2407 30.5049ZM15.1262 12.7902C11.1335 15.1666 8.41992 22.9415 14.6406 26.5623C9.83863 22.6737 11.1875 16.4627 15.1262 12.7902ZM26.6184 6.52526C30.2873 8.52356 30.3413 14.8965 24.4063 18.5151C29.1003 15.0585 29.532 9.76575 26.6184 6.52526ZM35.7367 23.7538C36.6092 22.4918 37.1706 22.1167 38.3265 22.1336C39.1023 22.5872 39.4994 22.8881 38.974 24.942C38.5399 26.0837 38.1957 26.5718 37.2474 26.9403C36.2327 26.9988 35.8285 26.813 35.413 26.0762C35.2974 25.173 35.2784 24.666 35.7367 23.7538ZM130.912 23.8078C131.785 22.5457 132.346 22.1706 133.502 22.1875C134.278 22.6412 134.675 22.942 134.149 24.9959C133.715 26.1376 133.371 26.6258 132.423 26.9942C131.408 27.0528 131.004 26.8669 130.588 26.1301C130.473 25.2269 130.454 24.72 130.912 23.8078ZM108.035 23.7538C108.908 22.4917 109.469 22.1166 110.625 22.1335C111.401 22.5871 111.798 22.888 111.273 24.9419C110.839 26.0836 110.494 26.5718 109.546 26.9402C108.531 26.9987 108.127 26.8129 107.712 26.0761C107.596 25.1729 107.577 24.666 108.035 23.7538ZM90.1766 21.0534C90.7374 20.5907 91.0982 20.3891 92.1729 20.5674C92.4306 20.8684 92.5165 21.0995 92.3887 21.8096C92.2383 22.5501 92.088 22.8803 91.5794 23.1598C90.8207 23.3066 90.4626 23.2093 89.9608 22.7277C89.7227 21.8769 89.8287 21.546 90.1766 21.0534ZM134.071 34.586C133.915 34.7139 133.761 34.8312 133.61 34.9335C133.773 34.8045 133.926 34.6907 134.071 34.586C135.338 33.5429 136.673 31.801 137.009 31.801C135.68 33.5842 135.054 33.8746 134.071 34.586ZM179.137 23.8078C180.01 22.5457 180.571 22.1706 181.727 22.1875C182.503 22.6412 182.9 22.942 182.374 24.9959C181.94 26.1376 181.596 26.6258 180.648 26.9942C179.633 27.0528 179.229 26.8669 178.813 26.1301C178.698 25.2269 178.679 24.72 179.137 23.8078Z" fill="#244F33"/>
<path fill-rule="evenodd" clip-rule="evenodd" d="M169.166 5.28307C167.259 5.41101 166.335 6.01643 164.795 7.49741C164.083 8.65202 163.92 9.36744 164.148 10.7919C164.542 12.1122 165.16 12.6897 166.684 13.5463C168.869 14.024 169.965 13.9558 171.81 13.5463C173.021 12.9431 173.572 12.37 174.13 10.5759C174.516 8.73994 174.354 7.89608 173.482 6.68728C172.117 5.58461 171.165 5.28715 169.166 5.28307ZM171.432 7.11935C172.409 8.64626 172.465 9.66801 171.432 11.8721C173.158 10.7919 173.212 7.76745 171.432 7.11935Z" fill="#244F33"/>
<path d="M154.328 15.0045C156.227 16.5888 156.739 17.6137 155.947 19.8653L154.598 23.0517C154.005 24.6179 154.331 25.9005 155.407 26.6703C154.72 25.2563 154.674 24.5285 155.084 23.3218L156.379 20.2433C157.555 17.1915 156.408 16.4137 154.382 15.0406M154.328 15.0045L154.382 15.0406M154.328 15.0045C154.346 15.0166 154.364 15.0286 154.382 15.0406M67.8395 22.8357C65.6274 25.4281 64.7202 26.9403 64.926 30.3968C65.1958 31.9631 65.6274 34.2314 63.685 35.6355C64.7641 34.3394 64.9208 32.5781 64.5483 30.6128C63.8534 26.4925 65.8597 24.6519 67.7859 22.8849M67.8395 22.8357L67.7859 22.8849M67.8395 22.8357C67.8217 22.8521 67.8038 22.8685 67.7859 22.8849M178.77 10.5759L177.421 5.22907C178.8 4.61518 179.594 4.44662 181.036 4.36494C183.41 4.58097 184.165 8.7936 181.899 9.76575C180.785 10.1511 180.068 10.3022 178.813 10.5666M178.77 10.5759L178.813 10.5666M178.77 10.5759C178.784 10.5728 178.799 10.5697 178.813 10.5666M134.071 34.586C133.915 34.7138 133.761 34.8312 133.61 34.9335C133.773 34.8045 133.926 34.6907 134.071 34.586ZM134.071 34.586C135.338 33.5429 136.673 31.801 137.009 31.801C135.68 33.5842 135.054 33.8746 134.071 34.586ZM38.7329 34.7472C38.5165 34.9116 38.3667 35.0039 38.3265 34.9875C38.4679 34.9051 38.603 34.8255 38.7329 34.7472ZM38.7329 34.7472C39.4311 34.2167 40.8218 32.9348 41.4559 32.125L41.8335 31.9631C40.6549 33.4454 39.9035 34.0419 38.7329 34.7472ZM20.1439 13.0062C20.93 14.3774 20.634 15.5604 19.2806 18.1369C19.0229 18.562 19.3406 19.4894 19.7123 19.5952C20.2518 20.4053 20.6835 20.5133 21.169 20.6213C25.917 21.1614 30.0715 16.3007 30.5571 11.926C30.719 8.14545 28.6687 5.66107 25.8631 4.58091C20.1439 3.17677 15.7736 4.36495 10.8098 8.30745C4.68005 14.3682 2.88785 18.5964 3.41807 28.0204C4.01157 32.2871 7.14092 36.2297 11.8889 37.6338C17.5319 38.5115 20.2195 37.7968 24.4063 34.9875C25.4869 34.0038 25.998 33.4871 26.7803 32.6111C29.478 38.6601 38.1107 39.4702 43.2363 32.7731C44.5436 32.6814 45.231 32.5438 46.3657 32.125C46.2834 33.054 46.2831 33.5743 46.3657 34.5014C46.5815 35.6356 48.3081 37.0938 49.549 37.4178C53.1416 37.8819 54.045 36.9433 54.9444 34.5014C55.1603 28.5066 55.484 25.4821 58.1817 23.6998C59.2732 23.2685 59.5069 23.5025 59.5845 24.3479C59.151 26.6602 58.4515 27.9665 57.7501 30.1267C57.2645 31.8551 57.1566 34.5014 58.1817 35.6355C60.1241 37.958 63.4692 37.958 65.6274 36.2836C66.8699 34.5561 67.03 33.2917 66.5446 30.6128C66.3826 27.2676 67.0691 26.1338 68.5409 24.3479C69.3801 23.5154 69.7982 23.4655 70.5372 23.4297C70.7436 23.7205 70.7679 24.0764 70.6991 24.9419C69.7279 27.5344 68.7568 30.9369 69.0805 33.0972C69.9058 36.4961 71.3852 37.2939 75.0694 37.5798C77.9407 36.644 79.3578 35.6478 81.436 32.7731C84.8891 38.9301 92.8204 39.3622 99.0791 32.9892C101.129 38.4981 107.388 39.3622 111.057 33.6913C113.215 38.6061 118.665 38.8761 122.225 33.5292C125.463 38.39 133.232 39.5242 138.304 32.7731C141.938 32.3952 143.625 31.4804 145.803 28.1824C147.33 25.2674 148.134 23.6821 149.472 20.9453C150.094 21.4555 150.272 21.8766 149.85 23.2137C148.694 25.8645 147.692 28.1824 147.26 30.0187C146.493 35.5896 149.472 37.2019 152.602 37.5258C155.943 37.3884 157.307 36.459 159.4 34.2313C161.612 38.012 165.928 39.4702 170.569 34.0153C172.943 38.12 177.637 39.3622 182.169 33.7993C183.572 37.5259 187.996 39.3622 192.312 34.9334C194.399 31.9873 195.431 30.1947 197.006 26.7242C197.493 25.6285 197.531 25.1655 197.168 24.6179C195.824 23.5066 195.088 23.3525 193.823 24.3479C193.068 25.4738 192.643 25.832 191.88 26.1301C190.243 26.5301 190.09 25.932 190.046 24.6179C191.018 21.7012 191.734 20.102 193.121 17.2728C193.445 15.2206 191.88 13.6543 189.506 14.3564C188.468 14.8926 187.907 15.2099 187.025 15.8686C184.435 13.3843 180.011 13.8164 176.503 16.1926C173.545 18.6721 172.221 20.4159 170.892 24.6179C170.337 25.9463 169.892 26.1477 169.004 26.1301C168.222 25.8978 167.967 25.5657 168.033 24.4019C168.518 21.5935 169.489 20.1893 170.029 17.1108C170.029 14.5725 168.68 13.7623 166.684 14.4104C165.962 14.7773 165.713 14.7345 164.634 15.6526C162.892 17.5716 162.182 19.0902 161.019 21.9715C160.101 24.4019 160.155 25.1581 159.4 25.59C157.889 26.6703 156.486 25.9682 156.486 24.6179C156.747 22.8586 157.296 21.9715 157.889 20.1352C158.678 17.8768 158.347 17.0394 157.566 15.6526C154.819 12.9205 152.936 12.2324 149.203 11.926C146.978 12.4284 145.891 13.0046 144.455 14.9504C143.861 16.6248 144.082 18.3129 145.426 18.947C143.975 23.7418 142.62 25.59 141.487 25.9681C142.389 19.4429 141.271 16.8408 138.466 14.9504C135.21 13.7576 133.302 13.8654 129.725 15.3825C125.891 17.7663 124.489 19.8042 122.495 23.9158C122.028 25.1243 121.67 25.5739 120.931 26.1301C119.223 26.4581 118.936 26.0088 118.934 24.7259C120.067 20.5134 122.333 15.2206 125.085 9.22559C125.742 7.15835 125.614 6.26826 124.599 5.12097C122.825 4.20476 121.68 4.68339 119.528 6.25514C117.518 8.77816 116.621 10.9694 115.265 15.7066C112.082 13.6159 110.072 13.7634 106.201 15.7066C103.735 17.5067 102.442 18.7317 100.644 22.1335C99.5658 25.5919 98.5461 26.8748 96.0037 28.0204C92.8743 28.9926 89.9608 28.7766 89.0436 27.5883C92.2731 28.3691 93.821 28.087 96.3274 26.8862C98.9168 25.0276 99.3858 23.6829 99.9963 21.2154C100.165 18.0587 99.406 16.9324 97.5144 15.3285C95.1462 14.0109 93.4098 14.0211 89.9608 14.6804C87.0243 15.8712 85.4977 17.0772 83.0007 20.2432C82.0566 21.8146 81.678 22.7275 81.2202 24.4019C80.7576 25.6029 80.2906 25.9107 79.3318 26.2381C78.0681 26.0493 77.8178 25.5383 77.929 24.1318C78.4211 22.2109 78.7372 21.362 79.3318 20.0272C79.8713 18.137 78.7383 15.2746 76.7959 14.5184C71.9212 13.3981 70.5163 14.7455 67.8395 16.8947C66.4307 14.6747 65.3886 14.2284 63.3074 14.1403C60.8477 14.386 59.41 15.0395 56.7249 17.3268C56.7061 15.5349 56.2821 14.9 55.1063 14.1403C54.0591 14.1264 53.5713 14.333 52.8402 15.0045C52.0109 15.2931 51.7586 15.708 51.2755 16.4087C49.6739 19.1404 49.0017 20.9539 47.9304 24.3479C47.3934 25.522 47.0389 25.7915 46.3657 25.9681C47.2046 20.1762 46.3657 17.2189 43.5601 15.0045C41.0242 13.9244 36.9777 13.7623 33.5785 16.0306C30.2933 18.3158 29.0108 20.4416 26.9422 24.5639C25.917 26.4542 23.1654 26.9943 19.982 26.7782C16.3132 26.5623 13.8313 24.1319 13.3996 22.1875C12.8601 19.7572 13.2378 15.7066 17.0685 13.2762C18.1476 12.7361 19.2806 12.6281 20.1439 13.0062ZM169.166 5.28307C167.259 5.41101 166.335 6.01643 164.795 7.49741C164.083 8.65202 163.92 9.36744 164.148 10.7919C164.542 12.1122 165.16 12.6897 166.684 13.5463C168.869 14.024 169.965 13.9558 171.81 13.5463C173.021 12.9431 173.572 12.37 174.13 10.5759C174.516 8.73994 174.354 7.89608 173.482 6.68728C172.117 5.58461 171.165 5.28715 169.166 5.28307ZM190.909 15.8686C191.141 16.4679 191.165 16.8385 190.909 17.5969C189.793 19.8463 189.181 21.1225 188.266 23.5918C187.726 24.942 187.995 26.2645 188.913 26.9403C188.397 25.9999 188.291 25.4031 188.643 24.1319C189.521 21.7091 190.075 20.3951 191.179 18.137C191.88 16.5708 191.425 16.0832 190.909 15.8686ZM189.507 35.2576C191.511 32.9535 192.655 31.5354 195.226 25.8602V25.3201C195.5 25.2612 195.641 25.2828 195.819 25.6441C192.752 32.4805 191.518 33.8261 189.507 35.2576ZM178.122 35.4736C180.166 33.5997 180.891 32.5322 181.791 30.6129C182.003 30.4628 182.106 30.4329 182.169 30.7749C180.818 33.384 179.915 34.3565 178.122 35.4736ZM178.716 21.7555C176.503 22.9437 175.694 26.4542 177.852 27.5884C176.342 25.6981 177.259 23.3758 178.716 21.7555ZM167.493 34.7715C168.701 33.4669 169.289 32.7171 170.029 31.315C170.126 32.1716 169.393 33.0093 167.493 34.7715ZM167.709 15.6526C167.951 16.5916 167.998 17.1294 167.709 18.137L166.144 23.1598C165.619 25.6122 166.006 26.218 167.062 26.8863C166.416 25.5415 166.276 24.7946 166.684 23.4838L168.195 18.6231C168.584 16.6768 168.431 16.0908 167.709 15.6526ZM171.432 7.11935C172.409 8.64626 172.465 9.66801 171.432 11.8721C173.158 10.7919 173.212 7.76745 171.432 7.11935ZM156.486 34.7715C157.458 33.7453 158.591 32.3411 159.076 31.639C158.811 32.4746 158.351 33.1045 156.486 34.7715ZM142.189 29.8027C144.404 27.1652 145.556 24.8659 147.746 19.7572C147.975 19.7655 148.058 19.8216 148.124 20.0273C145.526 26.1256 144.243 28.1375 142.189 29.8027ZM137.495 16.3547C140.03 18.9471 140.192 22.2956 139.005 27.1023H139.653C141.163 20.7834 140.084 17.867 137.495 16.3547ZM130.427 21.7015C127.945 23.0517 127.459 27.1023 129.725 27.6424C128.107 25.8602 129.024 23.3758 130.427 21.7015ZM118.017 35.5816C119.629 33.9346 120.553 33.0281 121.578 30.8829V31.747C120.42 33.5972 119.674 34.4875 118.017 35.5816ZM123.035 6.25514C123.383 6.88012 123.357 7.34341 123.035 8.30753L117.208 23.3218C116.56 24.7259 116.849 26.3 117.909 26.9943C117.208 25.9682 117.316 24.672 117.639 23.5378L123.466 8.57757C123.971 6.93068 123.764 6.54565 123.035 6.25514ZM106.902 35.5816C108.742 34.0024 110.409 30.8829 110.895 30.3968C110.895 31.261 109.438 33.9614 106.902 35.5816ZM107.496 21.8096C105.554 22.8357 104.475 26.3462 106.633 27.4804C105.577 25.3359 105.936 24.086 107.496 21.8096ZM94.2771 34.6635C96.4183 33.2501 97.4253 32.2828 98.9172 30.2888V30.7209C97.0101 33.0798 96.0046 33.8543 94.2771 34.6635ZM87.371 26.5083C87.1443 27.4202 87.3309 27.9132 87.9105 28.7766C86.3459 27.8044 86.2919 26.5083 87.371 26.5083ZM95.8418 16.1927C99.6726 17.3269 99.2949 23.8619 95.1404 25.7521C98.4856 22.7277 98.7014 18.7851 95.8418 16.1927ZM88.6659 23.6458C87.0473 23.2678 87.371 20.9994 89.0436 20.0272C88.1301 21.4066 87.8594 22.1909 88.6659 23.6458ZM77.2815 34.9335C78.893 33.1435 79.6852 32.0905 80.7886 30.0728V30.6128C79.6298 32.7371 78.8285 33.6137 77.2815 34.9335ZM75.7708 15.9227C77.0192 17.0532 77.4091 17.7657 77.1736 19.2712C77.0118 20.8374 76.2564 22.0796 76.0945 23.2138C75.7708 24.9419 75.7413 25.8686 76.7959 26.8863C76.2765 25.3804 76.1836 24.5266 76.5262 23.2138C76.688 22.2956 77.3355 21.1074 77.6592 19.5952C77.929 17.2729 77.1736 16.5168 75.7708 15.9227ZM64.926 16.0307C65.4843 16.8038 65.7655 17.2423 65.8972 18.083H66.4367C66.1278 16.9868 65.7459 16.5906 64.926 16.0307ZM54.3509 15.7606C55.2682 15.4906 54.9444 17.6509 55.2682 18.083C54.5542 17.8997 54.3509 17.3268 54.3509 15.7606ZM56.5091 23.0517C54.8428 24.8364 54.189 25.9471 53.8114 28.2365C53.4877 31.315 54.3509 34.6635 52.0849 35.7976C53.6495 33.8534 52.9481 32.2331 53.11 29.3707C53.5956 25.104 54.9444 24.3479 56.5091 23.0517ZM42.2652 16.2467C44.2615 18.353 45.352 21.5044 43.8838 27.1023H44.4234C45.988 21.8636 44.9089 18.029 42.2652 16.2467ZM35.413 21.6475C32.8771 23.4298 32.2297 26.4542 34.3339 27.5884C32.9315 24.8854 33.8736 23.7329 35.413 21.6475ZM22.9495 34.0694C24.4732 32.8434 25.1768 32.0514 26.2407 30.5049L26.3487 30.8829C25.1582 32.3646 24.4451 33.1162 22.9495 34.0694ZM15.1262 12.7902C11.1335 15.1666 8.41992 22.9415 14.6406 26.5623C9.83863 22.6737 11.1875 16.4627 15.1262 12.7902ZM26.6184 6.52526C30.2873 8.52356 30.3413 14.8965 24.4063 18.5151C29.1003 15.0585 29.532 9.76575 26.6184 6.52526ZM38.3265 22.1336C37.1706 22.1167 36.6092 22.4918 35.7367 23.7538C35.2784 24.666 35.2974 25.173 35.413 26.0762C35.8285 26.813 36.2327 26.9988 37.2474 26.9403C38.1957 26.5718 38.5399 26.0837 38.974 24.942C39.4994 22.8881 39.1023 22.5872 38.3265 22.1336ZM133.502 22.1875C132.346 22.1706 131.785 22.5457 130.912 23.8078C130.454 24.72 130.473 25.2269 130.588 26.1301C131.004 26.8669 131.408 27.0528 132.423 26.9942C133.371 26.6258 133.715 26.1376 134.149 24.9959C134.675 22.942 134.278 22.6412 133.502 22.1875ZM110.625 22.1335C109.469 22.1166 108.908 22.4917 108.036 23.7538C107.577 24.666 107.596 25.1729 107.712 26.0761C108.127 26.8129 108.531 26.9987 109.546 26.9402C110.494 26.5718 110.839 26.0836 111.273 24.9419C111.798 22.888 111.401 22.5871 110.625 22.1335ZM92.1729 20.5674C91.0982 20.3891 90.7374 20.5907 90.1766 21.0534C89.8287 21.546 89.7227 21.8769 89.9608 22.7277C90.4626 23.2093 90.8207 23.3066 91.5794 23.1598C92.088 22.8803 92.2383 22.5501 92.3887 21.8096C92.5166 21.0995 92.4306 20.8684 92.1729 20.5674ZM184.705 9.27967L187.025 4.25692C187.879 4.19909 188.376 4.24462 189.291 4.47295L190.046 10.0898H188.427V9.00963L186.539 8.7936L186.107 9.76575L184.705 9.27967ZM187.025 7.55141L188.158 7.71344L187.942 5.60712L187.025 7.55141ZM196.682 9.00963L194.147 12.5202L195.226 13.4383L197.869 10.0898L199.11 10.9539L200.136 9.92777L196.305 6.95732L195.388 7.92947L196.682 9.00963ZM197.492 15.5446L201.862 12.0341L202.941 13.1142L198.571 16.6788L197.492 15.5446ZM199.38 17.4889L205.153 16.8948L205.963 18.8931L201.592 22.5117L200.621 21.1615L201.592 20.3513L200.945 18.8931L199.812 19.0011L199.38 17.4889ZM202.186 18.6231L202.563 19.7032L204.236 18.461L202.186 18.6231ZM179.309 5.98518L180.011 8.90162C180.702 8.72789 181.413 8.46955 181.683 8.03749C181.953 7.49741 181.521 5.87716 180.766 5.71514C180.388 5.66113 179.726 5.75422 179.309 5.98518ZM181.727 22.1875C180.571 22.1706 180.01 22.5457 179.137 23.8078C178.679 24.72 178.698 25.2269 178.813 26.1301C179.229 26.8669 179.633 27.0528 180.648 26.9942C181.596 26.6258 181.94 26.1376 182.374 24.9959C182.9 22.942 182.503 22.6412 181.727 22.1875Z" stroke="#244F33" stroke-width="0.201024"/>
</svg>
