<svg width="46" height="47" viewBox="0 0 46 47" fill="none" xmlns="http://www.w3.org/2000/svg">
<path d="M38.203 8.20907C34.3361 4.3422 28.9944 1.9502 23.0934 1.9502C11.293 1.9502 1.72498 11.5168 1.72498 23.3186C1.72498 27.2459 2.78441 30.9244 4.6316 34.0869L4.57698 33.9863L1.54529 45.0579L12.8714 42.0866C15.8197 43.7239 19.3372 44.6871 23.0805 44.6871H23.0891C34.8895 44.6828 44.4532 35.1148 44.4532 23.3143C44.4532 17.4163 42.0641 12.0774 38.2015 8.21051L38.203 8.20907ZM23.0891 41.0775H23.0819C19.7484 41.0775 16.6275 40.1575 13.9639 38.5576L14.0444 38.6021L13.396 38.2183L6.67573 39.9821L8.46829 33.4286L8.04566 32.7573C6.34223 30.0806 5.33023 26.8189 5.33023 23.3201C5.33023 13.5134 13.281 5.56263 23.0877 5.56263C32.8943 5.56263 40.8451 13.5134 40.8451 23.3201C40.8451 33.1267 32.8972 41.0775 23.0891 41.0775ZM32.8296 27.7792C32.2963 27.5118 29.6714 26.2224 29.1827 26.0427C28.6925 25.8644 28.336 25.7768 27.9795 26.3115C27.6259 26.8448 26.6023 28.0466 26.2904 28.4031C25.9799 28.761 25.6665 28.8041 25.1332 28.5382C23.4801 27.8683 22.0599 26.9756 20.825 25.8759L20.8394 25.8889C19.6909 24.8251 18.7062 23.6076 17.9112 22.2649L17.871 22.1902C17.5605 21.6569 17.8379 21.3679 18.1039 21.102C18.3439 20.8634 18.6386 20.4781 18.9045 20.1676C19.1144 19.9103 19.2941 19.6156 19.4307 19.2994L19.4393 19.2749C19.5011 19.1499 19.537 19.0047 19.537 18.8494C19.537 18.6611 19.4839 18.4858 19.3919 18.3363L19.3947 18.3406C19.2596 18.0732 18.193 15.4454 17.7488 14.3759C17.3147 13.3352 16.8734 13.4775 16.547 13.4603C16.2365 13.4459 15.88 13.443 15.5235 13.443C14.9557 13.4574 14.4512 13.7133 14.1033 14.1086L14.1019 14.1114C12.949 15.2054 12.2331 16.7478 12.2331 18.457C12.2331 18.4944 12.2331 18.5332 12.2345 18.5706V18.5648C12.4229 20.6736 13.2135 22.5668 14.4296 24.1093L14.4124 24.0877C16.7181 27.5075 19.7915 30.2431 23.3982 32.0859L23.5333 32.1478C24.321 32.5043 25.3302 32.8852 26.3623 33.2115L26.5765 33.2704C27.2119 33.4717 27.9435 33.5881 28.7025 33.5881C29.1381 33.5881 29.5665 33.5493 29.9805 33.476L29.9359 33.4818C31.4726 33.1612 32.7477 32.234 33.5254 30.9676L33.5383 30.9431C33.7755 30.417 33.9135 29.8032 33.9135 29.1578C33.9135 28.8918 33.8905 28.6316 33.8459 28.3786L33.8502 28.4059C33.718 28.1831 33.3615 28.0509 32.8267 27.7821L32.8296 27.7792Z" fill="white"/>
</svg>
